SplineFontDB: 3.2
FontName: ChromSerif-Italic
FullName: Chrom Serif Italic
FamilyName: Chrom Serif
Weight: Regular
Copyright: Copyright 2014 PDFium Authors. All rights reserved. See LICENSE_FOXIT for details.
Version: 001.001
ItalicAngle: -15
UnderlinePosition: -100
UnderlineWidth: 50
Ascent: 800
Descent: 200
InvalidEm: 0
sfntRevision: 0x00000000
LayerCount: 2
Layer: 0 0 "Back" 1
Layer: 1 0 "Fore" 0
StyleMap: 0x0000
FSType: 0
OS2Version: 0
OS2_WeightWidthSlopeOnly: 0
OS2_UseTypoMetrics: 0
CreationTime: 0
ModificationTime: 1757284880
OS2TypoAscent: 0
OS2TypoAOffset: 0
OS2TypoDescent: 0
OS2TypoDOffset: 0
OS2TypoLinegap: 0
OS2WinAscent: 0
OS2WinAOffset: 0
OS2WinDescent: 0
OS2WinDOffset: 0
HheadAscent: 0
HheadAOffset: 0
HheadDescent: 0
HheadDOffset: 0
DEI: 91125
Encoding: AdobeStandard
UnicodeInterp: none
NameList: AGL For New Fonts
DisplaySize: -48
AntiAlias: 1
FitToEm: 0
BeginPrivate: 5
BlueValues 31 [-18 0 427 440 652 669 675 682]
OtherBlues 19 [-208 -204 268 270]
BlueScale 1 0
StdHW 4 [31]
StdVW 4 [75]
EndPrivate
BeginChars: 336 229

StartChar: exclam
Encoding: 33 33 1
Width: 333
Flags: HMW
HStem: 3 105 647 20G<245 265.5>
VStem: 39 105<26.5 55.5>
LayerCount: 2
Fore
SplineSet
39 41 m 0
 39 70 62 94 91 94 c 0
 120 94 144 70 144 41 c 0
 144 12 120 -11 91 -11 c 0
 62 -11 39 12 39 41 c 0
120 181 m 1
 154 342 175 474 203 598 c 0
 212 637 232 667 258 667 c 0
 273 667 302 653 302 626 c 0
 302 611 297 595 290 575 c 0
 246 451 195 335 137 177 c 1
 120 181 l 1
EndSplineSet
EndChar

StartChar: quotedbl
Encoding: 34 34 2
Width: 420
Flags: HMW
HStem: 421 21G<144 144 144 165 323 323 323 344> 646 20G<207.5 228.5 389 409.5>
VStem: 144 21<421 421> 323 21<421 421>
LayerCount: 2
Fore
SplineSet
144 421 m 1
 149 476 158 595 167 627 c 0
 174 652 195 666 220 666 c 0
 237 666 247 648 247 633 c 0
 247 585 193 486 165 421 c 1
 144 421 l 1
323 421 m 1
 328 476 337 595 346 627 c 0
 353 652 379 666 399 666 c 0
 420 666 432 647 432 630 c 0
 432 597 373 490 344 421 c 1
 323 421 l 1
EndSplineSet
EndChar

StartChar: numbersign
Encoding: 35 35 3
Width: 500
Flags: HMW
HStem: 0 21G<17 17 17 57 231 231 231 270> 203 39<13 94 2 109 13 132 148 306 361 451> 203 54 410 54 424 40<87 175 76 192 87 215 230 389 444 529> 656 20G<272 309 309 309 483 524 524 524>
VStem: 94 464
LayerCount: 2
Fore
SplineSet
148 242 m 1
 321 242 l 1
 389 424 l 1
 215 424 l 1
 148 242 l 1
17 0 m 1
 94 203 l 1
 2 203 l 1
 13 242 l 1
 109 242 l 1
 175 424 l 1
 76 424 l 1
 87 464 l 1
 192 464 l 1
 272 676 l 1
 309 676 l 1
 230 464 l 1
 403 464 l 1
 483 676 l 1
 524 676 l 1
 444 464 l 1
 540 464 l 1
 529 424 l 1
 428 424 l 1
 361 242 l 1
 462 242 l 1
 451 203 l 1
 346 203 l 1
 270 0 l 1
 231 0 l 1
 306 203 l 1
 132 203 l 1
 57 0 l 1
 17 0 l 1
EndSplineSet
EndChar

StartChar: dollar
Encoding: 36 36 4
Width: 500
Flags: HMW
HStem: -89 21G<159 194 159 159> -4 21G 0 21G<215 312> 641 27<297.5 336> 694 20G
VStem: 23 78 380 75<151.5 196.5>
LayerCount: 2
Fore
SplineSet
31 67 m 1
 58 190 l 1
 74 193 l 1
 83 119 92 54 189 32 c 1
 258 329 l 1
 188 376 123 438 123 509 c 0
 123 617 219 668 341 668 c 1
 358 731 l 1
 392 731 l 1
 376 663 l 1
 395 659 454 643 497 612 c 1
 469 498 l 1
 454 500 l 1
 454 598 403 619 369 633 c 1
 313 396 l 1
 410 322 455 276 455 196 c 0
 455 107 409 0 215 0 c 1
 194 -89 l 1
 159 -89 l 1
 181 2 l 1
 95 18 43 56 31 67 c 1
221 25 m 1
 252 25 380 35 380 163 c 0
 380 230 344 260 289 306 c 1
 221 25 l 1
282 420 m 1
 336 641 l 1
 259 641 201 610 201 536 c 0
 201 482 240 450 282 420 c 1
EndSplineSet
EndChar

StartChar: percent
Encoding: 37 37 5
Width: 833
Flags: HMW
HStem: -15 21G<81 81 81 128> -12 20<609.5 664.5 609.5 675.5> 322 20<667.5 726> 654 20<226.5 285> 657 20G<773 820 820 820>
VStem: 74 62<414 435 385 499> 315 62<557.5 583 478 602> 515 62<82 103 53 167> 756 62<225.5 251 146 270>
LayerCount: 2
Fore
SplineSet
81 -15 m 1
 773 677 l 1
 820 677 l 1
 128 -15 l 1
 81 -15 l 1
136 400 m 0
 136 370 152 340 185 340 c 0
 262 340 315 527 315 588 c 0
 315 616 306 654 264 654 c 0
 189 654 136 470 136 400 c 0
74 449 m 0
 74 549 155 674 264 674 c 0
 315 674 377 628 377 538 c 0
 377 418 276 320 193 320 c 0
 120 320 74 379 74 449 c 0
577 68 m 0
 577 38 593 8 626 8 c 0
 703 8 756 195 756 256 c 0
 756 284 747 322 705 322 c 0
 630 322 577 138 577 68 c 0
515 117 m 0
 515 217 596 342 705 342 c 0
 756 342 818 296 818 206 c 0
 818 86 717 -12 634 -12 c 0
 561 -12 515 47 515 117 c 0
EndSplineSet
EndChar

StartChar: ampersand
Encoding: 38 38 6
Width: 778
Flags: HMW
HStem: -18 49<558 658> -17 49 397 31 634 32<442.5 479>
VStem: 76 94<124 202.5> 324 81<489 523.5> 517 69<536.5 598 528.5 606>
LayerCount: 2
Fore
SplineSet
410 428 m 1
 470 466 517 495 517 578 c 0
 517 634 487 634 471 634 c 0
 414 634 405 562 405 507 c 0
 405 471 407 454 410 428 c 1
438 90 m 1
 392 148 353 275 333 345 c 0
 332 345 170 284 170 167 c 0
 170 81 233 34 300 34 c 0
 335 34 392 48 438 90 c 1
457 61 m 1
 374 8 334 -18 254 -18 c 0
 204 -18 76 4 76 138 c 0
 76 267 200 321 331 378 c 1
 325 439 324 448 324 461 c 0
 324 586 394 666 485 666 c 0
 544 666 586 622 586 574 c 0
 586 483 474 427 414 397 c 1
 426 345 458 226 501 160 c 1
 545 213 571 246 571 288 c 0
 571 315 561 331 530 331 c 1
 530 350 l 1
 715 350 l 1
 715 333 l 1
 666 333 646 304 619 267 c 0
 604 247 575 196 520 125 c 1
 557 58 600 31 641 31 c 0
 675 31 696 49 712 61 c 1
 723 50 l 1
 689 8 646 -18 595 -18 c 0
 521 -18 481 31 457 61 c 1
EndSplineSet
EndChar

StartChar: quotesingle
Encoding: 169 39 7
Width: 214
Flags: HMW
HStem: 421 21G<132 132 132 153> 646 20G<198 219>
VStem: 132 21<421 421>
LayerCount: 2
Fore
SplineSet
132 421 m 1
 137 476 146 596 155 628 c 0
 162 653 188 666 208 666 c 0
 230 666 241 645 241 628 c 0
 241 599 194 509 153 421 c 1
 132 421 l 1
EndSplineSet
EndChar

StartChar: parenleft
Encoding: 40 40 8
Width: 333
Flags: HMW
HStem: -181 21G<141 141> 649 20G<302 302>
VStem: 42 71<161.5 260.5 161.5 275.5>
LayerCount: 2
Fore
SplineSet
141 -181 m 1
 47 -21 42 129 42 193 c 0
 42 358 120 514 302 669 c 1
 315 654 l 1
 209 563 113 331 113 190 c 0
 113 133 96 -58 159 -175 c 1
 141 -181 l 1
EndSplineSet
EndChar

StartChar: parenright
Encoding: 41 41 9
Width: 333
Flags: HMW
HStem: -183 21G 649 20G<190 190>
VStem: 217 72<294 294>
LayerCount: 2
Fore
SplineSet
16 -165 m 1
 123 -67 195 115 217 294 c 0
 234 433 221 568 171 664 c 1
 190 669 l 1
 262 552 289 424 289 294 c 0
 289 105 177 -61 29 -180 c 1
 16 -165 l 1
EndSplineSet
EndChar

StartChar: asterisk
Encoding: 42 42 10
Width: 500
Flags: HMW
HStem: 163 117 222 21G 581 21G<150.5 178> 646 20G<303 320.5> 653 20G
VStem: 301 18<476 491.5>
LayerCount: 2
Fore
SplineSet
300 446 m 1
 288 436 260 424 235 397 c 0
 209 368 192 340 163 340 c 0
 139 340 128 363 128 373 c 0
 128 417 165 413 218 427 c 0
 241 433 267 443 294 461 c 1
 261 480 241 487 223 492 c 0
 168 507 128 502 128 547 c 0
 128 561 139 581 162 581 c 0
 194 581 202 556 239 521 c 0
 254 507 273 492 301 476 c 1
 301 509 297 533 293 552 c 0
 285 585 275 602 275 623 c 0
 275 650 294 666 312 666 c 0
 329 666 346 652 346 624 c 0
 346 603 337 581 327 553 c 0
 322 540 319 510 319 473 c 1
 321 473 358 499 385 526 c 0
 412 554 428 582 456 582 c 0
 475 582 492 567 492 548 c 0
 492 500 453 509 397 492 c 0
 376 486 352 477 328 459 c 1
 349 448 370 436 388 431 c 0
 451 412 492 416 492 378 c 0
 492 354 473 339 455 339 c 0
 423 339 416 370 373 408 c 0
 359 420 342 433 319 446 c 1
 319 413 322 390 326 372 c 0
 335 335 348 321 347 299 c 0
 346 272 327 255 309 255 c 0
 291 255 273 273 273 298 c 0
 273 313 286 341 295 372 c 0
 302 396 301 422 300 446 c 1
EndSplineSet
EndChar

StartChar: plus
Encoding: 43 43 11
Width: 675
Flags: HMW
HStem: 0 21G<315 357 315 315> 242 41<86 315 86 315 357 590> 486 20G<315 357 357 357>
VStem: 305 66 315 42<0 242 0 242 283 506>
LayerCount: 2
Fore
SplineSet
86 242 m 1
 86 283 l 1
 315 283 l 1
 315 506 l 1
 357 506 l 1
 357 283 l 1
 590 283 l 1
 590 242 l 1
 357 242 l 1
 357 0 l 1
 315 0 l 1
 315 242 l 1
 86 242 l 1
EndSplineSet
EndChar

StartChar: comma
Encoding: 44 44 12
Width: 250
Flags: HMW
HStem: -129 21G<5 5> 81 20G<72 93>
VStem: 23 112<36 50.5 -4.5 68> 71 64<-43.5 50.5>
LayerCount: 2
Fore
SplineSet
-4 -112 m 1
 16 -99 71 -62 71 -25 c 0
 71 -8 59 -1 47 7 c 0
 35 15 23 25 23 47 c 0
 23 89 68 101 76 101 c 0
 110 101 135 72 135 29 c 0
 135 -38 62 -101 5 -129 c 1
 -4 -112 l 1
EndSplineSet
EndChar

StartChar: hyphen
Encoding: 45 45 13
Width: 333
Flags: HMW
HStem: 192 63<49 282 65 267>
VStem: 49 233<192 255>
LayerCount: 2
Fore
SplineSet
49 192 m 1
 65 255 l 1
 282 255 l 1
 267 192 l 1
 49 192 l 1
EndSplineSet
EndChar

StartChar: period
Encoding: 46 46 14
Width: 250
Flags: HMW
HStem: -11 111<66.5 97.5>
VStem: 27 111<28.5 59.5>
LayerCount: 2
Fore
SplineSet
27 44 m 0
 27 75 51 100 82 100 c 0
 113 100 138 75 138 44 c 0
 138 13 113 -11 82 -11 c 0
 51 -11 27 13 27 44 c 0
EndSplineSet
EndChar

StartChar: slash
Encoding: 47 47 15
Width: 278
Flags: HMW
HStem: -18 21G<-65 -20 -65 -65> 646 20G<342 386 386 386>
VStem: -20 375
LayerCount: 2
Fore
SplineSet
-20 -18 m 1
 -65 -18 l 1
 342 666 l 1
 386 666 l 1
 -20 -18 l 1
EndSplineSet
EndChar

StartChar: zero
Encoding: 48 48 16
Width: 500
Flags: HMW
HStem: -7 28<182 265 182 277> 648 28<267.5 375>
VStem: 32 79<152 204.5 98 339> 418 79<428.5 472 324 531>
LayerCount: 2
Fore
SplineSet
32 204 m 0
 32 474 198 676 337 676 c 0
 470 676 497 521 497 423 c 0
 497 225 361 -7 193 -7 c 0
 89 -7 32 100 32 204 c 0
111 156 m 0
 111 40 166 21 198 21 c 0
 332 21 418 341 418 516 c 0
 418 546 418 648 332 648 c 0
 183 648 111 253 111 156 c 0
EndSplineSet
EndChar

StartChar: one
Encoding: 49 49 17
Width: 500
Flags: HMW
HStem: 0 21G<49 49 49 328> 656 20G<401 406.5>
VStem: 49 356
LayerCount: 2
Fore
SplineSet
49 0 m 1
 49 15 l 1
 95 15 152 33 165 78 c 2
 299 560 l 2
 302 571 306 585 306 593 c 0
 306 614 294 625 266 625 c 0
 252 625 233 624 211 623 c 1
 211 638 l 1
 258 646 397 676 405 676 c 0
 408 676 409 674 409 670 c 0
 409 663 406 650 403 640 c 2
 253 75 l 2
 252 70 252 66 252 62 c 0
 252 26 283 15 328 15 c 1
 328 0 l 1
 49 0 l 1
EndSplineSet
EndChar

StartChar: two
Encoding: 50 50 18
Width: 500
Flags: HMW
HStem: 0 76<111 291 291 324 111 367> 603 73<277.5 281.5>
VStem: 366 86<475.5 512>
LayerCount: 2
Fore
SplineSet
12 0 m 1
 12 24 l 1
 222 241 l 2
 362 390 366 448 366 481 c 0
 366 543 320 603 243 603 c 0
 153 603 115 534 101 509 c 1
 80 516 l 1
 134 672 265 676 290 676 c 0
 396 676 452 584 452 509 c 0
 452 442 427 397 303 273 c 2
 111 81 l 1
 111 76 l 1
 291 76 l 2
 357 76 383 103 400 139 c 1
 417 132 l 1
 367 0 l 1
 12 0 l 1
EndSplineSet
EndChar

StartChar: three
Encoding: 51 51 19
Width: 500
Flags: HMW
HStem: -7 38<183 214 183 221.5> -7 108<43.5 221.5> 361 16<139 140> 634 42<290.5 310>
VStem: 346 80 378 87<513 576.5>
LayerCount: 2
Fore
SplineSet
140 361 m 1
 139 377 l 1
 239 391 378 435 378 543 c 0
 378 610 329 634 291 634 c 0
 228 634 193 587 178 567 c 1
 162 572 l 1
 187 632 262 676 319 676 c 0
 393 676 465 634 465 551 c 0
 465 475 415 440 310 401 c 1
 310 398 l 1
 336 386 405 356 405 246 c 0
 405 135 314 -7 129 -7 c 0
 70 -7 15 7 15 52 c 0
 15 73 25 101 62 101 c 0
 85 101 106 83 127 65 c 0
 148 48 169 31 197 31 c 0
 231 31 325 65 325 191 c 0
 325 331 237 368 140 361 c 1
EndSplineSet
EndChar

StartChar: four
Encoding: 52 52 20
Width: 500
Flags: HMW
HStem: 0 21G<214 293 214 214> 168 63<65 260> 656 20G<438 479 479 479>
VStem: 1 478
LayerCount: 2
Fore
SplineSet
1 168 m 1
 21 235 l 1
 438 676 l 1
 479 676 l 1
 355 231 l 1
 450 231 l 1
 436 166 l 1
 336 166 l 1
 293 0 l 1
 214 0 l 1
 260 168 l 1
 1 168 l 1
65 231 m 1
 274 231 l 1
 373 563 l 1
 369 563 l 1
 65 235 l 1
 65 231 l 1
EndSplineSet
EndChar

StartChar: five
Encoding: 53 53 21
Width: 500
Flags: HMW
HStem: -7 42<165 214.5> 595 71<238 468 238 238>
VStem: 350 69<211 309.5>
LayerCount: 2
Fore
SplineSet
131 423 m 1
 131 438 l 1
 235 666 l 1
 491 666 l 1
 468 595 l 1
 238 595 l 1
 199 497 l 1
 329 471 419 409 419 275 c 0
 419 147 312 -7 117 -7 c 0
 45 -7 15 21 15 49 c 0
 15 78 36 90 55 90 c 0
 77 90 94 77 112 64 c 0
 131 50 151 35 179 35 c 0
 277 35 350 146 350 233 c 0
 350 386 247 398 131 423 c 1
EndSplineSet
EndChar

StartChar: six
Encoding: 54 54 22
Width: 500
Flags: HMW
HStem: -7 26<169.5 261 155 295> 400 36 666 20G<367.5 520>
VStem: 33 76 372 89<236 322>
LayerCount: 2
Fore
SplineSet
106 157 m 0
 106 131 106 19 204 19 c 0
 318 19 372 191 372 281 c 0
 372 363 330 421 254 421 c 0
 116 421 106 173 106 157 c 0
199 438 m 1
 203 436 l 1
 231 449 261 457 292 457 c 0
 360 457 461 405 461 263 c 0
 461 162 380 -7 210 -7 c 0
 129 -7 30 46 30 210 c 0
 30 416 215 686 520 686 c 1
 521 670 l 1
 345 670 223 488 199 438 c 1
EndSplineSet
EndChar

StartChar: seven
Encoding: 55 55 23
Width: 500
Flags: HMW
HStem: -8 21G<79 79 79 149> 593 73<196 232 232 444>
VStem: 75 456<530 666>
LayerCount: 2
Fore
SplineSet
79 -8 m 1
 446 590 l 1
 444 593 l 1
 232 593 l 2
 160 593 123 561 89 521 c 1
 75 530 l 1
 156 666 l 1
 531 666 l 1
 537 656 l 1
 149 -8 l 1
 79 -8 l 1
EndSplineSet
EndChar

StartChar: eight
Encoding: 56 56 24
Width: 500
Flags: HMW
HStem: -7 22<194 264 194 297> 653 23<286 352 272 358.5>
VStem: 30 68<142 217.5 114.5 229.5> 138 78<529 575.5 529 575.5> 369 75<122 182.5> 425 68<496.5 562>
LayerCount: 2
Fore
SplineSet
311 399 m 1
 366 425 425 455 425 538 c 0
 425 586 399 653 318 653 c 0
 254 653 216 609 216 542 c 0
 216 516 216 485 311 399 c 1
247 344 m 1
 221 336 98 281 98 154 c 0
 98 75 151 15 237 15 c 0
 291 15 369 54 369 150 c 0
 369 215 344 244 247 344 c 1
225 360 m 1
 164 425 138 472 138 524 c 0
 138 627 225 676 319 676 c 0
 385 676 493 645 493 535 c 0
 493 438 384 400 329 382 c 1
 404 307 444 243 444 165 c 0
 444 79 364 -7 230 -7 c 0
 51 -7 30 127 30 157 c 0
 30 302 201 353 225 360 c 1
EndSplineSet
EndChar

StartChar: nine
Encoding: 57 57 25
Width: 500
Flags: HMW
HStem: -17 21G<23 100> 238 46 650 26<261.5 360.5 250.5 367.5>
VStem: 69 88<396 458.5 396 483.5> 417 75<489.5 522.5>
LayerCount: 2
Fore
SplineSet
157 412 m 0
 157 380 161 265 261 265 c 0
 292 265 348 282 376 325 c 0
 401 364 417 476 417 503 c 0
 417 542 417 650 318 650 c 0
 205 650 157 505 157 412 c 0
23 1 m 1
 149 1 341 204 352 262 c 1
 348 264 l 1
 308 238 264 219 220 219 c 0
 135 219 69 296 69 415 c 0
 69 552 192 676 309 676 c 0
 412 676 492 602 492 454 c 0
 492 157 177 -17 23 -17 c 1
 23 1 l 1
EndSplineSet
EndChar

StartChar: colon
Encoding: 58 58 26
Width: 333
Flags: HMW
HStem: -11 110<90 120> 331 110<191 221>
VStem: 50 110<29 59> 151 110<371 401>
LayerCount: 2
Fore
SplineSet
151 386 m 0
 151 416 176 441 206 441 c 0
 236 441 261 416 261 386 c 0
 261 356 236 331 206 331 c 0
 176 331 151 356 151 386 c 0
50 44 m 0
 50 74 75 99 105 99 c 0
 135 99 160 74 160 44 c 0
 160 14 135 -11 105 -11 c 0
 75 -11 50 14 50 44 c 0
EndSplineSet
EndChar

StartChar: semicolon
Encoding: 59 59 27
Width: 333
Flags: HMW
HStem: 329 112<189.5 220.5>
VStem: 149 112<369.5 400.5> 150 111
LayerCount: 2
Fore
SplineSet
149 385 m 0
 149 416 174 441 205 441 c 0
 236 441 261 416 261 385 c 0
 261 354 236 329 205 329 c 0
 174 329 149 354 149 385 c 0
27 -112 m 1
 47 -99 102 -62 102 -25 c 0
 102 -10 92 -3 82 4 c 0
 69 12 55 20 55 44 c 0
 55 86 86 101 107 101 c 0
 141 101 166 72 166 29 c 0
 166 -38 93 -101 36 -129 c 1
 27 -112 l 1
EndSplineSet
EndChar

StartChar: less
Encoding: 60 60 28
Width: 675
Flags: HMW
HStem: -8 21G<592 592> 17 21G 494 20G<592 592>
VStem: 159 453
LayerCount: 2
Fore
SplineSet
84 244 m 1
 84 262 l 1
 592 514 l 1
 592 472 l 1
 150 253 l 1
 592 34 l 1
 592 -8 l 1
 84 244 l 1
EndSplineSet
EndChar

StartChar: equal
Encoding: 61 61 29
Width: 675
Flags: HMW
HStem: 120 67 319 67 346 40<86 590 86 590>
LayerCount: 2
Fore
SplineSet
86 120 m 1
 86 157 l 1
 590 157 l 1
 590 120 l 1
 86 120 l 1
86 346 m 1
 86 386 l 1
 590 386 l 1
 590 346 l 1
 86 346 l 1
EndSplineSet
EndChar

StartChar: greater
Encoding: 62 62 30
Width: 675
Flags: HMW
HStem: -8 21G<84 84> 494 20G<84 84>
LayerCount: 2
Fore
SplineSet
84 -8 m 1
 592 244 l 1
 592 262 l 1
 84 514 l 1
 84 472 l 1
 526 253 l 1
 84 34 l 1
 84 -8 l 1
EndSplineSet
EndChar

StartChar: question
Encoding: 63 63 31
Width: 500
Flags: HMW
HStem: -12 104<169.5 198.5> 642 22<315.5 354.5>
VStem: 132 104<25.5 54.5> 184 64<589 589.5> 398 74<522.5 570.5>
LayerCount: 2
Fore
SplineSet
132 40 m 0
 132 69 155 92 184 92 c 0
 213 92 236 69 236 40 c 0
 236 11 213 -12 184 -12 c 0
 155 -12 132 11 132 40 c 0
199 176 m 1
 199 250 257 337 309 391 c 0
 357 442 398 487 398 558 c 0
 398 583 391 642 318 642 c 0
 313 642 248 642 248 595 c 0
 248 583 255 576 261 569 c 0
 267 562 273 555 273 544 c 0
 273 514 240 505 230 505 c 0
 206 505 184 525 184 554 c 0
 184 625 250 664 321 664 c 0
 417 664 472 611 472 537 c 0
 472 449 390 395 338 354 c 0
 296 321 216 246 216 174 c 1
 199 176 l 1
EndSplineSet
EndChar

StartChar: at
Encoding: 64 64 32
Width: 920
Flags: HMW
HStem: -18 39<402.5 528.5> 119 33 138 43 468 44 635 31<404 571>
VStem: 118 83<242.5 408.5 227.5 415.5> 321 71<234.5 297> 766 40<330 429.5>
LayerCount: 2
Fore
SplineSet
533 208 m 1
 531 208 l 1
 519 191 474 138 416 139 c 0
 389 139 321 149 321 262 c 0
 321 332 383 500 516 500 c 0
 563 500 574 472 587 449 c 1
 597 496 l 1
 666 496 l 1
 601 234 l 2
 597 219 592 171 636 171 c 0
 718 171 766 287 766 373 c 0
 766 486 662 635 480 635 c 0
 328 635 201 519 201 298 c 0
 201 157 316 21 489 21 c 0
 577 21 639 47 696 73 c 1
 708 44 l 1
 645 14 567 -18 490 -18 c 0
 231 -18 118 176 118 309 c 0
 118 522 284 666 480 666 c 0
 663 666 806 541 806 374 c 0
 806 273 739 138 621 138 c 0
 555 138 532 196 533 208 c 1
392 264 m 0
 392 205 419 181 454 181 c 0
 496 181 571 295 570 392 c 0
 570 434 557 456 528 456 c 0
 480 456 392 384 392 264 c 0
EndSplineSet
EndChar

StartChar: A
Encoding: 65 65 33
Width: 611
Flags: HMW
HStem: 0 21G<-51 -51 -51 136 318 318 318 564> 226 36<175 369 175 374 154 369> 648 20G<368 394 394 394>
VStem: -51 187<0 16 0 16> 396 168<0 76.5>
LayerCount: 2
Fore
SplineSet
175 262 m 1
 369 262 l 1
 325 521 l 1
 324 521 l 1
 175 262 l 1
-51 0 m 1
 -51 16 l 1
 -13 16 14 71 43 121 c 2
 368 668 l 1
 394 668 l 1
 491 104 l 2
 502 43 506 16 564 16 c 1
 564 0 l 1
 318 0 l 1
 318 16 l 1
 370 16 396 36 396 76 c 0
 396 77 396 100 374 226 c 1
 154 226 l 1
 83 96 77 90 77 61 c 0
 77 35 90 16 136 16 c 1
 136 0 l 1
 -51 0 l 1
EndSplineSet
EndChar

StartChar: B
Encoding: 66 66 34
Width: 611
Flags: HMW
HStem: -5 30 0 30<218.5 274> 331 32<248 307 248 321> 623 30<340 388 388 412.5>
VStem: 189 101<522 522> 431 108<158.5 247> 487 101<459 553>
LayerCount: 2
Fore
SplineSet
248 363 m 1
 366 363 487 379 487 519 c 0
 487 587 450 623 375 623 c 0
 305 623 313 618 290 522 c 2
 248 363 l 1
174 85 m 0
 174 47 204 30 233 30 c 0
 374 30 431 109 431 208 c 0
 431 286 404 331 238 331 c 1
 223 267 174 104 174 85 c 0
-8 0 m 1
 -8 16 l 1
 28 17 64 41 76 87 c 2
 189 522 l 2
 204 579 214 637 130 637 c 1
 130 653 l 1
 388 653 l 2
 492 653 588 619 588 504 c 0
 588 414 510 371 416 352 c 1
 416 350 l 1
 469 327 539 297 539 199 c 0
 539 62 402 0 274 0 c 2
 -8 0 l 1
EndSplineSet
EndChar

StartChar: C
Encoding: 67 67 35
Width: 667
Flags: HMW
HStem: -18 45<292.5 401> 630 36<380 487.5 357.5 551.5> 644 20G<668 689 689 689>
VStem: 66 112<175.5 314.5 175.5 348.5>
LayerCount: 2
Fore
SplineSet
652 465 m 1
 634 468 l 1
 634 496 623 630 480 630 c 0
 280 630 178 388 178 241 c 0
 178 110 233 27 352 27 c 0
 465 27 535 98 583 145 c 1
 600 131 l 1
 563 87 474 -18 328 -18 c 0
 212 -18 66 52 66 252 c 0
 66 445 243 666 472 666 c 0
 503 666 530 662 552 657 c 0
 582 650 605 642 618 642 c 0
 647 642 663 654 668 664 c 1
 689 664 l 1
 652 465 l 1
EndSplineSet
EndChar

StartChar: D
Encoding: 68 68 36
Width: 722
Flags: HMW
HStem: 0 30<216 245> 623 30<349.5 408 408 466.5>
VStem: 589 111<368.5 439.5 286 449.5>
LayerCount: 2
Fore
SplineSet
195 172 m 2
 185 137 173 101 173 74 c 0
 173 48 191 30 241 30 c 0
 556 30 589 338 589 399 c 0
 589 500 555 623 378 623 c 0
 321 623 311 598 307 584 c 2
 195 172 l 2
-8 0 m 1
 -8 16 l 1
 32 16 59 38 76 100 c 2
 191 517 l 2
 205 567 218 637 130 637 c 1
 130 653 l 1
 408 653 l 2
 638 653 700 492 700 387 c 0
 700 185 539 0 245 0 c 2
 -8 0 l 1
EndSplineSet
EndChar

StartChar: E
Encoding: 69 69 37
Width: 611
Flags: HMW
HStem: 0 33<233.5 341.5 233.5 506> 326 33 328 33<253 325.5> 620 33<352 484>
VStem: -1 635
LayerCount: 2
Fore
SplineSet
-1 0 m 1
 -1 16 l 1
 26 16 65 32 83 100 c 2
 198 522 l 2
 205 545 209 568 209 588 c 0
 209 610 192 637 137 637 c 1
 137 653 l 1
 634 653 l 1
 603 500 l 1
 582 502 l 1
 584 523 584 541 584 556 c 0
 584 592 569 620 399 620 c 0
 305 620 315 591 297 524 c 2
 253 361 l 1
 414 361 420 372 442 403 c 0
 451 417 460 436 470 458 c 1
 488 454 l 1
 420 222 l 1
 400 227 l 1
 404 242 407 258 407 274 c 0
 407 314 407 328 244 328 c 1
 180 97 186 115 183 104 c 0
 181 97 181 86 181 81 c 0
 181 40 222 33 245 33 c 0
 438 33 481 71 552 170 c 1
 568 162 l 1
 506 0 l 1
 -1 0 l 1
EndSplineSet
EndChar

StartChar: F
Encoding: 70 70 38
Width: 611
Flags: HMW
HStem: 0 21G<8 8 8 260> 328 33<264 299> 620 33<371 485>
VStem: 208 99<522 522>
LayerCount: 2
Fore
SplineSet
8 0 m 1
 8 16 l 1
 73 28 77 35 99 116 c 2
 208 522 l 2
 214 543 218 566 218 585 c 0
 218 615 202 637 147 637 c 1
 147 653 l 1
 645 653 l 1
 613 500 l 1
 592 502 l 1
 593 516 595 530 595 544 c 0
 595 607 559 620 411 620 c 0
 331 620 331 611 307 522 c 2
 264 361 l 1
 417 361 434 359 480 454 c 1
 498 449 l 1
 422 215 l 1
 405 220 l 1
 408 234 413 257 413 278 c 0
 413 338 343 328 255 328 c 1
 198 115 l 2
 183 58 194 15 260 16 c 1
 260 0 l 1
 8 0 l 1
EndSplineSet
EndChar

StartChar: G
Encoding: 71 71 39
Width: 722
Flags: HMW
HStem: -18 37<279 381.5> 632 34<360.5 475 350 496.5>
VStem: 52 110<218.5 303 182 354.5>
LayerCount: 2
Fore
SplineSet
456 303 m 1
 456 319 l 1
 722 319 l 1
 722 303 l 1
 669 303 638 285 621 221 c 2
 576 44 l 1
 512 4 418 -18 345 -18 c 0
 81 -18 52 197 52 240 c 0
 52 469 243 666 457 666 c 0
 493 666 525 660 552 653 c 0
 588 643 615 632 630 632 c 0
 669 632 683 652 693 666 c 1
 708 662 l 1
 659 465 l 1
 641 468 l 1
 641 599 532 632 461 632 c 0
 260 632 162 385 162 221 c 0
 162 143 194 19 364 19 c 0
 415 19 440 30 469 53 c 0
 498 76 519 207 522 223 c 0
 523 230 523 237 523 243 c 0
 523 277 502 303 456 303 c 1
EndSplineSet
EndChar

StartChar: H
Encoding: 72 72 40
Width: 722
Flags: HMW
HStem: 0 21G<-8 -8 -8 238 355 355 355 628> 293 42 633 20G<130 403 403 403 520 767 767 767>
VStem: -8 246<0 16 0 16> -8 775<0 653 16 653> 520 247<637 653 637 653>
LayerCount: 2
Fore
SplineSet
-8 0 m 1
 -8 16 l 1
 26 16 62 38 79 100 c 2
 191 522 l 2
 197 543 202 564 202 583 c 0
 202 614 184 637 130 637 c 1
 130 653 l 1
 403 653 l 1
 403 637 l 1
 373 637 321 635 290 522 c 2
 248 368 l 1
 533 368 l 1
 574 522 l 2
 580 542 584 563 584 582 c 0
 584 613 568 637 520 637 c 1
 520 653 l 1
 767 653 l 1
 767 637 l 1
 732 637 701 635 671 520 c 2
 560 96 l 2
 558 88 557 80 557 73 c 0
 557 32 589 16 628 16 c 1
 628 0 l 1
 355 0 l 1
 355 16 l 1
 390 16 444 36 462 100 c 2
 521 326 l 1
 236 326 l 1
 176 92 l 2
 174 83 173 76 173 69 c 0
 173 31 203 16 238 16 c 1
 238 0 l 1
 -8 0 l 1
EndSplineSet
EndChar

StartChar: I
Encoding: 73 73 41
Width: 333
Flags: HMW
HStem: 0 21G<-8 -8 -8 236> 633 20G<137 384 384 384>
VStem: -8 392
LayerCount: 2
Fore
SplineSet
-8 0 m 1
 -8 16 l 1
 39 16 58 31 85 130 c 2
 192 522 l 2
 198 545 201 570 201 591 c 0
 201 616 183 637 137 637 c 1
 137 653 l 1
 384 653 l 1
 384 637 l 1
 341 637 318 619 291 522 c 2
 182 130 l 2
 177 112 172 91 172 72 c 0
 172 41 186 16 236 16 c 1
 236 0 l 1
 -8 0 l 1
EndSplineSet
EndChar

StartChar: J
Encoding: 74 74 42
Width: 444
Flags: HMW
HStem: -18 31<105.5 139 105.5 172.5> -18 142<25.5 172.5> 633 20G<237 491 491 491>
VStem: -6 93<58 61 58 85.5>
LayerCount: 2
Fore
SplineSet
237 637 m 1
 237 653 l 1
 491 653 l 1
 491 637 l 1
 438 637 424 600 401 522 c 2
 306 192 l 2
 277 86 238 -18 107 -18 c 0
 54 -18 -6 9 -6 70 c 0
 -6 101 11 124 40 124 c 0
 66 124 88 102 88 77 c 0
 88 71 87 64 87 58 c 0
 86 35 89 13 122 13 c 0
 156 13 165 47 171 67 c 2
 300 522 l 2
 306 544 311 567 311 586 c 0
 311 616 293 637 237 637 c 1
EndSplineSet
EndChar

StartChar: K
Encoding: 75 75 43
Width: 667
Flags: HMW
HStem: 0 21G<7 7 7 255 343 343 343 618> 338 37<265 267> 633 20G<146 419 419 419 500 722 722 722>
VStem: 7 715<0 653 16 653>
LayerCount: 2
Fore
SplineSet
7 0 m 1
 7 16 l 1
 64 16 74 38 97 121 c 2
 212 532 l 2
 219 556 223 577 223 594 c 0
 223 621 202 637 146 637 c 1
 146 653 l 1
 419 653 l 1
 419 637 l 1
 361 637 335 617 311 532 c 2
 267 375 l 1
 273 374 l 1
 417 475 l 2
 485 523 561 587 561 612 c 0
 561 629 549 637 500 637 c 1
 500 653 l 1
 722 653 l 1
 722 637 l 1
 693 637 654 606 647 601 c 2
 347 375 l 1
 521 72 l 2
 549 23 572 16 618 16 c 1
 618 0 l 1
 343 0 l 1
 343 16 l 1
 399 16 415 34 415 58 c 0
 415 82 395 113 380 140 c 2
 265 338 l 1
 257 339 l 1
 197 120 l 2
 191 99 185 80 185 65 c 0
 185 34 198 16 255 16 c 1
 255 0 l 1
 7 0 l 1
EndSplineSet
EndChar

StartChar: L
Encoding: 76 76 44
Width: 556
Flags: HMW
HStem: 0 36<245.5 331.5 245.5 501> 633 20G<130 403 403 403>
VStem: -8 567<0 179 16 179>
LayerCount: 2
Fore
SplineSet
-8 0 m 1
 -8 16 l 1
 23 16 56 28 73 90 c 2
 196 532 l 2
 202 554 207 574 207 590 c 0
 207 619 190 637 130 637 c 1
 130 653 l 1
 403 653 l 1
 403 637 l 1
 337 637 311 599 293 533 c 2
 172 90 l 2
 170 84 170 79 170 75 c 0
 170 36 220 36 271 36 c 0
 392 36 473 39 539 185 c 1
 559 179 l 1
 501 0 l 1
 -8 0 l 1
EndSplineSet
EndChar

StartChar: M
Encoding: 77 77 45
Width: 833
Flags: HMW
HStem: 0 21G<-18 -18 -18 180 297 297 297 314 461 461 461 734> 633 20G<134 315 315 315 706 873 873 873>
VStem: -18 891<0 653 16 653> 156 181 477 273
LayerCount: 2
Fore
SplineSet
-18 0 m 1
 -18 16 l 1
 15 16 47 30 80 146 c 2
 186 518 l 2
 197 558 208 589 208 598 c 0
 208 619 189 637 134 637 c 1
 134 653 l 1
 315 653 l 1
 370 164 l 1
 373 164 l 1
 706 653 l 1
 873 653 l 1
 873 637 l 1
 837 637 808 626 791 563 c 2
 668 120 l 2
 662 98 655 78 655 61 c 0
 655 34 672 16 734 16 c 1
 734 0 l 1
 461 0 l 1
 461 16 l 1
 550 16 555 68 569 120 c 2
 689 553 l 1
 686 553 l 1
 314 0 l 1
 297 0 l 1
 237 536 l 1
 233 536 l 1
 127 146 l 2
 120 122 112 95 112 73 c 0
 112 41 126 16 180 16 c 1
 180 0 l 1
 -18 0 l 1
EndSplineSet
EndChar

StartChar: N
Encoding: 78 78 46
Width: 667
Flags: HMW
HStem: -15 21G<461 479 461 461> 0 21G<-20 -20 -20 178> 138 20G<483 486 486 486> 633 20G<116 277 277 277 528 727 727 727>
VStem: 198 31
LayerCount: 2
Fore
SplineSet
-20 0 m 1
 -20 16 l 1
 24 16 46 34 83 164 c 2
 202 581 l 1
 185 618 157 637 116 637 c 1
 116 653 l 1
 277 653 l 1
 483 158 l 1
 486 158 l 1
 574 488 l 2
 584 524 599 569 599 587 c 0
 599 617 584 637 528 637 c 1
 528 653 l 1
 727 653 l 1
 727 637 l 1
 679 637 658 609 623 488 c 2
 479 -15 l 1
 461 -15 l 1
 233 529 l 1
 229 529 l 1
 130 167 l 2
 122 136 107 99 107 69 c 0
 107 38 123 16 178 16 c 1
 178 0 l 1
 -20 0 l 1
EndSplineSet
EndChar

StartChar: O
Encoding: 79 79 47
Width: 722
Flags: HMW
HStem: -18 33<241.5 396> 633 33<386.5 519.5>
VStem: 60 105<165.5 242 165.5 333.5> 594 105<413 509 324.5 519.5>
LayerCount: 2
Fore
SplineSet
165 177 m 0
 165 154 170 15 300 15 c 0
 503 15 594 352 594 474 c 0
 594 565 567 633 472 633 c 0
 274 633 165 307 165 177 c 0
60 223 m 0
 60 444 297 666 476 666 c 0
 596 666 699 593 699 425 c 0
 699 224 508 -18 284 -18 c 0
 199 -18 60 33 60 223 c 0
EndSplineSet
EndChar

StartChar: P
Encoding: 80 80 48
Width: 611
Flags: HMW
HStem: 0 21G<0 0 0 245> 305 36<313 362.5 308.5 448> 623 30<347 394 394 416 146 417>
VStem: 502 103<464 544>
LayerCount: 2
Fore
SplineSet
251 347 m 1
 270 344 295 341 322 341 c 0
 403 341 502 368 502 507 c 0
 502 581 472 623 362 623 c 0
 332 623 325 607 322 595 c 2
 251 347 l 1
0 0 m 1
 0 16 l 1
 64 16 77 67 95 131 c 2
 200 515 l 2
 208 543 216 571 216 592 c 0
 216 619 199 637 146 637 c 1
 146 653 l 1
 394 653 l 2
 438 653 605 652 605 501 c 0
 605 427 548 305 348 305 c 0
 278 305 264 308 242 313 c 1
 194 130 l 2
 187 105 181 83 181 65 c 0
 181 34 195 16 245 16 c 1
 245 0 l 1
 0 0 l 1
EndSplineSet
EndChar

StartChar: Q
Encoding: 81 81 49
Width: 722
Flags: HMW
HStem: -182 68<377.5 502.5> -138 155<156.5 396.5> -16 33<279 391> 633 33<377.5 510.5>
VStem: 60 105<177.5 254 177.5 345.5> 594 105<411 507 322.5 517.5>
LayerCount: 2
Fore
SplineSet
165 189 m 0
 165 166 165 17 295 17 c 0
 498 17 594 350 594 472 c 0
 594 563 558 633 463 633 c 0
 265 633 165 319 165 189 c 0
59 -154 m 1
 130 -103 139 -97 236 -12 c 1
 156 3 60 74 60 235 c 0
 60 456 288 666 467 666 c 0
 587 666 699 591 699 423 c 0
 699 222 503 -16 279 -16 c 1
 218 -73 l 1
 272 -71 328 -88 377 -101 c 0
 405 -108 430 -114 452 -114 c 0
 553 -114 613 -79 653 -38 c 1
 668 -49 l 1
 597 -156 449 -182 402 -182 c 0
 353 -182 313 -172 278 -162 c 0
 239 -151 206 -138 172 -138 c 0
 141 -138 108 -144 69 -169 c 1
 59 -154 l 1
EndSplineSet
EndChar

StartChar: R
Encoding: 82 82 50
Width: 611
Flags: HMW
HStem: 0 21G<-13 -13 -13 231 419 419 419 567> 333 28<288.5 418> 623 30<341.5 380 380 392.5>
VStem: 483 105<476.5 557>
LayerCount: 2
Fore
SplineSet
243 366 m 1
 267 362 275 361 302 361 c 0
 446 361 483 439 483 514 c 0
 483 600 421 623 364 623 c 0
 319 623 315 613 308 595 c 2
 243 366 l 1
-13 0 m 1
 -13 16 l 1
 47 16 58 57 76 120 c 2
 191 532 l 2
 197 555 203 578 203 596 c 0
 203 621 183 637 132 637 c 1
 132 653 l 1
 380 653 l 2
 416 653 588 653 588 509 c 0
 588 390 445 333 391 333 c 1
 479 99 l 2
 492 64 515 16 567 16 c 1
 567 0 l 1
 419 0 l 1
 296 324 l 1
 231 329 l 1
 175 120 l 2
 168 96 164 75 164 60 c 0
 164 29 183 16 231 16 c 1
 231 0 l 1
 -13 0 l 1
EndSplineSet
EndChar

StartChar: S
Encoding: 83 83 51
Width: 500
Flags: HMW
HStem: -18 35<209 262 170 294.5> -15 21G<17 17 17 35> -4 35 633 33<297.5 316.5 256.5 385.5> 647 20G<485 508 508 508>
LayerCount: 2
Fore
SplineSet
17 -15 m 1
 51 208 l 1
 71 206 l 1
 70 198 69 193 69 185 c 0
 69 96 125 17 215 17 c 0
 309 17 344 99 344 149 c 0
 344 213 307 244 274 279 c 0
 136 426 131 437 131 502 c 0
 131 599 210 666 303 666 c 0
 330 666 350 662 366 657 c 0
 391 650 407 641 431 641 c 0
 454 641 473 649 485 667 c 1
 508 667 l 1
 468 468 l 1
 450 471 l 1
 450 528 446 633 325 633 c 0
 270 633 219 600 219 533 c 0
 219 486 232 463 318 377 c 0
 411 286 431 246 431 180 c 0
 431 86 361 -18 228 -18 c 0
 190 -18 161 -7 136 3 c 0
 116 11 99 18 84 18 c 0
 56 18 39 -2 35 -15 c 1
 17 -15 l 1
EndSplineSet
EndChar

StartChar: T
Encoding: 84 84 52
Width: 556
Flags: HMW
HStem: 0 21G<65 65 65 355> 618 35<250 315 416 479>
LayerCount: 2
Fore
SplineSet
65 0 m 1
 65 16 l 1
 123 16 166 64 184 130 c 2
 315 618 l 1
 185 618 135 618 77 495 c 1
 59 499 l 1
 101 653 l 1
 633 653 l 1
 589 490 l 1
 572 492 l 1
 574 507 575 521 575 533 c 0
 575 612 542 618 416 618 c 1
 282 130 l 2
 275 106 269 85 269 68 c 0
 269 35 289 16 355 16 c 1
 355 0 l 1
 65 0 l 1
EndSplineSet
EndChar

StartChar: U
Encoding: 85 85 53
Width: 722
Flags: HMW
HStem: -18 41<299 398 299 399.5> 633 20G<127 400 400 400 566 765 765 765>
VStem: 102 90<99.5 171 99.5 201.5> 566 199<637 653 637 653>
LayerCount: 2
Fore
SplineSet
127 637 m 1
 127 653 l 1
 400 653 l 1
 400 637 l 1
 356 637 319 621 307 585 c 0
 292 540 192 198 192 144 c 0
 192 55 267 23 331 23 c 0
 465 23 518 140 546 241 c 0
 554 272 632 558 632 576 c 0
 632 620 601 637 566 637 c 1
 566 653 l 1
 765 653 l 1
 765 637 l 1
 718 637 690 592 685 574 c 2
 586 239 l 2
 542 90 484 -18 315 -18 c 0
 213 -18 102 37 102 151 c 0
 102 252 201 535 201 585 c 0
 201 621 178 637 127 637 c 1
EndSplineSet
EndChar

StartChar: V
Encoding: 86 86 54
Width: 611
Flags: HMW
HStem: -18 21G<240 240 240 259> 633 20G<76 317 317 317 502 688 688 688>
VStem: 76 612<637 653 637 653>
LayerCount: 2
Fore
SplineSet
240 -18 m 1
 148 492 l 2
 128 615 125 637 76 637 c 1
 76 653 l 1
 317 653 l 1
 317 637 l 1
 252 637 235 605 235 567 c 0
 235 543 241 516 245 494 c 2
 306 135 l 1
 311 135 l 1
 517 491 l 2
 531 515 560 563 560 597 c 0
 560 615 543 637 502 637 c 1
 502 653 l 1
 688 653 l 1
 688 637 l 1
 638 637 575 504 569 494 c 2
 259 -18 l 1
 240 -18 l 1
EndSplineSet
EndChar

StartChar: W
Encoding: 87 87 55
Width: 833
Flags: HMW
HStem: -18 21G<212 212 212 231 508 508 508 528> 633 20G<71 307 307 307 367 605 605 605 721 906 906 906>
VStem: 71 835<637 653 637 653>
LayerCount: 2
Fore
SplineSet
212 -18 m 1
 142 559 l 2
 138 593 125 637 71 637 c 1
 71 653 l 1
 307 653 l 1
 307 637 l 1
 276 637 231 620 231 579 c 0
 231 573 231 566 232 558 c 2
 274 197 l 1
 278 167 l 1
 281 167 l 1
 451 510 l 1
 444 569 l 2
 439 614 427 637 367 637 c 1
 367 653 l 1
 605 653 l 1
 605 637 l 1
 570 637 531 611 531 580 c 0
 531 576 531 571 531 567 c 2
 578 167 l 1
 581 167 l 1
 777 552 l 2
 779 556 786 573 786 591 c 0
 786 613 772 637 721 637 c 1
 721 653 l 1
 906 653 l 1
 906 637 l 1
 885 637 855 607 828 555 c 2
 528 -18 l 1
 508 -18 l 1
 458 436 l 1
 453 436 l 1
 231 -18 l 1
 212 -18 l 1
EndSplineSet
EndChar

StartChar: X
Encoding: 88 88 56
Width: 611
Flags: HMW
HStem: 0 21G<-29 -29 -29 185 294 294 294 567> 633 20G<76 340 340 340 447 655 655 655>
VStem: -29 684<0 653 16 653>
LayerCount: 2
Fore
SplineSet
-29 0 m 1
 -29 16 l 1
 -12 16 29 41 85 97 c 0
 102 114 116 129 274 313 c 1
 184 540 l 2
 154 616 131 637 76 637 c 1
 76 653 l 1
 340 653 l 1
 340 637 l 1
 292 637 270 621 270 596 c 0
 270 580 275 561 284 540 c 2
 343 393 l 1
 488 560 l 2
 501 575 507 591 507 604 c 0
 507 623 488 637 447 637 c 1
 447 653 l 1
 655 653 l 1
 655 637 l 1
 644 637 591 611 546 560 c 2
 361 348 l 1
 463 90 l 2
 488 26 524 16 567 16 c 1
 567 0 l 1
 294 0 l 1
 294 16 l 1
 352 16 370 37 370 61 c 0
 370 70 368 80 364 90 c 2
 292 269 l 1
 141 97 l 2
 127 80 121 65 121 52 c 0
 121 31 143 16 185 16 c 1
 185 0 l 1
 -29 0 l 1
EndSplineSet
EndChar

StartChar: Y
Encoding: 89 89 57
Width: 556
Flags: HMW
HStem: 0 21G<78 78 78 367> 633 20G<91 330 330 330 444 633 633 633>
LayerCount: 2
Fore
SplineSet
78 0 m 1
 78 16 l 1
 114 16 168 34 187 100 c 2
 244 302 l 1
 167 571 l 2
 151 628 127 637 91 637 c 1
 91 653 l 1
 330 653 l 1
 330 637 l 1
 296 637 260 620 260 589 c 0
 260 583 260 578 262 571 c 0
 268 545 301 439 325 347 c 1
 370 403 480 533 497 572 c 0
 501 582 503 590 503 598 c 0
 503 623 475 637 444 637 c 1
 444 653 l 1
 633 653 l 1
 633 637 l 1
 625 637 595 616 563 576 c 2
 344 306 l 1
 290 101 l 2
 287 89 286 79 286 70 c 0
 286 30 316 16 367 16 c 1
 367 0 l 1
 78 0 l 1
EndSplineSet
EndChar

StartChar: Z
Encoding: 90 90 58
Width: 556
Flags: HMW
HStem: 0 36<123 274 274 356> 617 36<235.5 312 312 473>
VStem: -6 612
LayerCount: 2
Fore
SplineSet
-6 0 m 1
 -6 14 l 1
 473 617 l 1
 312 617 l 2
 159 617 127 571 93 502 c 1
 74 507 l 1
 120 653 l 1
 606 653 l 1
 606 639 l 1
 123 36 l 1
 274 36 l 2
 438 36 485 68 534 171 c 1
 553 168 l 1
 499 0 l 1
 -6 0 l 1
EndSplineSet
EndChar

StartChar: bracketleft
Encoding: 91 91 59
Width: 389
Flags: HMW
HStem: -153 27<170 209> 636 27<318.5 332 332 384>
VStem: 21 370
LayerCount: 2
Fore
SplineSet
21 -153 m 1
 218 663 l 1
 391 663 l 1
 384 636 l 1
 332 636 l 2
 305 636 281 628 275 601 c 2
 115 -77 l 2
 103 -119 138 -126 170 -126 c 2
 216 -126 l 1
 209 -153 l 1
 21 -153 l 1
EndSplineSet
EndChar

StartChar: backslash
Encoding: 92 92 60
Width: 278
Flags: HMW
HStem: -148 21G<215 215 215 249> -29 21G 646 20G<39 76 76 76>
VStem: -55 375
LayerCount: 2
Fore
SplineSet
215 -148 m 1
 39 666 l 1
 76 666 l 1
 249 -148 l 1
 215 -148 l 1
EndSplineSet
EndChar

StartChar: bracketright
Encoding: 93 93 61
Width: 389
Flags: HMW
HStem: -153 27<19 71 71 90 19 185 12 71> 636 27<193 233 186 382>
VStem: 12 370
LayerCount: 2
Fore
SplineSet
19 -126 m 1
 71 -126 l 2
 109 -126 123 -108 127 -90 c 2
 288 588 l 2
 298 631 264 636 233 636 c 2
 186 636 l 1
 193 663 l 1
 382 663 l 1
 185 -153 l 1
 12 -153 l 1
 19 -126 l 1
EndSplineSet
EndChar

StartChar: asciicircum
Encoding: 94 94 62
Width: 422
Flags: HMW
HStem: 646 20G<181 241 241 241> 648 21G
VStem: 181 173
LayerCount: 2
Fore
SplineSet
0 301 m 1
 181 666 l 1
 241 666 l 1
 422 301 l 1
 354 301 l 1
 211 587 l 1
 68 301 l 1
 0 301 l 1
EndSplineSet
EndChar

StartChar: underscore
Encoding: 95 95 63
Width: 500
Flags: HMW
HStem: -125 50<9 492 0 500>
LayerCount: 2
Fore
SplineSet
9 -75 m 1
 500 -75 l 1
 492 -125 l 1
 0 -125 l 1
 9 -75 l 1
EndSplineSet
EndChar

StartChar: grave
Encoding: 193 96 64
Width: 333
Flags: HMW
HStem: 492 21G<280 280 280 311> 644 20G<146 160.5>
LayerCount: 2
Fore
SplineSet
280 492 m 1
 145 591 l 2
 140 595 121 612 121 629 c 0
 121 649 135 664 157 664 c 0
 164 664 182 657 200 634 c 2
 311 492 l 1
 280 492 l 1
EndSplineSet
EndChar

StartChar: a
Encoding: 97 97 65
Width: 500
Flags: HMW
HStem: -11 49<147.5 150> 419 22<249.5 322.5>
VStem: 17 84<92.5 154 82.5 180.5> 297 73<24.5 69.5> 370 14
LayerCount: 2
Fore
SplineSet
101 109 m 0
 101 56 134 38 161 38 c 0
 267 38 359 244 359 342 c 0
 359 390 337 419 308 419 c 0
 191 419 101 199 101 109 c 0
318 139 m 1
 316 141 l 1
 233 19 180 -11 120 -11 c 0
 20 -11 17 78 17 107 c 0
 17 254 170 441 303 441 c 0
 346 441 376 405 376 377 c 1
 378 377 l 1
 395 437 l 1
 465 438 l 1
 462 426 370 85 370 54 c 0
 370 47 376 41 384 41 c 0
 399 41 419 66 464 110 c 1
 476 100 l 1
 416 26 382 -11 339 -11 c 0
 297 -11 297 16 297 33 c 0
 297 56 302 78 318 139 c 1
EndSplineSet
EndChar

StartChar: b
Encoding: 98 98 66
Width: 500
Flags: HMW
HStem: -11 23<132.5 224.5 132.5 229.5> 0 23 392 49<309 346.5> 447 49 663 20G<263 263>
VStem: 23 86<42 46 46 46> 388 85<265 322.5>
LayerCount: 2
Fore
SplineSet
110 643 m 1
 110 660 l 1
 160 666 211 673 263 683 c 1
 268 678 l 1
 246 596 204 420 170 307 c 1
 172 306 l 1
 205 358 264 441 354 441 c 0
 424 441 473 393 473 320 c 0
 473 162 306 -11 153 -11 c 0
 100 -11 23 20 23 42 c 2
 23 46 l 1
 159 547 l 2
 166 571 172 593 172 609 c 0
 172 630 155 643 110 643 c 1
109 45 m 0
 109 38 109 12 156 12 c 0
 293 12 388 223 388 307 c 0
 388 338 378 392 315 392 c 0
 205 392 109 150 109 45 c 0
EndSplineSet
EndChar

StartChar: c
Encoding: 99 99 67
Width: 444
Flags: HMW
HStem: -11 36<176.5 230.5> 420 21<250 324>
VStem: 30 86<108.5 195 108.5 217.5> 338 87<346 349>
LayerCount: 2
Fore
SplineSet
350 106 m 1
 366 96 l 1
 341 64 283 -11 178 -11 c 0
 113 -11 30 14 30 147 c 0
 30 288 168 441 316 441 c 0
 400 441 425 391 425 360 c 0
 425 332 403 304 378 304 c 0
 353 304 338 318 338 341 c 0
 338 357 344 369 348 380 c 0
 351 387 353 393 353 400 c 0
 353 415 333 420 315 420 c 0
 185 420 116 243 116 147 c 0
 116 70 146 25 207 25 c 0
 267 25 314 66 350 106 c 1
EndSplineSet
EndChar

StartChar: d
Encoding: 100 100 68
Width: 500
Flags: HMW
HStem: -13 21G<314.5 350.5> -12 48<132.5 144> 489 23 564 20G
VStem: 15 87<102.5 156.5 102.5 182.5>
LayerCount: 2
Fore
SplineSet
299 114 m 1
 297 116 l 1
 225 6 169 -12 119 -12 c 0
 36 -12 15 55 15 107 c 0
 15 258 185 438 304 438 c 0
 360 438 367 408 371 386 c 1
 373 388 l 1
 411 537 l 2
 418 562 424 585 424 603 c 0
 424 628 409 643 369 643 c 1
 369 660 l 1
 420 665 471 672 522 683 c 1
 527 678 l 1
 484 504 363 78 363 62 c 0
 363 47 371 40 381 40 c 0
 401 40 421 63 463 111 c 1
 475 101 l 1
 432 34 367 -13 334 -13 c 0
 295 -13 287 12 287 33 c 0
 287 56 291 79 299 114 c 1
102 111 m 0
 102 94 102 36 163 36 c 0
 258 36 356 227 356 351 c 0
 356 374 356 415 309 415 c 0
 197 415 102 202 102 111 c 0
EndSplineSet
EndChar

StartChar: e
Encoding: 101 101 69
Width: 444
Flags: HMW
HStem: -11 45<191 218> 418 23<284 323.5>
VStem: 31 87<98.5 135 91 201.5> 346 66<364 378.5>
LayerCount: 2
Fore
SplineSet
124 176 m 1
 119 155 118 145 118 125 c 0
 118 57 170 34 212 34 c 0
 266 34 308 68 358 109 c 1
 370 97 l 1
 359 81 268 -11 168 -11 c 0
 63 -11 31 67 31 130 c 0
 31 273 189 441 330 441 c 0
 381 441 412 407 412 363 c 0
 412 284 314 197 124 176 c 1
131 198 m 1
 337 240 346 360 346 368 c 0
 346 389 336 418 311 418 c 0
 257 418 187 342 152 252 c 2
 131 198 l 1
EndSplineSet
EndChar

StartChar: f
Encoding: 102 102 70
Width: 278
Flags: HMW
HStem: -207 21<-67 -29 -67 -10.5> 386 32<30 129 37 120 206 308> 656 22<291 338.5>
VStem: 345 79<605.5 617>
LayerCount: 2
Fore
SplineSet
30 386 m 1
 37 418 l 1
 129 418 l 1
 155 503 210 678 336 678 c 0
 408 678 424 633 424 613 c 0
 424 593 406 573 383 573 c 0
 351 573 345 600 345 611 c 0
 345 623 348 629 351 633 c 0
 353 636 355 639 355 644 c 0
 355 652 345 656 332 656 c 0
 250 656 215 469 206 418 c 1
 314 418 l 1
 308 386 l 1
 199 386 l 1
 132 76 l 2
 105 -46 48 -207 -69 -207 c 0
 -103 -207 -147 -186 -147 -148 c 0
 -147 -145 -146 -105 -111 -105 c 0
 -97 -105 -71 -117 -71 -142 c 0
 -71 -152 -74 -156 -77 -160 c 0
 -79 -163 -80 -166 -80 -170 c 0
 -80 -178 -73 -186 -61 -186 c 0
 3 -186 29 -64 37 -24 c 2
 120 386 l 1
 30 386 l 1
EndSplineSet
EndChar

StartChar: g
Encoding: 103 103 71
Width: 500
Flags: HMW
HStem: -190 22 151 21<241.5 269 213.5 292> 419 22<256.5 316>
VStem: 8 65<-87 -68 -87 -66.5> 96 78<236.5 283.5 227.5 327> 325 60<-102.5 -66.5> 352 79<309.5 317 270 370.5>
LayerCount: 2
Fore
SplineSet
174 250 m 0
 174 205 191 172 236 172 c 0
 302 172 352 268 352 351 c 0
 352 390 337 419 295 419 c 0
 218 419 174 317 174 250 c 0
147 28 m 0
 87 3 73 -49 73 -87 c 0
 74 -169 171 -184 186 -184 c 0
 276 -184 325 -139 325 -89 c 0
 325 -44 289 -27 270 -18 c 0
 252 -9 154 31 147 28 c 0
125 39 m 1
 113 48 98 60 98 79 c 0
 98 110 141 139 175 162 c 1
 139 178 96 202 96 271 c 0
 96 383 212 441 294 441 c 0
 353 441 396 405 411 405 c 2
 472 405 l 1
 472 366 l 1
 422 366 l 1
 428 347 431 327 431 307 c 0
 431 233 336 151 248 151 c 0
 235 151 221 155 208 155 c 0
 194 155 172 128 172 115 c 0
 172 85 242 77 302 50 c 0
 346 30 385 -1 385 -60 c 0
 385 -145 307 -206 170 -206 c 0
 61 -206 8 -150 8 -95 c 0
 8 -38 41 -16 125 39 c 1
EndSplineSet
EndChar

StartChar: h
Encoding: 104 104 72
Width: 500
Flags: HMW
HStem: -9 21G<317 366> 0 21G<19 19 19 94> 390 51<335 349> 663 20G<268 268>
VStem: 370 78<356.5 371.5>
LayerCount: 2
Fore
SplineSet
19 0 m 1
 147 491 l 2
 155 521 172 579 172 589 c 0
 172 649 155 640 111 640 c 1
 111 656 l 1
 163 662 216 671 268 683 c 1
 273 678 l 1
 155 239 l 1
 157 237 l 1
 188 287 290 441 380 441 c 0
 402 441 448 434 448 369 c 0
 448 334 367 78 367 57 c 0
 367 45 375 38 383 38 c 0
 403 38 427 69 465 117 c 1
 478 105 l 1
 442 53 399 -9 333 -9 c 0
 301 -9 288 10 288 37 c 0
 288 63 370 350 370 363 c 0
 370 380 357 390 341 390 c 0
 291 390 206 277 187 249 c 0
 141 181 127 126 94 0 c 1
 19 0 l 1
EndSplineSet
EndChar

StartChar: i
Encoding: 105 105 73
Width: 278
Flags: HMW
HStem: -11 21G<72.5 124> 549 105<196.5 225.5>
VStem: 49 75<47.5 57 47.5 74.5> 161 103<586.5 615.5>
LayerCount: 2
Fore
SplineSet
161 601 m 0
 161 630 182 654 211 654 c 0
 240 654 264 630 264 601 c 0
 264 572 240 549 211 549 c 0
 182 549 161 572 161 601 c 0
222 114 m 1
 235 103 l 1
 196 44 152 -11 96 -11 c 0
 49 -11 49 33 49 51 c 0
 49 98 124 336 124 364 c 0
 124 385 120 400 65 400 c 1
 65 416 l 1
 97 416 186 434 225 441 c 1
 228 439 l 1
 136 103 124 63 124 51 c 0
 124 44 131 36 140 36 c 0
 152 36 181 56 222 114 c 1
EndSplineSet
EndChar

StartChar: j
Encoding: 106 106 74
Width: 278
Flags: HMW
HStem: -207 23<-40.5 -10.5 -40.5 -1.5> -207 103<-101.5 -1.5> 552 102<211 239>
VStem: -124 81<-145.5 -141> 174 102<589 617>
LayerCount: 2
Fore
SplineSet
174 603 m 0
 174 631 197 654 225 654 c 0
 253 654 276 631 276 603 c 0
 276 575 253 552 225 552 c 0
 197 552 174 575 174 603 c 0
73 400 m 1
 73 416 l 1
 108 416 204 434 243 441 c 1
 246 439 l 1
 142 28 l 2
 101 -132 43 -207 -46 -207 c 0
 -79 -207 -124 -192 -124 -143 c 0
 -124 -139 -120 -104 -83 -104 c 0
 -63 -104 -43 -119 -43 -140 c 0
 -43 -151 -47 -156 -50 -160 c 0
 -53 -164 -56 -167 -56 -173 c 0
 -56 -183 -45 -184 -36 -184 c 0
 15 -184 40 -80 59 -3 c 2
 147 360 l 1
 147 402 133 401 73 400 c 1
EndSplineSet
EndChar

StartChar: k
Encoding: 107 107 75
Width: 444
Flags: HMW
HStem: -11 21G<302.5 340> 0 21G<14 14 14 89> 636 20G<106 115.5> 663 20G<262 262>
VStem: 14 447<0 428>
LayerCount: 2
Fore
SplineSet
14 0 m 1
 138 473 l 2
 147 509 171 590 171 605 c 0
 171 631 132 640 106 640 c 1
 106 656 l 1
 125 656 210 671 262 683 c 1
 267 678 l 1
 148 225 l 1
 150 223 l 1
 205 266 333 362 333 393 c 0
 333 412 305 412 278 412 c 1
 278 428 l 1
 461 428 l 1
 461 412 l 1
 416 412 374 380 236 258 c 1
 308 87 327 41 353 41 c 0
 375 41 385 59 414 109 c 1
 429 98 l 1
 391 26 362 -11 318 -11 c 0
 287 -11 269 12 239 71 c 0
 227 94 189 182 179 212 c 1
 137 180 l 1
 89 0 l 1
 14 0 l 1
EndSplineSet
EndChar

StartChar: l
Encoding: 108 108 76
Width: 278
Flags: HMW
HStem: -17 21G 636 20G<118 131> 663 20G<274 274>
VStem: 41 77<49 57.5 49 61.5>
LayerCount: 2
Fore
SplineSet
228 123 m 1
 241 114 l 1
 190 37 151 -11 89 -11 c 0
 45 -11 41 23 41 51 c 0
 41 72 182 584 182 605 c 0
 182 631 144 640 118 640 c 1
 118 656 l 1
 144 656 222 671 274 683 c 1
 279 678 l 1
 128 99 l 2
 126 90 118 63 118 52 c 0
 118 46 118 32 133 32 c 0
 158 32 179 60 228 123 c 1
EndSplineSet
EndChar

StartChar: m
Encoding: 109 109 77
Width: 722
Flags: HMW
HStem: -9 21G<536 585> 0 21G<12 12 12 87 259 259 259 334> 389 52<330 336.5>
LayerCount: 2
Fore
SplineSet
12 0 m 1
 28 66 106 328 106 350 c 0
 106 372 95 394 46 394 c 1
 46 410 l 1
 100 420 153 430 206 441 c 1
 209 437 l 1
 153 239 l 1
 155 237 l 1
 185 286 288 441 372 441 c 0
 410 441 431 418 431 376 c 0
 431 362 408 279 394 239 c 1
 396 237 l 1
 466 353 547 441 613 441 c 0
 649 441 672 414 672 374 c 0
 672 340 591 72 591 58 c 0
 591 41 594 38 606 38 c 0
 625 38 651 70 689 117 c 1
 704 105 l 1
 663 47 613 -9 557 -9 c 0
 515 -9 515 26 515 40 c 0
 515 67 593 346 593 366 c 0
 593 381 584 389 572 389 c 0
 531 389 459 301 428 252 c 0
 380 176 363 113 334 0 c 1
 259 0 l 1
 285 97 354 343 354 362 c 0
 354 389 341 389 332 389 c 0
 287 389 211 288 184 248 c 0
 144 188 124 122 87 0 c 1
 12 0 l 1
EndSplineSet
EndChar

StartChar: n
Encoding: 110 110 78
Width: 500
Flags: HMW
HStem: -9 21G<312 362> 0 21G<14 14 14 89> 390 51<331.5 345.5>
VStem: 361 81<353.5 367>
LayerCount: 2
Fore
SplineSet
14 0 m 1
 45 113 110 337 110 358 c 0
 110 373 102 394 48 394 c 1
 48 410 l 1
 102 420 156 430 210 441 c 1
 213 439 l 1
 149 230 l 1
 151 228 l 1
 198 302 290 441 373 441 c 0
 419 441 442 417 442 375 c 0
 442 332 362 85 362 55 c 0
 362 40 376 38 378 38 c 0
 398 38 423 70 460 117 c 1
 474 104 l 1
 424 37 389 -9 335 -9 c 0
 289 -9 287 21 287 50 c 0
 287 74 361 318 361 358 c 0
 361 376 355 390 336 390 c 0
 288 390 226 304 189 248 c 0
 144 179 130 136 89 0 c 1
 14 0 l 1
EndSplineSet
EndChar

StartChar: o
Encoding: 111 111 79
Width: 500
Flags: HMW
HStem: -11 21<168 250 168 256.5> 420 21<256 336>
VStem: 27 84<93.5 164 76.5 208.5> 384 84<268.5 324 229.5 348>
LayerCount: 2
Fore
SplineSet
111 105 m 0
 111 48 143 10 193 10 c 0
 307 10 384 215 384 322 c 0
 384 374 360 420 312 420 c 0
 200 420 111 223 111 105 c 0
27 135 m 0
 27 282 173 441 319 441 c 0
 435 441 468 357 468 291 c 0
 468 168 333 -11 180 -11 c 0
 74 -11 27 52 27 135 c 0
EndSplineSet
EndChar

StartChar: p
Encoding: 112 112 80
Width: 500
Flags: HMW
HStem: -201 21G -11 21G<158.5 240> 398 43<309 345.5>
VStem: 379 90<253.5 326.5>
LayerCount: 2
Fore
SplineSet
103 6 m 1
 94 -28 78 -100 75 -120 c 0
 66 -190 88 -190 130 -190 c 1
 130 -205 l 1
 -75 -205 l 1
 -75 -189 l 1
 -22 -189 -12 -152 -4 -120 c 0
 23 -8 121 354 121 375 c 0
 121 393 102 403 56 403 c 1
 54 419 l 1
 209 441 l 2
 212 441 215 439 212 428 c 2
 185 335 l 1
 187 333 l 1
 211 368 268 441 350 441 c 0
 439 441 469 382 469 310 c 0
 469 155 309 -11 171 -11 c 0
 146 -11 126 -6 103 6 c 1
117 45 m 0
 117 19 142 8 167 8 c 0
 289 8 379 194 379 313 c 0
 379 340 378 398 313 398 c 0
 266 398 208 352 182 284 c 0
 157 220 117 84 117 45 c 0
EndSplineSet
EndChar

StartChar: q
Encoding: 113 113 81
Width: 500
Flags: HMW
HStem: -209 21G<150 391 150 150> -11 53<149.5 172.5> 419 22<273.5 335.5>
VStem: 25 86<94.5 174 94.5 182.5> 380 14<304 382>
LayerCount: 2
Fore
SplineSet
111 116 m 0
 111 73 132 42 167 42 c 0
 272 42 380 255 380 353 c 0
 380 398 351 419 320 419 c 0
 227 419 111 232 111 116 c 0
150 -193 m 1
 205 -193 236 -175 250 -130 c 2
 330 145 l 1
 328 147 l 1
 275 70 217 -11 128 -11 c 0
 51 -11 25 46 25 114 c 0
 25 251 186 441 316 441 c 0
 372 441 388 408 394 382 c 1
 396 382 l 1
 410 426 l 1
 483 426 l 1
 327 -134 l 2
 315 -176 362 -191 391 -191 c 1
 391 -209 l 1
 150 -209 l 1
 150 -193 l 1
EndSplineSet
EndChar

StartChar: r
Encoding: 114 114 82
Width: 389
Flags: HMW
HStem: 0 21G<45 45 45 121> 421 20G<228 228 332.5 375.5>
VStem: 45 367<0 409>
LayerCount: 2
Fore
SplineSet
45 0 m 1
 124 282 l 2
 131 307 139 337 139 361 c 0
 139 385 130 402 106 402 c 0
 95 402 84 399 73 397 c 1
 73 414 l 1
 88 414 180 434 228 441 c 1
 231 439 l 1
 182 240 l 1
 184 238 l 1
 192 258 l 2
 219 327 301 441 364 441 c 0
 387 441 412 426 412 392 c 0
 412 340 376 340 365 340 c 0
 343 340 336 350 331 359 c 0
 327 368 325 376 313 376 c 0
 282 376 222 265 214 250 c 0
 176 178 162 133 121 0 c 1
 45 0 l 1
EndSplineSet
EndChar

StartChar: s
Encoding: 115 115 83
Width: 389
Flags: HMW
HStem: -13 21G -11 21<147.5 183> 418 23<225 241 176 268.5> 422 20G<352 366 366 366>
VStem: 109 73<343.5 345.5> 228 76<74.5 107.5>
LayerCount: 2
Fore
SplineSet
16 -13 m 1
 36 146 l 1
 52 146 l 1
 59 102 75 10 156 10 c 0
 212 10 228 58 228 91 c 0
 228 124 198 165 168 207 c 0
 138 249 109 292 109 330 c 0
 109 361 123 441 229 441 c 0
 253 441 267 436 280 431 c 0
 291 427 300 424 314 424 c 0
 331 424 347 434 352 442 c 1
 366 442 l 1
 346 303 l 1
 330 303 l 1
 330 352 301 418 236 418 c 0
 214 418 182 409 182 360 c 0
 182 327 216 287 248 244 c 0
 277 205 304 163 304 123 c 0
 304 14 211 -11 155 -11 c 0
 140 -11 126 -7 111 -2 c 0
 96 3 81 8 66 8 c 0
 52 8 38 -2 32 -13 c 1
 16 -13 l 1
EndSplineSet
EndChar

StartChar: t
Encoding: 116 116 84
Width: 278
Flags: HMW
HStem: -11 21G<75 111> 385 32<205 296 214 291> 526 20G<232.5 240.5>
VStem: 37 259
LayerCount: 2
Fore
SplineSet
214 117 m 1
 227 110 l 1
 176 33 137 -11 85 -11 c 0
 65 -11 37 -1 37 29 c 0
 37 44 56 105 60 121 c 2
 130 385 l 1
 55 385 l 1
 55 415 77 409 109 426 c 0
 141 443 192 499 220 534 c 0
 224 539 228 546 237 546 c 0
 244 546 246 539 244 531 c 2
 214 417 l 1
 296 417 l 1
 291 385 l 1
 205 385 l 1
 145 161 118 65 118 53 c 0
 118 41 129 38 134 38 c 0
 154 38 189 85 214 117 c 1
EndSplineSet
EndChar

StartChar: u
Encoding: 117 117 85
Width: 500
Flags: HMW
HStem: -11 21G<79 142> -9 51 421 20G<208 208>
VStem: 42 77<55.5 70> 289 78<51.5 52>
LayerCount: 2
Fore
SplineSet
332 227 m 1
 329 227 l 1
 261 114 187 -11 97 -11 c 0
 61 -11 42 4 42 48 c 0
 42 92 115 334 115 361 c 0
 115 390 99 400 58 400 c 1
 58 414 l 1
 74 414 158 429 208 441 c 1
 211 439 l 1
 150 197 119 77 119 65 c 0
 119 46 134 42 141 42 c 0
 184 42 247 136 281 188 c 0
 330 262 352 325 391 432 c 1
 465 432 l 1
 386 133 l 2
 381 113 367 69 367 54 c 0
 367 49 368 38 379 38 c 0
 398 38 426 73 461 117 c 1
 475 108 l 1
 412 17 386 -9 336 -9 c 0
 291 -9 289 28 289 43 c 0
 289 61 309 145 332 227 c 1
EndSplineSet
EndChar

StartChar: v
Encoding: 118 118 86
Width: 444
Flags: HMW
HStem: -18 21G<140.5 152.5> 421 20G<146 153 359 385.5>
VStem: 136 71<3.5 70> 375 51<332 341>
LayerCount: 2
Fore
SplineSet
207 70 m 1
 238 102 l 2
 295 161 375 280 375 330 c 0
 375 352 362 358 350 369 c 0
 341 377 333 388 333 412 c 0
 333 427 349 441 369 441 c 0
 402 441 426 415 426 378 c 0
 426 286 277 108 244 73 c 0
 178 2 160 -18 145 -18 c 0
 136 -18 136 -5 136 12 c 0
 136 41 130 223 114 310 c 0
 93 422 70 403 21 403 c 1
 21 416 l 1
 35 416 144 441 148 441 c 0
 158 441 159 440 164 421 c 0
 198 290 206 132 207 70 c 1
EndSplineSet
EndChar

StartChar: w
Encoding: 119 119 87
Width: 667
Flags: HMW
HStem: -18 21G<127.5 141.5 377.5 388.5> 420 20G<392 398.5> 421 20G<138.5 146 580.5 613.5>
VStem: 121 71<29 129> 356 63 600 48<306 399.5>
LayerCount: 2
Fore
SplineSet
190 129 m 1
 192 129 l 1
 383 431 l 2
 386 436 389 440 395 440 c 0
 402 440 402 435 403 433 c 2
 435 74 l 1
 523 183 600 280 600 332 c 0
 600 350 590 360 579 370 c 0
 568 380 557 389 557 406 c 0
 557 423 566 441 595 441 c 0
 632 441 648 414 648 385 c 0
 648 298 493 103 447 49 c 0
 407 1 394 -18 383 -18 c 0
 372 -18 372 -4 371 12 c 2
 342 328 l 1
 340 328 l 1
 322 296 298 254 253 175 c 0
 156 3 149 -18 134 -18 c 0
 121 -18 122 15 121 29 c 0
 121 184 104 260 99 315 c 0
 90 406 73 403 16 403 c 1
 16 417 l 1
 36 417 134 441 143 441 c 0
 149 441 155 429 165 375 c 0
 183 274 190 147 190 129 c 1
EndSplineSet
EndChar

StartChar: x
Encoding: 120 120 88
Width: 444
Flags: HMW
HStem: -11 55<278.5 344.5> 421 20G<173 200 380 415.5>
VStem: -27 474<20 417>
LayerCount: 2
Fore
SplineSet
206 176 m 1
 158 110 116 56 82 19 c 0
 65 0 53 -11 22 -11 c 0
 -11 -11 -27 8 -27 32 c 0
 -27 48 -15 66 7 66 c 0
 18 66 28 62 37 57 c 0
 47 52 56 47 65 47 c 0
 82 47 108 81 198 212 c 1
 198 221 172 344 171 349 c 0
 162 380 150 404 123 404 c 0
 114 404 100 401 68 393 c 1
 64 408 l 1
 91 417 157 441 189 441 c 0
 211 441 226 441 244 353 c 2
 255 298 l 1
 307 380 354 441 406 441 c 0
 425 441 447 429 447 405 c 0
 447 387 437 368 413 368 c 0
 401 368 393 373 385 377 c 0
 378 381 371 385 360 385 c 0
 331 385 263 264 263 264 c 1
 263 246 297 110 303 85 c 0
 307 69 314 44 334 44 c 0
 355 44 375 81 402 111 c 1
 416 103 l 1
 345 -11 316 -11 293 -11 c 0
 264 -11 249 3 236 56 c 2
 206 176 l 1
EndSplineSet
EndChar

StartChar: y
Encoding: 121 121 89
Width: 444
Flags: HMW
HStem: -206 21G<23 86.5> 421 20G<152.5 165.5 356 387.5>
VStem: 393 40
LayerCount: 2
Fore
SplineSet
264 72 m 1
 307 142 386 277 386 330 c 0
 386 353 370 360 355 369 c 0
 343 377 332 385 332 406 c 0
 332 420 343 441 369 441 c 0
 406 441 426 415 426 379 c 0
 426 260 146 -206 27 -206 c 0
 19 -206 -24 -203 -24 -161 c 0
 -24 -140 -7 -123 14 -123 c 0
 31 -123 43 -132 53 -140 c 0
 61 -146 67 -151 75 -151 c 0
 91 -151 104 -142 138 -102 c 0
 163 -73 205 -24 205 3 c 0
 205 41 170 196 154 250 c 0
 126 341 106 404 49 404 c 0
 34 404 27 403 15 400 c 1
 15 417 l 1
 20 417 146 441 159 441 c 0
 172 441 218 316 231 248 c 2
 264 72 l 1
EndSplineSet
EndChar

StartChar: z
Encoding: 122 122 90
Width: 389
Flags: HMW
HStem: -81 21G<275 286 275 294.5> 368 60<131 172 172 308>
LayerCount: 2
Fore
SplineSet
-2 -4 m 1
 308 368 l 1
 172 368 l 2
 90 368 81 312 81 309 c 1
 65 313 l 1
 96 428 l 1
 380 428 l 1
 380 417 l 1
 90 73 l 1
 122 73 181 40 225 -27 c 0
 247 -60 270 -60 280 -60 c 0
 292 -60 308 -57 308 -44 c 0
 308 -38 304 -32 300 -24 c 0
 297 -18 294 -10 294 0 c 0
 294 17 306 31 329 31 c 0
 338 31 363 26 363 -6 c 0
 363 -44 320 -81 269 -81 c 0
 235 -81 201 -63 168 -44 c 0
 129 -21 90 5 52 5 c 0
 35 5 20 -2 7 -13 c 1
 -2 -4 l 1
EndSplineSet
EndChar

StartChar: braceleft
Encoding: 123 123 91
Width: 400
Flags: HMW
HStem: -177 21G<129 176> 667 20G<361 407>
VStem: 51 75<-119 -76 -119 -70.5> 117 75<169.5 207>
LayerCount: 2
Fore
SplineSet
179 -166 m 1
 176 -177 l 1
 82 -177 51 -150 51 -95 c 0
 51 -46 117 135 117 192 c 0
 117 222 108 241 65 255 c 1
 135 273 155 318 173 382 c 2
 222 552 l 2
 256 672 315 687 407 687 c 1
 404 676 l 1
 372 676 319 643 295 552 c 2
 250 384 l 2
 231 312 208 273 140 256 c 1
 139 254 l 1
 158 246 192 230 192 190 c 0
 192 149 126 -56 126 -96 c 0
 126 -142 147 -158 179 -166 c 1
EndSplineSet
EndChar

StartChar: bar
Encoding: 124 124 92
Width: 275
Flags: HMW
HStem: -168 21G<15 15 15 58> -18 21G 646 20G<233 274 274 274>
VStem: 105 66
LayerCount: 2
Fore
SplineSet
15 -168 m 1
 233 666 l 1
 274 666 l 1
 58 -168 l 1
 15 -168 l 1
EndSplineSet
EndChar

StartChar: braceright
Encoding: 125 125 93
Width: 400
Flags: HMW
HStem: -177 21G<-7 39> 667 20G<224 271>
VStem: 274 75<586 629> 276 75
LayerCount: 2
Fore
SplineSet
-4 -166 m 1
 28 -166 81 -132 105 -42 c 2
 150 126 l 2
 169 198 192 237 260 254 c 1
 261 256 l 1
 242 264 208 280 208 320 c 0
 208 361 274 566 274 606 c 0
 274 652 243 676 221 676 c 1
 224 687 l 1
 318 687 349 660 349 605 c 0
 349 556 283 375 283 318 c 0
 283 288 292 269 335 255 c 1
 265 237 244 192 227 128 c 2
 180 -42 l 2
 147 -162 85 -177 -7 -177 c 1
 -4 -166 l 1
EndSplineSet
EndChar

StartChar: asciitilde
Encoding: 126 126 94
Width: 541
Flags: HMW
HStem: 183 21G<76 76> 187 64<361 398 361 408> 255 64<138 183> 303 20G<466 466>
VStem: 40 462<233 273>
LayerCount: 2
Fore
SplineSet
76 183 m 1
 40 233 l 1
 62 275 98 319 165 319 c 0
 209 319 246 299 282 281 c 0
 313 265 344 251 378 251 c 0
 418 251 443 288 466 323 c 1
 502 273 l 1
 472 231 439 187 377 187 c 0
 327 187 297 207 264 225 c 0
 236 241 206 255 160 255 c 0
 116 255 92 218 76 183 c 1
EndSplineSet
EndChar

StartChar: exclamdown
Encoding: 161 161 95
Width: 389
Flags: HMW
HStem: -205 21G<87 117> 367 106<254.5 283.5>
VStem: 216 106<405.5 434.5>
LayerCount: 2
Fore
SplineSet
225 286 m 1
 242 282 l 1
 208 121 185 -11 159 -135 c 0
 148 -188 138 -205 96 -205 c 0
 78 -205 59 -184 59 -162 c 0
 59 -147 65 -133 72 -114 c 0
 116 10 167 128 225 286 c 1
216 420 m 0
 216 449 240 473 269 473 c 0
 298 473 322 449 322 420 c 0
 322 391 298 367 269 367 c 0
 240 367 216 391 216 420 c 0
EndSplineSet
EndChar

StartChar: cent
Encoding: 162 162 96
Width: 500
Flags: HMW
HStem: -10 35<254 280> -7 21G<167 185> 417 23<292 334>
VStem: 77 86<121.5 198.5 121.5 214.5>
LayerCount: 2
Fore
SplineSet
202 41 m 1
 334 417 l 1
 250 417 163 250 163 147 c 0
 163 96 176 60 202 41 c 1
137 -143 m 1
 185 -7 l 1
 149 -7 77 33 77 147 c 0
 77 282 216 440 342 440 c 1
 384 560 l 1
 414 560 l 1
 372 440 l 1
 449 440 472 390 472 360 c 0
 472 332 450 304 425 304 c 0
 400 304 385 318 385 341 c 0
 385 353 389 363 392 372 c 0
 396 382 400 391 400 400 c 0
 400 414 382 420 365 420 c 1
 228 29 l 1
 238 26 249 25 259 25 c 0
 311 25 363 67 397 106 c 1
 413 96 l 1
 387 70 345 -10 215 -10 c 1
 168 -143 l 1
 137 -143 l 1
EndSplineSet
EndChar

StartChar: sterling
Encoding: 163 163 97
Width: 500
Flags: HMW
HStem: -16 22 -6 72<310.5 354.5 310.5 369> 96 28 329 42<84 188 75 194 283 399> 641 29<382.5 414.5>
LayerCount: 2
Fore
SplineSet
146 73 m 1
 125 88 111 98 85 98 c 0
 35 98 32 58 32 53 c 0
 32 37 44 16 78 16 c 0
 102 16 138 42 146 73 c 1
160 115 m 1
 188 329 l 1
 75 329 l 1
 84 371 l 1
 194 371 l 1
 203 444 256 670 426 670 c 0
 485 670 517 633 517 595 c 0
 517 561 497 553 478 553 c 0
 453 553 445 567 442 597 c 0
 438 628 426 641 403 641 c 0
 362 641 346 608 336 586 c 0
 312 531 301 469 283 371 c 1
 406 371 l 1
 399 329 l 1
 273 329 l 1
 248 226 242 201 197 104 c 1
 230 84 284 66 337 66 c 0
 372 66 409 73 446 100 c 1
 457 91 l 1
 455 84 421 -6 317 -6 c 0
 286 -6 246 -4 171 57 c 1
 149 30 121 -6 77 -6 c 0
 38 -6 10 14 10 64 c 0
 10 82 33 126 99 126 c 0
 120 126 120 126 160 115 c 1
EndSplineSet
EndChar

StartChar: currency
Encoding: 168 164 98
Width: 500
Flags: HMW
HStem: 132 57<231 274.5> 461 57<228.5 271.5 228.5 288.5>
VStem: 57 61<302.5 346> 382 61<303.5 346.5 303.5 362>
LayerCount: 2
Fore
SplineSet
50 80 m 1
 5 125 l 1
 93 212 l 1
 69 238 57 281 57 324 c 0
 57 368 69 412 93 438 c 1
 5 527 l 1
 50 570 l 1
 137 483 l 1
 163 506 207 518 250 518 c 0
 293 518 337 507 363 483 c 1
 452 570 l 1
 495 527 l 1
 408 438 l 1
 432 411 443 368 443 325 c 0
 443 282 431 239 408 212 c 1
 495 125 l 1
 452 80 l 1
 363 168 l 1
 338 144 296 132 253 132 c 0
 209 132 163 144 137 168 c 1
 50 80 l 1
118 326 m 0
 118 252 175 189 251 189 c 0
 326 189 382 252 382 326 c 0
 382 398 326 461 251 461 c 0
 175 461 118 398 118 326 c 0
EndSplineSet
EndChar

StartChar: yen
Encoding: 165 165 99
Width: 500
Flags: HMW
HStem: 0 21G<52 52 52 337> 182 40<39 192 27 203 288 456> 312 40<72 212 72 223 60 212 349 488> 633 20G<51 290 290 290 391 580 580 580>
LayerCount: 2
Fore
SplineSet
52 0 m 1
 56 16 l 1
 89 16 148 33 168 100 c 2
 192 182 l 1
 27 182 l 1
 39 222 l 1
 203 222 l 1
 226 302 l 1
 223 312 l 1
 60 312 l 1
 72 352 l 1
 212 352 l 1
 139 571 l 2
 119 639 75 637 51 637 c 1
 51 653 l 1
 290 653 l 1
 290 637 l 1
 238 637 218 629 218 598 c 0
 218 590 219 581 221 571 c 0
 226 545 268 439 293 347 c 1
 340 403 426 537 446 576 c 0
 450 584 452 592 452 599 c 0
 452 622 420 637 391 637 c 1
 391 653 l 1
 580 653 l 1
 580 637 l 1
 570 637 539 616 507 576 c 2
 349 352 l 1
 500 352 l 1
 488 312 l 1
 318 312 l 1
 312 304 l 1
 288 222 l 1
 468 222 l 1
 456 182 l 1
 276 182 l 1
 262 138 258 127 251 99 c 0
 249 93 248 87 248 81 c 0
 248 37 281 16 337 16 c 1
 337 0 l 1
 52 0 l 1
EndSplineSet
EndChar

StartChar: brokenbar
Encoding: 256 166 100
Width: 275
Flags: HMW
HStem: -18 21G<45 45 45 87> 646 20G<246 284 284 284>
VStem: 105 66
LayerCount: 2
Fore
SplineSet
45 -18 m 1
 116 237 l 1
 161 237 l 1
 87 -18 l 1
 45 -18 l 1
162 392 m 1
 246 666 l 1
 284 666 l 1
 202 392 l 1
 162 392 l 1
EndSplineSet
EndChar

StartChar: section
Encoding: 167 167 101
Width: 500
Flags: HMW
HStem: -149 21 100 21<310.5 322 282.5 355> 388 21<197 198.5 169 227> 502 164<294 430.5> 651 21
VStem: 53 103<-80.5 -15> 90 57<287 321> 184 61<547 582> 287 58<-69 -38> 377 58<190 204>
LayerCount: 2
Fore
SplineSet
147 322 m 0
 147 252 254 121 311 121 c 0
 333 121 377 140 377 191 c 0
 377 217 372 246 320 312 c 0
 269 377 242 388 212 388 c 0
 182 388 147 364 147 322 c 0
282 104 m 1
 324 50 345 24 345 -27 c 0
 345 -111 266 -162 192 -162 c 0
 100 -162 53 -104 53 -57 c 0
 53 -46 53 12 110 12 c 0
 132 12 156 2 156 -32 c 0
 156 -57 145 -69 134 -79 c 0
 124 -88 114 -95 114 -105 c 0
 114 -122 146 -141 182 -141 c 0
 250 -141 287 -101 287 -52 c 0
 287 -24 280 -3 237 46 c 2
 161 133 l 2
 115 186 90 239 90 282 c 0
 90 360 142 409 196 409 c 0
 201 409 228 408 249 398 c 1
 251 401 l 1
 208 452 184 495 184 540 c 0
 184 624 257 666 331 666 c 0
 414 666 461 620 461 567 c 0
 461 546 452 502 409 502 c 0
 376 502 363 528 363 546 c 0
 363 562 369 573 377 583 c 0
 386 595 397 604 397 614 c 0
 397 630 373 645 340 645 c 0
 292 645 245 624 245 561 c 0
 245 533 256 509 271 490 c 2
 394 340 l 2
 408 323 435 283 435 225 c 0
 435 155 389 100 321 100 c 0
 300 100 295 102 284 107 c 1
 282 104 l 1
EndSplineSet
EndChar

StartChar: dieresis
Encoding: 200 168 102
Width: 333
Flags: HMW
HStem: 508 98<142.5 169.5 342.5 369.5>
VStem: 107 98<543.5 570.5> 307 98<543.5 570.5>
LayerCount: 2
Fore
SplineSet
307 557 m 0
 307 584 329 606 356 606 c 0
 383 606 405 584 405 557 c 0
 405 530 383 508 356 508 c 0
 329 508 307 530 307 557 c 0
107 557 m 0
 107 584 129 606 156 606 c 0
 183 606 205 584 205 557 c 0
 205 530 183 508 156 508 c 0
 129 508 107 530 107 557 c 0
EndSplineSet
EndChar

StartChar: copyright
Encoding: 257 169 103
Width: 760
Flags: HMW
HStem: -18 42<302 460.5 302 477> 136 20<358.5 423> 503 20<357.5 432 332 442.5> 624 42<301.5 461>
VStem: 41 55<243.5 402.5 243.5 417.5> 191 77 513 16<415 484> 664 55<243.5 403>
LayerCount: 2
Fore
SplineSet
531 250 m 1
 547 250 l 1
 530 172 l 2
 529 160 520 157 504 153 c 0
 485 146 446 136 400 136 c 0
 286 136 191 192 191 332 c 0
 191 414 257 523 407 523 c 0
 457 523 482 513 508 505 c 0
 524 500 529 492 529 484 c 2
 529 415 l 1
 513 415 l 1
 508 457 481 503 404 503 c 0
 311 503 269 432 268 336 c 0
 267 232 308 156 409 156 c 0
 475 156 512 205 531 250 c 1
96 323 m 0
 96 164 222 24 382 24 c 0
 539 24 664 164 664 323 c 0
 664 483 540 624 382 624 c 0
 221 624 96 482 96 323 c 0
41 323 m 0
 41 512 190 666 382 666 c 0
 572 666 719 512 719 323 c 0
 719 134 572 -18 382 -18 c 0
 190 -18 41 134 41 323 c 0
EndSplineSet
EndChar

StartChar: ordfeminine
Encoding: 227 170 104
Width: 276
Flags: HMW
HStem: 406 34<139 141.5> 656 20G<185 247>
VStem: 42 73<468 510 467.5 521> 261 36
LayerCount: 2
Fore
SplineSet
115 485 m 0
 115 450 135 440 143 440 c 0
 208 440 260 560 265 609 c 0
 269 648 264 658 251 658 c 0
 180 658 115 535 115 485 c 0
243 486 m 1
 241 487 l 1
 197 424 164 406 119 406 c 0
 49 406 42 459 42 477 c 0
 42 565 142 676 228 676 c 0
 266 676 283 651 285 635 c 1
 287 635 l 1
 299 674 l 1
 352 675 l 1
 350 668 303 502 298 472 c 0
 295 458 292 443 297 443 c 0
 304 443 317 454 343 482 c 1
 350 472 l 1
 311 428 289 406 261 406 c 0
 234 406 229 422 229 432 c 0
 229 446 232 459 243 486 c 1
EndSplineSet
EndChar

StartChar: guillemotleft
Encoding: 171 171 105
Width: 500
Flags: HMW
HStem: 37 21G<194.5 205 356.5 367> 383 20G<270.5 278 432.5 440>
LayerCount: 2
Fore
SplineSet
215 216 m 1
 215 225 l 1
 244 248 296 286 327 313 c 0
 359 341 428 403 437 403 c 0
 443 403 445 400 445 395 c 0
 445 381 432 358 359 280 c 0
 342 262 322 241 299 217 c 1
 308 200 317 181 326 161 c 0
 350 108 371 53 371 45 c 0
 371 43 371 37 363 37 c 0
 350 37 297 115 282 132 c 0
 266 150 222 204 215 216 c 1
53 216 m 1
 53 225 l 1
 82 248 134 286 165 313 c 0
 197 341 266 403 275 403 c 0
 281 403 283 400 283 395 c 0
 283 381 269 358 194 277 c 0
 178 260 159 240 137 217 c 1
 147 198 158 174 168 151 c 0
 190 101 209 53 209 45 c 0
 209 43 209 37 201 37 c 0
 188 37 135 115 120 132 c 0
 104 150 60 204 53 216 c 1
EndSplineSet
EndChar

StartChar: logicalnot
Encoding: 258 172 106
Width: 675
Flags: HMW
HStem: 108 21G<548 590 548 548> 348 38<86 590 86 548>
VStem: 510 68 548 42<108 348 348 348>
LayerCount: 2
Fore
SplineSet
86 348 m 1
 86 386 l 1
 590 386 l 1
 590 108 l 1
 548 108 l 1
 548 348 l 1
 86 348 l 1
EndSplineSet
EndChar

StartChar: registered
Encoding: 259 174 107
Width: 760
Flags: HMW
HStem: -18 42<302 460.5 302 477> 146 15<221 221 221 381> 146 161<221 380 333 380 333 381 333 500 333 563> 146 179<221 375 333 375 375 381 333 500 333 563> 155 170 492 174<333 374 333 333> 608 42 624 42<301.5 461>
VStem: 41 55<245.5 404.5 245.5 419.5> 52 55 269 64<209 307 325 448 448 470> 437 67 443 67<395.5 444.5> 664 55<246.5 406>
LayerCount: 2
Fore
SplineSet
221 146 m 1
 221 161 l 1
 270 166 269 166 269 209 c 2
 269 448 l 2
 269 492 270 491 221 496 c 1
 221 511 l 1
 396 511 l 2
 455 511 510 483 510 421 c 0
 510 370 476 332 431 317 c 1
 488 239 l 2
 514 203 544 169 563 155 c 1
 563 146 l 1
 500 146 l 2
 468 146 443 214 380 307 c 1
 333 307 l 1
 333 209 l 2
 333 166 331 166 381 161 c 1
 381 146 l 1
 221 146 l 1
96 325 m 0
 96 166 222 24 382 24 c 0
 539 24 664 167 664 326 c 0
 664 486 540 624 382 624 c 0
 221 624 96 484 96 325 c 0
41 325 m 0
 41 514 190 666 382 666 c 0
 572 666 719 515 719 326 c 0
 719 137 572 -18 382 -18 c 0
 190 -18 41 136 41 325 c 0
333 325 m 1
 375 325 l 2
 424 325 443 363 443 416 c 0
 443 473 412 492 374 492 c 2
 333 492 l 1
 333 325 l 1
EndSplineSet
EndChar

StartChar: macron
Encoding: 197 175 108
Width: 333
Flags: HMW
HStem: 532 51<99 411 112 398>
VStem: 99 312<532 583>
LayerCount: 2
Fore
SplineSet
99 532 m 1
 112 583 l 1
 411 583 l 1
 398 532 l 1
 99 532 l 1
EndSplineSet
EndChar

StartChar: degree
Encoding: 260 176 109
Width: 400
Flags: HMW
HStem: 390 34<215 273 215 284> 642 34<215 273>
VStem: 101 39<506 564 506 575> 348 39<508 566>
LayerCount: 2
Fore
SplineSet
101 535 m 0
 101 615 164 676 244 676 c 0
 324 676 387 617 387 537 c 0
 387 457 324 390 244 390 c 0
 164 390 101 455 101 535 c 0
140 535 m 0
 140 477 186 424 244 424 c 0
 302 424 348 479 348 537 c 0
 348 595 302 642 244 642 c 0
 186 642 140 593 140 535 c 0
EndSplineSet
EndChar

StartChar: plusminus
Encoding: 261 177 110
Width: 675
Flags: HMW
HStem: 0 67 280 68 293 45<86 317 86 317 86 360 360 590> 486 20G<317 360 360 360>
VStem: 305 68 317 43<122 293 122 293 338 506>
LayerCount: 2
Fore
SplineSet
86 293 m 1
 86 338 l 1
 317 338 l 1
 317 506 l 1
 360 506 l 1
 360 338 l 1
 590 338 l 1
 590 293 l 1
 360 293 l 1
 360 122 l 1
 317 122 l 1
 317 293 l 1
 86 293 l 1
86 0 m 1
 86 42 l 1
 590 42 l 1
 590 0 l 1
 86 0 l 1
EndSplineSet
EndChar

StartChar: twosuperior
Encoding: 262 178 111
Width: 300
Flags: HMW
HStem: 271 53<113 211 211 232.5 113 264> 625 51<154 250.5>
LayerCount: 2
Fore
SplineSet
33 271 m 1
 33 289 l 1
 166 419 l 2
 258 508 259 544 259 559 c 0
 259 589 230 625 183 625 c 0
 125 625 100 583 91 572 c 1
 78 580 l 1
 113 674 198 676 216 676 c 0
 285 676 324 621 324 580 c 0
 324 540 305 516 225 439 c 2
 111 329 l 1
 113 324 l 1
 211 324 l 2
 254 324 274 337 286 358 c 1
 297 350 l 1
 264 271 l 1
 33 271 l 1
EndSplineSet
EndChar

StartChar: threesuperior
Encoding: 263 179 112
Width: 300
Flags: HMW
HStem: 268 39 268 77<61.5 180> 489 9<125 153> 489 187<125 265> 644 32<222.5 232>
VStem: 238 63<386.5 429 386.5 513> 272 67<580 611>
LayerCount: 2
Fore
SplineSet
125 489 m 1
 125 498 l 1
 182 507 272 533 272 591 c 0
 272 631 241 644 223 644 c 0
 182 644 159 617 149 608 c 1
 139 615 l 1
 155 651 204 676 241 676 c 0
 289 676 339 652 339 603 c 0
 339 557 306 536 238 513 c 1
 242 511 l 2
 258 503 301 486 301 420 c 0
 301 353 242 268 118 268 c 0
 79 268 43 276 43 307 c 0
 43 320 46 345 77 345 c 0
 104 345 115 332 125 319 c 0
 133 309 140 299 155 299 c 0
 177 299 238 319 238 387 c 0
 238 471 181 489 125 489 c 1
EndSplineSet
EndChar

StartChar: acute
Encoding: 194 180 113
Width: 333
Flags: HMW
HStem: 494 21G<180 180 180 215> 644 20G
LayerCount: 2
Fore
SplineSet
180 494 m 1
 330 644 l 2
 336 650 357 664 368 664 c 0
 389 664 403 647 403 629 c 0
 403 614 385 597 374 590 c 2
 215 494 l 1
 180 494 l 1
EndSplineSet
EndChar

StartChar: mu
Encoding: 264 181 114
Width: 500
Flags: HMW
HStem: -209 21G<-10 36> -10 55<187 204.5> 408 20G<127 215 215 215 409 497 497 497>
VStem: -30 105<-175.5 -44.5> 336 83<87 92>
LayerCount: 2
Fore
SplineSet
78 60 m 1
 75 60 l 1
 71 17 75 -24 75 -65 c 0
 75 -101 68 -209 4 -209 c 0
 -24 -209 -30 -188 -30 -163 c 0
 -30 -114 -6 -77 8 -46 c 0
 23 -13 35 22 42 54 c 2
 127 428 l 1
 215 428 l 1
 148 144 l 2
 137 90 157 45 217 45 c 0
 268 45 324 100 341 125 c 1
 409 428 l 1
 497 428 l 1
 419 92 l 2
 415 71 402 30 438 30 c 0
 453 30 469 35 495 56 c 1
 492 47 l 1
 448 0 418 -10 382 -10 c 0
 346 -10 328 12 328 47 c 0
 328 57 334 77 336 87 c 1
 334 87 l 1
 295 36 230 -10 179 -10 c 0
 148 -10 96 0 78 60 c 1
EndSplineSet
EndChar

StartChar: paragraph
Encoding: 182 182 115
Width: 523
Flags: HMW
HStem: -216 21G<131 131 131 167 258 258 258 293> 635 27<411 502 411 411 537 602 537 537>
LayerCount: 2
Fore
SplineSet
131 -216 m 1
 277 294 l 1
 185 294 87 311 87 423 c 0
 87 486 134 662 380 662 c 2
 610 662 l 1
 602 635 l 1
 537 635 l 1
 293 -216 l 1
 258 -216 l 1
 502 635 l 1
 411 635 l 1
 167 -216 l 1
 131 -216 l 1
EndSplineSet
EndChar

StartChar: periodcentered
Encoding: 180 183 116
Width: 250
Flags: HMW
HStem: 199 111<109.5 140.5>
VStem: 70 111<238.5 269.5>
LayerCount: 2
Fore
SplineSet
70 254 m 0
 70 285 94 310 125 310 c 0
 156 310 181 285 181 254 c 0
 181 223 156 199 125 199 c 0
 94 199 70 223 70 254 c 0
EndSplineSet
EndChar

StartChar: cedilla
Encoding: 203 184 117
Width: 333
Flags: HMW
HStem: -217 36<48 58.5 31.5 95.5> -20 20G<81 119 119 119>
VStem: 108 74<-152 -126.5>
LayerCount: 2
Fore
SplineSet
81 0 m 1
 119 0 l 1
 75 -66 l 1
 85 -63 96 -63 107 -63 c 0
 146 -63 182 -88 182 -130 c 0
 182 -194 125 -217 66 -217 c 0
 30 -217 -6 -209 -30 -196 c 1
 -13 -167 l 1
 2 -177 22 -181 41 -181 c 0
 76 -181 108 -166 108 -138 c 0
 108 -115 89 -105 68 -105 c 0
 54 -105 38 -108 27 -114 c 1
 18 -106 l 1
 81 0 l 1
EndSplineSet
EndChar

StartChar: onesuperior
Encoding: 265 185 118
Width: 300
Flags: HMW
HStem: 271 16<43 43 206.5 224> 380 21G 656 20G<274 280>
VStem: 43 235
LayerCount: 2
Fore
SplineSet
43 271 m 1
 43 287 l 1
 103 303 111 310 135 390 c 2
 198 597 l 2
 201 604 202 614 202 622 c 0
 202 631 196 636 184 636 c 0
 176 636 164 636 148 635 c 1
 148 654 l 1
 177 657 270 676 278 676 c 0
 282 676 284 674 284 671 c 0
 284 667 283 662 280 655 c 2
 198 391 l 2
 187 356 176 331 176 314 c 0
 176 298 189 287 224 287 c 1
 224 271 l 1
 43 271 l 1
EndSplineSet
EndChar

StartChar: ordmasculine
Encoding: 235 186 119
Width: 310
Flags: HMW
HStem: 293 24 406 24<166 214 166 223> 631 22 654 22<221.5 268.5>
VStem: 67 73<468.5 513 468.5 538> 289 73<574.5 606 548.5 613.5>
LayerCount: 2
Fore
SplineSet
140 484 m 0
 140 542 188 654 255 654 c 0
 282 654 289 627 289 600 c 0
 289 549 248 430 180 430 c 0
 152 430 140 453 140 484 c 0
67 494 m 0
 67 443 99 406 171 406 c 0
 275 406 362 511 362 586 c 0
 362 626 337 676 260 676 c 0
 160 676 67 582 67 494 c 0
EndSplineSet
EndChar

StartChar: guillemotright
Encoding: 187 187 120
Width: 500
Flags: HMW
HStem: 37 21G<60 67.5 222 229.5> 383 20G<133 143.5 295 305.5>
VStem: 55 392<42.5 224>
LayerCount: 2
Fore
SplineSet
201 223 m 1
 191 243 179 266 169 290 c 0
 147 339 129 388 129 395 c 0
 129 397 129 403 137 403 c 0
 150 403 203 325 218 308 c 0
 234 290 278 236 285 224 c 1
 285 215 l 1
 256 192 204 154 173 127 c 0
 141 99 72 37 63 37 c 0
 57 37 55 40 55 45 c 0
 55 59 69 82 144 163 c 0
 160 180 179 200 201 223 c 1
363 223 m 1
 353 243 341 266 331 290 c 0
 309 339 291 388 291 395 c 0
 291 397 291 403 299 403 c 0
 312 403 365 325 380 308 c 0
 396 290 440 236 447 224 c 1
 447 215 l 1
 418 192 366 154 335 127 c 0
 303 99 234 37 225 37 c 0
 219 37 217 40 217 45 c 0
 217 59 231 82 306 163 c 0
 322 180 341 200 363 223 c 1
EndSplineSet
EndChar

StartChar: onequarter
Encoding: 266 188 121
Width: 750
Flags: HMW
HStem: -10 21G<143 143 143 194> 0 21G<552 615 552 552> 105 42<416 429 429 429 464 584> 271 16<33 33 201 214> 656 20G<263.5 270.5 598 649 649 649>
VStem: 33 703<271 406 287 406>
LayerCount: 2
Fore
SplineSet
33 271 m 1
 33 287 l 1
 67 291 93 303 99 322 c 2
 188 597 l 2
 192 611 203 636 175 636 c 0
 167 636 155 636 138 635 c 1
 138 654 l 1
 168 658 259 676 268 676 c 0
 273 676 274 673 274 670 c 0
 274 666 272 662 270 655 c 0
 165 319 165 317 165 315 c 0
 165 297 188 287 214 287 c 1
 214 271 l 1
 33 271 l 1
143 -10 m 1
 598 676 l 1
 649 676 l 1
 194 -10 l 1
 143 -10 l 1
416 105 m 1
 429 147 l 1
 700 406 l 1
 736 406 l 1
 657 147 l 1
 712 147 l 1
 703 104 l 1
 645 104 l 1
 615 0 l 1
 552 0 l 1
 584 105 l 1
 416 105 l 1
464 147 m 1
 593 147 l 1
 651 327 l 1
 650 326 l 1
 648 328 l 1
 464 147 l 1
EndSplineSet
EndChar

StartChar: onehalf
Encoding: 267 189 122
Width: 750
Flags: HMW
HStem: -10 21G<129 129 129 180> 0 53<538 646 646 667.5 538 689> 354 52<579 675.5> 656 20G<263.5 271.5 584 635 635 635>
VStem: 34 239 129 51<-10 -10> 684 65<289 303>
LayerCount: 2
Fore
SplineSet
34 271 m 1
 34 287 l 1
 68 291 93 303 99 322 c 0
 191 606 193 609 193 622 c 0
 193 631 189 636 175 636 c 2
 138 635 l 1
 138 654 l 1
 168 658 259 676 268 676 c 0
 275 676 273 668 273 665 c 1
 273 668 226 515 165 314 c 0
 160 298 189 287 214 287 c 1
 214 271 l 1
 34 271 l 1
458 0 m 1
 458 18 l 1
 591 148 l 2
 683 237 684 273 684 288 c 0
 684 318 655 354 608 354 c 0
 550 354 525 312 516 301 c 1
 503 309 l 1
 538 403 623 406 641 406 c 0
 710 406 749 350 749 309 c 0
 749 269 730 245 650 168 c 2
 536 58 l 1
 538 53 l 1
 646 53 l 2
 689 53 699 66 711 87 c 1
 722 79 l 1
 689 0 l 1
 458 0 l 1
129 -10 m 1
 584 676 l 1
 635 676 l 1
 180 -10 l 1
 129 -10 l 1
EndSplineSet
EndChar

StartChar: threequarters
Encoding: 268 190 123
Width: 750
Flags: HMW
HStem: -10 21G<144 144 144 195> 0 21G<552 615 552 552> 105 42<416 429 429 429 464 584> 489 187<105 245>
VStem: 218 63<386.5 431.5> 252 67<580 611>
LayerCount: 2
Fore
SplineSet
105 489 m 1
 105 498 l 1
 162 507 252 533 252 591 c 0
 252 631 221 644 203 644 c 0
 162 644 139 617 129 608 c 1
 119 615 l 1
 135 651 184 676 221 676 c 0
 269 676 319 652 319 603 c 0
 319 557 286 536 218 513 c 1
 238 503 281 486 281 420 c 0
 281 353 222 268 98 268 c 0
 59 268 23 276 23 307 c 0
 23 320 23 345 58 345 c 0
 72 345 83 335 94 324 c 0
 106 312 118 299 135 299 c 0
 157 299 218 319 218 387 c 0
 218 476 161 489 105 489 c 1
144 -10 m 1
 599 676 l 1
 650 676 l 1
 195 -10 l 1
 144 -10 l 1
416 105 m 1
 429 147 l 1
 700 406 l 1
 736 406 l 1
 657 147 l 1
 712 147 l 1
 703 104 l 1
 645 104 l 1
 615 0 l 1
 552 0 l 1
 584 105 l 1
 416 105 l 1
464 147 m 1
 593 147 l 1
 651 327 l 1
 650 326 l 1
 648 328 l 1
 464 147 l 1
EndSplineSet
EndChar

StartChar: questiondown
Encoding: 191 191 124
Width: 500
Flags: HMW
HStem: -244 22
VStem: 26 74 252 64<-130.5 -130> 262 106<403.5 432.5>
LayerCount: 2
Fore
SplineSet
262 418 m 0
 262 447 286 471 315 471 c 0
 344 471 368 447 368 418 c 0
 368 389 344 366 315 366 c 0
 286 366 262 389 262 418 c 0
284 285 m 1
 301 283 l 1
 293 188 245 129 198 77 c 0
 149 23 102 -24 102 -99 c 0
 102 -124 109 -183 182 -183 c 0
 187 -183 252 -183 252 -136 c 0
 252 -124 249 -114 245 -104 c 0
 241 -94 237 -84 237 -73 c 0
 237 -43 267 -38 277 -38 c 0
 301 -38 316 -66 316 -95 c 0
 316 -166 250 -205 179 -205 c 0
 83 -205 28 -152 28 -78 c 0
 28 -8 61 23 162 105 c 0
 205 140 260 184 284 285 c 1
EndSplineSet
EndChar

StartChar: Agrave
Encoding: 269 192 125
Width: 611
Flags: HMW
HStem: 0 21G<-51 -51 -51 136 318 318 318 564> 226 36<175 369 175 374 154 369> 648 20G<368 394 394 394> 856 20G<295 309.5>
VStem: -51 615<0 16 0 16>
LayerCount: 2
Fore
SplineSet
429 704 m 1
 294 808 l 2
 289 812 270 824 270 841 c 0
 270 861 284 876 306 876 c 0
 313 876 331 874 349 851 c 2
 460 704 l 1
 429 704 l 1
175 262 m 1
 369 262 l 1
 325 521 l 1
 324 521 l 1
 175 262 l 1
-51 0 m 1
 -51 16 l 1
 -16 31 5 39 54 125 c 2
 368 668 l 1
 394 668 l 1
 489 112 l 2
 501 42 506 21 564 16 c 1
 564 0 l 1
 318 0 l 1
 318 16 l 1
 374 16 397 39 397 76 c 0
 397 85 397 94 374 226 c 1
 154 226 l 1
 86 108 78 79 78 61 c 0
 78 37 92 16 136 16 c 1
 136 0 l 1
 -51 0 l 1
EndSplineSet
EndChar

StartChar: Aacute
Encoding: 270 193 126
Width: 611
Flags: HMW
HStem: 0 21G<-51 -51 -51 136 318 318 318 564> 226 36<175 369 175 374 154 369> 648 20G<368 394 394 394> 856 20G<500.5 516.5>
VStem: -51 615<0 16 0 16>
LayerCount: 2
Fore
SplineSet
175 262 m 1
 369 262 l 1
 325 521 l 1
 324 521 l 1
 175 262 l 1
-51 0 m 1
 -51 16 l 1
 -16 31 5 39 54 125 c 2
 368 668 l 1
 394 668 l 1
 489 112 l 2
 501 42 506 21 564 16 c 1
 564 0 l 1
 318 0 l 1
 318 16 l 1
 378 16 397 42 397 84 c 0
 397 93 396 101 374 226 c 1
 154 226 l 1
 98 123 l 2
 87 102 78 79 78 60 c 0
 78 36 97 16 136 16 c 1
 136 0 l 1
 -51 0 l 1
319 706 m 1
 476 861 l 2
 482 867 495 876 506 876 c 0
 527 876 542 859 542 841 c 0
 542 826 531 814 520 807 c 2
 354 706 l 1
 319 706 l 1
EndSplineSet
EndChar

StartChar: Acircumflex
Encoding: 271 194 127
Width: 611
Flags: HMW
HStem: 0 21G<-51 -51 -51 136 318 318 318 564> 226 36<175 369 175 374 154 369> 648 20G<368 394 394 394> 853 20G<392 441 441 441>
VStem: -51 615<0 15 15 15>
LayerCount: 2
Fore
SplineSet
175 262 m 1
 369 262 l 1
 325 521 l 1
 324 521 l 1
 175 262 l 1
-51 0 m 1
 -51 15 l 1
 -16 30 5 39 54 125 c 2
 368 668 l 1
 394 668 l 1
 489 112 l 2
 501 42 506 21 564 16 c 1
 564 0 l 1
 318 0 l 1
 318 16 l 1
 371 16 397 43 397 79 c 0
 397 87 398 96 374 226 c 1
 154 226 l 1
 98 123 l 2
 87 102 78 80 78 61 c 0
 78 36 96 16 136 16 c 1
 136 0 l 1
 -51 0 l 1
235 704 m 1
 392 873 l 1
 441 873 l 1
 529 704 l 1
 493 704 l 1
 411 808 l 1
 274 704 l 1
 235 704 l 1
EndSplineSet
EndChar

StartChar: Atilde
Encoding: 272 195 128
Width: 611
Flags: HMW
HStem: 0 21G<-51 -51 -51 136 318 318 318 564> 226 36<175 369 175 374 154 369> 648 20G<368 394 394 394> 732 60<475 492.5> 732 103 816 20G<538 566 566 566>
LayerCount: 2
Fore
SplineSet
175 262 m 1
 369 262 l 1
 325 521 l 1
 324 521 l 1
 175 262 l 1
-51 0 m 1
 -51 16 l 1
 -16 31 5 39 54 125 c 2
 368 668 l 1
 394 668 l 1
 489 112 l 2
 501 42 506 21 564 16 c 1
 564 0 l 1
 318 0 l 1
 318 16 l 1
 370 16 397 41 397 83 c 0
 397 90 396 100 374 226 c 1
 154 226 l 1
 98 123 l 2
 87 102 78 78 78 59 c 0
 78 34 97 16 136 16 c 1
 136 0 l 1
 -51 0 l 1
239 729 m 1
 249 767 266 835 340 835 c 0
 366 835 391 825 415 815 c 0
 441 804 465 792 485 792 c 0
 523 792 531 815 538 836 c 1
 566 836 l 1
 555 769 515 732 470 732 c 0
 452 732 424 743 396 754 c 0
 367 765 338 776 320 776 c 0
 292 776 275 757 268 729 c 1
 239 729 l 1
EndSplineSet
EndChar

StartChar: Adieresis
Encoding: 273 196 129
Width: 611
Flags: HMW
HStem: 0 21G<-51 -51 -51 136 318 318 318 564> 226 36<175 369 175 374 154 369> 648 20G<368 394 394 394> 720 98<281.5 308.5 481.5 508.5>
VStem: 246 98<755.5 782.5> 446 98<755.5 782.5>
LayerCount: 2
Fore
SplineSet
446 769 m 0
 446 796 468 818 495 818 c 0
 522 818 544 796 544 769 c 0
 544 742 522 720 495 720 c 0
 468 720 446 742 446 769 c 0
246 769 m 0
 246 796 268 818 295 818 c 0
 322 818 344 796 344 769 c 0
 344 742 322 720 295 720 c 0
 268 720 246 742 246 769 c 0
175 262 m 1
 369 262 l 1
 325 521 l 1
 324 521 l 1
 175 262 l 1
-51 0 m 1
 -51 16 l 1
 -16 31 5 39 54 125 c 2
 368 668 l 1
 394 668 l 1
 489 112 l 2
 501 42 506 21 564 16 c 1
 564 0 l 1
 318 0 l 1
 318 16 l 1
 372 16 397 41 397 84 c 0
 397 91 396 103 374 226 c 1
 154 226 l 1
 98 123 l 2
 87 101 78 81 78 57 c 0
 78 37 98 16 136 16 c 1
 136 0 l 1
 -51 0 l 1
EndSplineSet
EndChar

StartChar: Aring
Encoding: 274 197 130
Width: 611
Flags: HMW
HStem: 0 21G<-51 -51 -51 136 318 318 318 564> 226 36<175 369 175 374 154 369> 648 20G<368 394 394 394> 683 166<365 401 365 411.5> 718 131<365 401> 718 165<365 401>
VStem: -51 187<0 16 0 16> 284 34<765 801> 284 165<765 801 765 810.5> 318 131<765 801> 318 166<765 801>
LayerCount: 2
Fore
SplineSet
175 262 m 1
 369 262 l 1
 325 521 l 1
 324 521 l 1
 175 262 l 1
-51 0 m 1
 -51 16 l 1
 -16 31 5 39 54 125 c 2
 368 668 l 1
 394 668 l 1
 489 112 l 2
 501 42 506 21 564 16 c 1
 564 0 l 1
 318 0 l 1
 318 16 l 1
 372 16 397 41 397 84 c 0
 397 91 396 103 374 226 c 1
 154 226 l 1
 98 123 l 2
 87 101 78 81 78 57 c 0
 78 37 98 16 136 16 c 1
 136 0 l 1
 -51 0 l 1
318 783 m 0
 318 747 347 718 383 718 c 0
 419 718 449 747 449 783 c 0
 449 819 419 849 383 849 c 0
 347 849 318 819 318 783 c 0
284 783 m 0
 284 838 329 883 384 883 c 0
 439 883 484 838 484 783 c 0
 484 728 439 683 384 683 c 0
 329 683 284 728 284 783 c 0
EndSplineSet
EndChar

StartChar: AE
Encoding: 225 198 131
Width: 889
Flags: HMW
HStem: 0 33<516 546 546 616.5> 234 37<249 411 221 422> 328 33<545 576 536 621.5> 620 33<655 778>
VStem: 756 18<454 458>
LayerCount: 2
Fore
SplineSet
249 271 m 1
 422 271 l 1
 514 601 l 1
 508 601 l 1
 249 271 l 1
-27 0 m 1
 -27 16 l 1
 -3 22 14 42 40 74 c 2
 426 557 l 2
 441 575 458 594 458 608 c 0
 458 633 444 634 394 638 c 1
 394 653 l 1
 911 653 l 1
 878 500 l 1
 861 502 l 1
 861 599 871 620 685 620 c 0
 625 620 616 620 606 583 c 2
 545 361 l 1
 698 361 713 365 756 458 c 1
 774 454 l 1
 705 222 l 1
 688 226 l 1
 691 242 694 259 694 275 c 0
 694 321 672 328 576 328 c 2
 536 328 l 1
 515 253 468 91 468 73 c 0
 468 53 478 33 516 33 c 2
 546 33 l 2
 687 33 753 58 826 169 c 1
 844 164 l 1
 780 0 l 1
 282 0 l 1
 282 16 l 1
 337 22 353 34 365 74 c 2
 411 234 l 1
 221 234 l 1
 187 187 98 94 98 55 c 0
 98 32 131 16 160 16 c 1
 160 0 l 1
 -27 0 l 1
EndSplineSet
EndChar

StartChar: Ccedilla
Encoding: 275 199 132
Width: 667
Flags: HMW
HStem: -217 21G -16 43<292.5 307 344 408.5 292.5 412.5> 630 36<380 488.5 357.5 551.5> 644 20G<668 689 689 689>
VStem: 66 112<175.5 314.5 175.5 348.5>
LayerCount: 2
Fore
SplineSet
252 -106 m 1
 307 -16 l 1
 194 -16 66 65 66 252 c 0
 66 445 243 666 472 666 c 0
 505 666 534 661 558 655 c 0
 585 649 606 642 618 642 c 0
 647 642 663 654 668 664 c 1
 689 664 l 1
 652 465 l 1
 634 468 l 1
 634 496 623 630 480 630 c 0
 280 630 178 388 178 241 c 0
 178 110 233 27 352 27 c 0
 465 27 535 98 583 145 c 1
 600 131 l 1
 564 89 481 -16 344 -16 c 1
 311 -66 l 1
 322 -63 332 -63 343 -63 c 0
 382 -63 418 -88 418 -130 c 0
 418 -193 361 -217 303 -217 c 0
 267 -217 230 -209 206 -196 c 1
 223 -167 l 1
 237 -176 255 -181 272 -181 c 0
 308 -181 344 -167 344 -138 c 0
 344 -115 325 -105 303 -105 c 0
 288 -105 272 -108 260 -114 c 1
 252 -106 l 1
EndSplineSet
EndChar

StartChar: Egrave
Encoding: 276 200 133
Width: 611
Flags: HMW
HStem: 0 33<227.5 341.5 227.5 506> 328 33<253 325.5> 620 33<356.5 493> 856 20G<295 309.5>
VStem: 400 20<222 227> 582 21<500 550.5>
LayerCount: 2
Fore
SplineSet
429 704 m 1
 296 803 l 2
 291 807 270 824 270 841 c 0
 270 861 284 876 306 876 c 0
 313 876 333 869 351 846 c 2
 460 704 l 1
 429 704 l 1
-1 0 m 1
 -1 16 l 1
 48 25 69 42 86 104 c 2
 203 532 l 2
 221 591 217 637 137 637 c 1
 137 653 l 1
 634 653 l 1
 603 500 l 1
 582 502 l 1
 582 599 587 620 399 620 c 0
 314 620 323 607 302 533 c 2
 253 361 l 1
 408 361 420 372 442 403 c 0
 451 417 460 436 470 458 c 1
 488 454 l 1
 420 222 l 1
 400 227 l 1
 404 242 407 258 407 274 c 0
 407 323 407 328 244 328 c 1
 198 154 184 113 182 101 c 0
 181 95 180 90 180 85 c 0
 180 46 210 33 245 33 c 0
 438 33 481 71 552 170 c 1
 568 162 l 1
 506 0 l 1
 -1 0 l 1
EndSplineSet
EndChar

StartChar: Eacute
Encoding: 277 201 134
Width: 611
Flags: HMW
HStem: 0 33<228 341.5 228 506> 328 33<253 325.5> 620 33<356.5 476.5> 856 20G<510.5 526.5>
VStem: 582 21<500 502>
LayerCount: 2
Fore
SplineSet
-1 0 m 1
 -1 16 l 1
 48 25 69 42 86 104 c 2
 203 532 l 2
 221 591 217 637 137 637 c 1
 137 653 l 1
 634 653 l 1
 603 500 l 1
 582 502 l 1
 583 519 584 533 584 546 c 0
 584 606 554 620 399 620 c 0
 314 620 323 607 302 533 c 2
 253 361 l 1
 407 361 420 372 442 403 c 0
 451 417 460 436 470 458 c 1
 488 454 l 1
 420 222 l 1
 400 227 l 1
 404 242 407 258 407 274 c 0
 407 323 407 328 244 328 c 1
 198 154 185 113 182 101 c 0
 180 94 180 88 180 82 c 0
 180 45 211 33 245 33 c 0
 438 33 481 71 552 170 c 1
 568 162 l 1
 506 0 l 1
 -1 0 l 1
329 706 m 1
 484 861 l 2
 490 867 505 876 516 876 c 0
 537 876 552 859 552 841 c 0
 552 826 539 814 528 807 c 2
 364 706 l 1
 329 706 l 1
EndSplineSet
EndChar

StartChar: Ecircumflex
Encoding: 278 202 135
Width: 611
Flags: HMW
HStem: 0 33<228 341.5 228 506> 328 33<253 325.5> 622 33 653 51<260 260 260 299 518 554> 853 20G<417 466 466 466>
VStem: 400 20<222 227> 582 21<500 502>
LayerCount: 2
Fore
SplineSet
-1 0 m 1
 -1 16 l 1
 48 25 69 42 86 104 c 2
 203 532 l 2
 221 591 217 637 137 637 c 1
 137 653 l 1
 634 653 l 1
 603 500 l 1
 582 502 l 1
 583 519 584 533 584 546 c 0
 584 606 554 620 399 620 c 0
 314 620 323 607 302 533 c 2
 253 361 l 1
 407 361 420 372 442 403 c 0
 451 417 460 436 470 458 c 1
 488 454 l 1
 420 222 l 1
 400 227 l 1
 404 242 407 258 407 274 c 0
 407 323 407 328 244 328 c 1
 198 154 185 113 182 101 c 0
 180 94 180 88 180 82 c 0
 180 45 211 33 245 33 c 0
 438 33 481 71 552 170 c 1
 568 162 l 1
 506 0 l 1
 -1 0 l 1
260 704 m 1
 417 873 l 1
 466 873 l 1
 554 704 l 1
 518 704 l 1
 436 808 l 1
 299 704 l 1
 260 704 l 1
EndSplineSet
EndChar

StartChar: Edieresis
Encoding: 279 203 136
Width: 611
Flags: HMW
HStem: 0 33<228 341.5 228 506> 328 33<253 325.5> 620 33<356.5 493> 720 98<301.5 328.5 501.5 528.5>
VStem: 266 98<755.5 782.5> 466 98<755.5 782.5>
LayerCount: 2
Fore
SplineSet
466 769 m 0
 466 796 488 818 515 818 c 0
 542 818 564 796 564 769 c 0
 564 742 542 720 515 720 c 0
 488 720 466 742 466 769 c 0
266 769 m 0
 266 796 288 818 315 818 c 0
 342 818 364 796 364 769 c 0
 364 742 342 720 315 720 c 0
 288 720 266 742 266 769 c 0
-1 0 m 1
 -1 16 l 1
 48 25 69 42 86 104 c 2
 203 532 l 2
 221 591 217 637 137 637 c 1
 137 653 l 1
 634 653 l 1
 603 500 l 1
 582 502 l 1
 582 599 587 620 399 620 c 0
 314 620 323 607 302 533 c 2
 253 361 l 1
 408 361 420 372 442 403 c 0
 451 417 460 436 470 458 c 1
 488 454 l 1
 420 222 l 1
 400 227 l 1
 404 242 407 258 407 274 c 0
 407 323 407 328 244 328 c 1
 198 154 185 113 182 101 c 0
 180 94 180 88 180 82 c 0
 180 45 211 33 245 33 c 0
 438 33 481 71 552 170 c 1
 568 162 l 1
 506 0 l 1
 -1 0 l 1
EndSplineSet
EndChar

StartChar: Igrave
Encoding: 280 204 137
Width: 333
Flags: HMW
HStem: 0 21G<-8 -8 -8 236> 633 20G<137 384 384 384> 856 20G<156 170.5>
LayerCount: 2
Fore
SplineSet
290 704 m 1
 156 803 l 2
 151 807 131 824 131 841 c 0
 131 861 145 876 167 876 c 0
 174 876 193 869 211 846 c 2
 321 704 l 1
 290 704 l 1
-8 0 m 1
 -8 16 l 1
 57 26 61 46 85 131 c 2
 193 522 l 2
 199 543 203 564 203 582 c 0
 203 610 186 631 137 637 c 1
 137 653 l 1
 384 653 l 1
 384 637 l 1
 317 628 312 607 288 521 c 2
 182 130 l 2
 177 110 170 88 170 69 c 0
 170 42 185 20 236 16 c 1
 236 0 l 1
 -8 0 l 1
EndSplineSet
EndChar

StartChar: Iacute
Encoding: 281 205 138
Width: 333
Flags: HMW
HStem: 0 21G<-8 -8 -8 236> 633 20G<137 384 384 384> 856 20G<371.5 387.5>
LayerCount: 2
Fore
SplineSet
-8 0 m 1
 -8 16 l 1
 57 26 61 46 85 131 c 2
 193 522 l 2
 199 543 203 564 203 582 c 0
 203 610 186 631 137 637 c 1
 137 653 l 1
 384 653 l 1
 384 637 l 1
 317 628 312 607 288 521 c 2
 182 130 l 2
 177 110 170 88 170 69 c 0
 170 42 185 20 236 16 c 1
 236 0 l 1
 -8 0 l 1
210 706 m 1
 342 859 l 2
 348 865 366 876 377 876 c 0
 398 876 413 859 413 841 c 0
 413 826 397 812 386 805 c 2
 245 706 l 1
 210 706 l 1
EndSplineSet
EndChar

StartChar: Icircumflex
Encoding: 282 206 139
Width: 333
Flags: HMW
HStem: 0 21G<-8 -8 -8 236> 653 51<137 170 131 384> 853 20G<288 337 337 337>
VStem: -8 433
LayerCount: 2
Fore
SplineSet
-8 0 m 1
 -8 16 l 1
 57 26 61 46 85 131 c 2
 193 522 l 2
 199 543 203 564 203 582 c 0
 203 610 186 631 137 637 c 1
 137 653 l 1
 384 653 l 1
 384 637 l 1
 317 628 312 607 288 521 c 2
 182 130 l 2
 177 110 170 88 170 69 c 0
 170 42 185 20 236 16 c 1
 236 0 l 1
 -8 0 l 1
131 704 m 1
 288 873 l 1
 337 873 l 1
 425 704 l 1
 389 704 l 1
 307 808 l 1
 170 704 l 1
 131 704 l 1
EndSplineSet
EndChar

StartChar: Idieresis
Encoding: 283 207 140
Width: 333
Flags: HMW
HStem: 0 21G<-8 -8 -8 236> 633 20G<137 384 384 384> 720 98<172.5 199.5 372.5 399.5>
VStem: 137 98<755.5 782.5> 337 98<755.5 782.5>
LayerCount: 2
Fore
SplineSet
337 769 m 0
 337 796 359 818 386 818 c 0
 413 818 435 796 435 769 c 0
 435 742 413 720 386 720 c 0
 359 720 337 742 337 769 c 0
137 769 m 0
 137 796 159 818 186 818 c 0
 213 818 235 796 235 769 c 0
 235 742 213 720 186 720 c 0
 159 720 137 742 137 769 c 0
-8 0 m 1
 -8 16 l 1
 57 26 61 46 85 131 c 2
 193 522 l 2
 199 543 203 564 203 582 c 0
 203 610 186 631 137 637 c 1
 137 653 l 1
 384 653 l 1
 384 637 l 1
 317 628 312 607 288 521 c 2
 182 130 l 2
 177 110 170 88 170 69 c 0
 170 42 185 20 236 16 c 1
 236 0 l 1
 -8 0 l 1
EndSplineSet
EndChar

StartChar: Eth
Encoding: 284 208 141
Width: 722
Flags: HMW
HStem: 0 30<214 245> 326 42<60 138 48 150 250 391> 623 30<345.5 408 408 466.5>
VStem: 196 99<532 533> 589 111<368.5 439.5 286 449.5>
LayerCount: 2
Fore
SplineSet
238 326 m 1
 192 162 l 2
 182 126 170 95 170 72 c 0
 170 46 187 30 241 30 c 0
 556 30 589 338 589 399 c 0
 589 500 555 623 378 623 c 0
 313 623 310 587 295 533 c 2
 250 368 l 1
 403 368 l 1
 391 326 l 1
 238 326 l 1
-8 0 m 1
 -8 16 l 1
 59 16 64 61 92 162 c 2
 138 326 l 1
 48 326 l 1
 60 368 l 1
 150 368 l 1
 196 532 l 2
 201 551 205 569 205 586 c 0
 205 616 187 637 130 637 c 1
 130 653 l 1
 408 653 l 2
 638 653 700 492 700 387 c 0
 700 185 539 0 245 0 c 2
 -8 0 l 1
EndSplineSet
EndChar

StartChar: Ntilde
Encoding: 285 209 142
Width: 667
Flags: HMW
HStem: -15 21G<461 479 461 461> 0 21G<-20 -20 -20 178> 633 20G<116 277 277 277 528 727 727 727> 650 155 732 60<513 530.5> 739 103 816 20G<576 604 604 604>
LayerCount: 2
Fore
SplineSet
277 729 m 1
 287 767 304 835 378 835 c 0
 404 835 430 824 454 814 c 0
 480 803 503 792 523 792 c 0
 561 792 569 815 576 836 c 1
 604 836 l 1
 593 769 553 732 508 732 c 0
 490 732 463 742 435 753 c 0
 406 764 376 776 358 776 c 0
 330 776 313 757 306 729 c 1
 277 729 l 1
-20 0 m 1
 -20 16 l 1
 35 24 54 54 75 130 c 2
 202 581 l 1
 185 618 164 637 116 637 c 1
 116 653 l 1
 277 653 l 1
 483 158 l 1
 486 158 l 1
 584 524 l 2
 590 544 594 565 594 584 c 0
 594 614 578 637 528 637 c 1
 528 653 l 1
 727 653 l 1
 727 637 l 1
 671 625 654 602 631 522 c 2
 479 -15 l 1
 461 -15 l 1
 233 529 l 1
 229 529 l 1
 121 127 l 2
 115 105 110 86 110 69 c 0
 110 37 125 16 178 16 c 1
 178 0 l 1
 -20 0 l 1
EndSplineSet
EndChar

StartChar: Ograve
Encoding: 286 210 143
Width: 722
Flags: HMW
HStem: -18 33<236.5 391> 633 33<377.5 513> 856 20G<351 365.5>
VStem: 60 105<188 265.5 188 337.5> 594 105<388.5 500.5>
LayerCount: 2
Fore
SplineSet
485 704 m 1
 351 803 l 2
 346 807 326 824 326 841 c 0
 326 861 340 876 362 876 c 0
 369 876 388 869 406 846 c 2
 516 704 l 1
 485 704 l 1
165 227 m 0
 165 149 165 15 295 15 c 0
 498 15 594 342 594 435 c 0
 594 566 563 633 463 633 c 0
 261 633 165 304 165 227 c 0
60 227 m 0
 60 448 288 666 467 666 c 0
 587 666 699 591 699 423 c 0
 699 222 503 -18 279 -18 c 0
 194 -18 60 37 60 227 c 0
EndSplineSet
EndChar

StartChar: Oacute
Encoding: 287 211 144
Width: 722
Flags: HMW
HStem: -18 33<236.5 391> 633 33<377.5 513> 856 20G<596.5 612.5>
VStem: 60 105<188 265.5 188 337.5> 594 105<388.5 500.5>
LayerCount: 2
Fore
SplineSet
165 227 m 0
 165 149 165 15 295 15 c 0
 498 15 594 342 594 435 c 0
 594 566 563 633 463 633 c 0
 261 633 165 304 165 227 c 0
60 227 m 0
 60 448 288 666 467 666 c 0
 587 666 699 591 699 423 c 0
 699 222 503 -18 279 -18 c 0
 194 -18 60 37 60 227 c 0
415 706 m 1
 573 861 l 2
 579 867 591 876 602 876 c 0
 623 876 638 859 638 841 c 0
 638 826 628 814 617 807 c 2
 450 706 l 1
 415 706 l 1
EndSplineSet
EndChar

StartChar: Ocircumflex
Encoding: 288 212 145
Width: 722
Flags: HMW
HStem: -18 33<236.5 391> 626 38 633 33<377.5 513> 666 38 853 20G<478 527 527 527>
VStem: 60 105<188 265.5 188 337.5> 594 105<388.5 500.5>
LayerCount: 2
Fore
SplineSet
165 227 m 0
 165 149 165 15 295 15 c 0
 498 15 594 342 594 435 c 0
 594 566 563 633 463 633 c 0
 261 633 165 304 165 227 c 0
60 227 m 0
 60 448 288 666 467 666 c 0
 587 666 699 591 699 423 c 0
 699 222 503 -18 279 -18 c 0
 194 -18 60 37 60 227 c 0
321 704 m 1
 478 873 l 1
 527 873 l 1
 615 704 l 1
 579 704 l 1
 497 808 l 1
 360 704 l 1
 321 704 l 1
EndSplineSet
EndChar

StartChar: Otilde
Encoding: 289 213 146
Width: 722
Flags: HMW
HStem: -18 33<236.5 391> 634 33 736 103 816 20G<614 642 642 642>
VStem: 60 105<188 265.5 188 337.5> 594 105<388.5 500.5>
LayerCount: 2
Fore
SplineSet
165 227 m 0
 165 149 165 15 295 15 c 0
 498 15 594 342 594 435 c 0
 594 566 563 633 463 633 c 0
 261 633 165 304 165 227 c 0
60 227 m 0
 60 448 288 666 467 666 c 0
 587 666 699 591 699 423 c 0
 699 222 503 -18 279 -18 c 0
 194 -18 60 37 60 227 c 0
315 729 m 1
 325 767 342 835 416 835 c 0
 443 835 470 825 494 814 c 0
 519 803 542 792 561 792 c 0
 599 792 607 815 614 836 c 1
 642 836 l 1
 631 769 591 732 546 732 c 0
 527 732 497 744 467 756 c 0
 440 766 413 776 396 776 c 0
 368 776 351 757 344 729 c 1
 315 729 l 1
EndSplineSet
EndChar

StartChar: Odieresis
Encoding: 290 214 147
Width: 722
Flags: HMW
HStem: -18 33<236.5 391> 563 33 724 98
VStem: 60 105<188 265.5 188 337.5> 537 98<755.5 782.5> 594 105<388.5 500.5>
LayerCount: 2
Fore
SplineSet
537 769 m 0
 537 796 559 818 586 818 c 0
 613 818 635 796 635 769 c 0
 635 742 613 720 586 720 c 0
 559 720 537 742 537 769 c 0
337 769 m 0
 337 796 359 818 386 818 c 0
 413 818 435 796 435 769 c 0
 435 742 413 720 386 720 c 0
 359 720 337 742 337 769 c 0
165 227 m 0
 165 149 165 15 295 15 c 0
 498 15 594 342 594 435 c 0
 594 566 563 633 463 633 c 0
 261 633 165 304 165 227 c 0
60 227 m 0
 60 448 288 666 467 666 c 0
 587 666 699 591 699 423 c 0
 699 222 503 -18 279 -18 c 0
 194 -18 60 37 60 227 c 0
EndSplineSet
EndChar

StartChar: multiply
Encoding: 291 215 148
Width: 675
Flags: HMW
HStem: 8 21G 28 21G<534 534> 458 20G<538 538> 477 20G
VStem: 138 402
LayerCount: 2
Fore
SplineSet
116 57 m 1
 310 251 l 1
 116 447 l 1
 143 476 l 1
 339 280 l 1
 538 478 l 1
 567 449 l 1
 367 251 l 1
 562 57 l 1
 534 28 l 1
 339 221 l 1
 144 30 l 1
 116 57 l 1
EndSplineSet
EndChar

StartChar: Oslash
Encoding: 233 216 149
Width: 722
Flags: HMW
HStem: -105 21G<69 69 69 113> -18 33<277 384 277 391> 633 33<379 481> 702 20G<625 669 669 669>
VStem: 60 105<217.5 287 217.5 337.5> 594 105<368.5 443.5>
LayerCount: 2
Fore
SplineSet
69 -105 m 1
 155 22 l 1
 102 57 60 121 60 227 c 0
 60 448 288 666 467 666 c 0
 504 666 540 659 573 644 c 1
 625 722 l 1
 669 722 l 1
 605 626 l 1
 661 587 699 521 699 423 c 0
 699 222 503 -18 279 -18 c 0
 251 -18 217 -10 187 3 c 1
 113 -105 l 1
 69 -105 l 1
215 44 m 1
 232 27 258 15 296 15 c 0
 472 15 594 314 594 423 c 0
 594 464 588 546 570 574 c 1
 215 44 l 1
190 74 m 1
 546 607 l 1
 527 623 499 633 463 633 c 0
 295 633 165 350 165 224 c 0
 165 211 165 121 190 74 c 1
EndSplineSet
EndChar

StartChar: Ugrave
Encoding: 292 217 150
Width: 722
Flags: HMW
HStem: -18 41<299 391.5> 633 20G<127 400 400 400 566 765 765 765> 852 20G 856 20G<361 375.5>
VStem: 102 90<99.5 171 99.5 201.5> 634 131<567 653>
LayerCount: 2
Fore
SplineSet
495 704 m 1
 364 803 l 2
 359 807 336 824 336 841 c 0
 336 861 350 876 372 876 c 0
 379 876 401 869 419 846 c 2
 526 704 l 1
 495 704 l 1
127 637 m 1
 127 653 l 1
 400 653 l 1
 400 637 l 1
 342 637 317 614 309 584 c 0
 297 538 192 198 192 144 c 0
 192 55 267 23 331 23 c 0
 469 23 520 161 533 205 c 0
 542 236 634 558 634 576 c 0
 634 620 604 637 566 637 c 1
 566 653 l 1
 765 653 l 1
 765 637 l 1
 706 626 694 609 684 574 c 2
 578 203 l 2
 539 70 468 -18 315 -18 c 0
 213 -18 102 37 102 151 c 0
 102 252 202 534 202 584 c 0
 202 620 185 632 127 637 c 1
EndSplineSet
EndChar

StartChar: Uacute
Encoding: 293 218 151
Width: 722
Flags: HMW
HStem: -18 41<299 391.5> 633 20G<127 400 400 400 566 765 765 765> 856 20G<596.5 612.5>
VStem: 102 90<99.5 171 99.5 201.5> 634 131<567 653>
LayerCount: 2
Fore
SplineSet
127 637 m 1
 127 653 l 1
 400 653 l 1
 400 637 l 1
 342 637 317 614 309 584 c 0
 297 538 192 198 192 144 c 0
 192 55 267 23 331 23 c 0
 469 23 520 161 533 205 c 0
 542 236 634 558 634 576 c 0
 634 620 604 637 566 637 c 1
 566 653 l 1
 765 653 l 1
 765 637 l 1
 706 626 694 609 684 574 c 2
 578 203 l 2
 539 70 468 -18 315 -18 c 0
 213 -18 102 37 102 151 c 0
 102 252 202 534 202 584 c 0
 202 620 185 632 127 637 c 1
415 706 m 1
 573 861 l 2
 579 867 591 876 602 876 c 0
 623 876 638 859 638 841 c 0
 638 826 628 814 617 807 c 2
 450 706 l 1
 415 706 l 1
EndSplineSet
EndChar

StartChar: Ucircumflex
Encoding: 294 219 152
Width: 722
Flags: HMW
HStem: -18 41<299 391.5> 653 51<306 306 306 345 306 400 566 600> 853 20G<463 512 512 512>
VStem: 102 90<99.5 171 99.5 201.5> 634 131<567 653>
LayerCount: 2
Fore
SplineSet
127 637 m 1
 127 653 l 1
 400 653 l 1
 400 637 l 1
 342 637 317 614 309 584 c 0
 297 538 192 198 192 144 c 0
 192 55 267 23 331 23 c 0
 469 23 520 161 533 205 c 0
 542 236 634 558 634 576 c 0
 634 620 604 637 566 637 c 1
 566 653 l 1
 765 653 l 1
 765 637 l 1
 706 626 694 609 684 574 c 2
 578 203 l 2
 539 70 468 -18 315 -18 c 0
 213 -18 102 37 102 151 c 0
 102 252 202 534 202 584 c 0
 202 620 185 632 127 637 c 1
306 704 m 1
 463 873 l 1
 512 873 l 1
 600 704 l 1
 564 704 l 1
 482 808 l 1
 345 704 l 1
 306 704 l 1
EndSplineSet
EndChar

StartChar: Udieresis
Encoding: 295 220 153
Width: 722
Flags: HMW
HStem: -18 41<299 391.5> 633 20G<127 400 400 400 566 765 765 765> 637 181<371 434.5 407.5 585> 720 98<407.5 434.5 607.5 634.5>
VStem: 102 90<99.5 171 99.5 201.5> 372 98<755.5 782.5> 572 98<755.5 782.5>
LayerCount: 2
Fore
SplineSet
572 769 m 0
 572 796 594 818 621 818 c 0
 648 818 670 796 670 769 c 0
 670 742 648 720 621 720 c 0
 594 720 572 742 572 769 c 0
372 769 m 0
 372 796 394 818 421 818 c 0
 448 818 470 796 470 769 c 0
 470 742 448 720 421 720 c 0
 394 720 372 742 372 769 c 0
127 637 m 1
 127 653 l 1
 400 653 l 1
 400 637 l 1
 342 637 317 614 309 584 c 0
 297 538 192 198 192 144 c 0
 192 55 267 23 331 23 c 0
 469 23 520 161 533 205 c 0
 542 236 634 558 634 576 c 0
 634 620 604 637 566 637 c 1
 566 653 l 1
 765 653 l 1
 765 637 l 1
 706 626 694 609 684 574 c 2
 578 203 l 2
 539 70 468 -18 315 -18 c 0
 213 -18 102 37 102 151 c 0
 102 252 202 534 202 584 c 0
 202 620 185 632 127 637 c 1
EndSplineSet
EndChar

StartChar: Yacute
Encoding: 296 221 154
Width: 556
Flags: HMW
HStem: 0 21G<78 78 78 367> 633 20G<91 330 330 330 444 633 633 633> 856 20G<533.5 549.5>
LayerCount: 2
Fore
SplineSet
352 706 m 1
 514 866 l 2
 520 872 528 876 539 876 c 0
 560 876 575 859 575 841 c 0
 575 826 569 819 558 812 c 2
 387 706 l 1
 352 706 l 1
78 0 m 1
 78 16 l 1
 115 16 167 34 186 100 c 2
 244 302 l 1
 167 571 l 2
 149 634 121 637 91 637 c 1
 91 653 l 1
 330 653 l 1
 330 637 l 1
 293 634 262 621 262 596 c 0
 262 589 262 581 264 571 c 0
 270 545 301 439 325 347 c 1
 370 403 509 555 509 596 c 0
 509 632 476 637 444 637 c 1
 444 653 l 1
 633 653 l 1
 633 637 l 1
 606 624 595 616 563 576 c 2
 344 306 l 1
 299 151 292 129 286 101 c 0
 284 93 283 87 283 80 c 0
 283 33 317 16 367 16 c 1
 367 0 l 1
 78 0 l 1
EndSplineSet
EndChar

StartChar: Thorn
Encoding: 297 222 155
Width: 611
Flags: HMW
HStem: 0 21G<0 0 0 245> 170 37<291 333.5 278 383.5> 488 30<311 358 358 380 302 381> 488 165<311 381>
VStem: 466 103<308 408>
LayerCount: 2
Fore
SplineSet
215 211 m 1
 237 209 264 207 292 207 c 0
 375 207 466 232 466 371 c 0
 466 445 436 488 326 488 c 0
 296 488 289 471 286 459 c 2
 215 211 l 1
0 0 m 1
 0 16 l 1
 51 24 67 36 85 100 c 2
 200 515 l 2
 206 538 214 568 214 582 c 0
 214 619 188 632 146 637 c 1
 146 653 l 1
 384 653 l 1
 384 637 l 1
 352 632 325 616 316 580 c 2
 302 518 l 1
 358 518 l 2
 402 518 569 517 569 366 c 0
 569 250 460 170 307 170 c 0
 275 170 241 173 206 180 c 1
 185 98 l 2
 181 84 178 71 178 60 c 0
 178 34 191 16 245 16 c 1
 245 0 l 1
 0 0 l 1
EndSplineSet
EndChar

StartChar: germandbls
Encoding: 251 223 156
Width: 500
Flags: HMW
HStem: -207 24<-90 -51.5 -90 -29> -207 104<-138.5 -29> -23 22<237.5 284.5 237.5 308> 656 23<306 369.5>
VStem: 367 87<217.5 275.5 197.5 309.5> 413 80<550 579 497 605>
LayerCount: 2
Fore
SplineSet
23 -4 m 2
 95 315 l 2
 146 539 213 679 355 679 c 0
 454 679 493 609 493 549 c 0
 493 445 392 406 330 384 c 1
 330 381 l 1
 409 375 454 316 454 235 c 0
 454 160 382 -23 234 -23 c 0
 203 -23 156 -7 156 44 c 0
 156 74 176 90 200 90 c 0
 226 90 238 71 238 50 c 0
 238 40 236 34 233 29 c 0
 230 22 226 18 226 12 c 0
 226 8 231 -1 244 -1 c 0
 325 -1 367 180 367 255 c 0
 367 364 316 366 284 369 c 0
 270 370 260 372 260 383 c 0
 260 398 266 396 281 397 c 0
 293 398 310 400 333 411 c 0
 397 443 413 519 413 581 c 0
 413 629 390 656 349 656 c 0
 263 656 217 480 206 438 c 2
 95 12 l 2
 84 -31 32 -207 -90 -207 c 0
 -132 -207 -168 -185 -168 -147 c 0
 -168 -114 -150 -103 -127 -103 c 0
 -96 -103 -89 -130 -89 -139 c 0
 -89 -146 -92 -154 -95 -160 c 0
 -98 -167 -101 -171 -101 -174 c 0
 -101 -179 -97 -183 -83 -183 c 0
 -20 -183 2 -99 23 -4 c 2
EndSplineSet
EndChar

StartChar: agrave
Encoding: 298 224 157
Width: 500
Flags: HMW
HStem: -11 49<147.5 150> -10 21G<318 360.5> 419 22<249.5 323.5> 644 20G<230 244.5>
VStem: 17 84<92.5 154 82.5 180.5>
LayerCount: 2
Fore
SplineSet
364 492 m 1
 230 592 l 2
 225 596 205 612 205 629 c 0
 205 649 219 664 241 664 c 0
 248 664 267 658 285 635 c 2
 395 492 l 1
 364 492 l 1
101 109 m 0
 101 56 134 38 161 38 c 0
 267 38 362 249 362 342 c 0
 362 404 339 419 308 419 c 0
 191 419 101 199 101 109 c 0
318 139 m 1
 316 141 l 1
 233 19 180 -11 120 -11 c 0
 20 -11 17 78 17 107 c 0
 17 254 170 441 303 441 c 0
 346 441 379 402 379 377 c 1
 381 377 l 1
 397 434 l 1
 465 438 l 1
 462 426 370 85 370 54 c 0
 370 47 376 41 384 41 c 0
 399 41 419 66 464 110 c 1
 476 100 l 1
 416 26 382 -10 339 -10 c 0
 297 -10 297 16 297 33 c 0
 297 56 302 78 318 139 c 1
EndSplineSet
EndChar

StartChar: aacute
Encoding: 299 225 158
Width: 500
Flags: HMW
HStem: -11 49<147.5 150> -10 21G<318 360.5> 419 22<249.5 323.5> 644 20G<445.5 461.5>
VStem: 17 84<92.5 154 82.5 180.5>
LayerCount: 2
Fore
SplineSet
101 109 m 0
 101 56 134 38 161 38 c 0
 267 38 362 249 362 342 c 0
 362 404 339 419 308 419 c 0
 191 419 101 199 101 109 c 0
318 139 m 1
 316 141 l 1
 233 19 180 -11 120 -11 c 0
 20 -11 17 78 17 107 c 0
 17 254 170 441 303 441 c 0
 346 441 379 402 379 377 c 1
 381 377 l 1
 397 434 l 1
 465 438 l 1
 462 426 370 85 370 54 c 0
 370 47 376 41 384 41 c 0
 399 41 419 66 464 110 c 1
 476 100 l 1
 416 26 382 -10 339 -10 c 0
 297 -10 297 16 297 33 c 0
 297 56 302 78 318 139 c 1
264 494 m 1
 421 649 l 2
 427 655 440 664 451 664 c 0
 472 664 487 647 487 629 c 0
 487 614 476 602 465 595 c 2
 299 494 l 1
 264 494 l 1
EndSplineSet
EndChar

StartChar: acircumflex
Encoding: 300 226 159
Width: 500
Flags: HMW
HStem: -11 49<147.5 150> -10 21G<318 360.5> 419 22<249.5 323.5> 441 51 641 20G<332 381 381 381>
VStem: 17 84<92.5 154 82.5 180.5>
LayerCount: 2
Fore
SplineSet
101 109 m 0
 101 56 134 38 161 38 c 0
 267 38 362 249 362 342 c 0
 362 404 339 419 308 419 c 0
 191 419 101 199 101 109 c 0
318 139 m 1
 316 141 l 1
 233 19 180 -11 120 -11 c 0
 20 -11 17 78 17 107 c 0
 17 254 170 441 303 441 c 0
 346 441 379 402 379 377 c 1
 381 377 l 1
 397 434 l 1
 465 438 l 1
 462 426 370 85 370 54 c 0
 370 47 376 41 384 41 c 0
 399 41 419 66 464 110 c 1
 476 100 l 1
 416 26 382 -10 339 -10 c 0
 297 -10 297 16 297 33 c 0
 297 56 302 78 318 139 c 1
175 492 m 1
 332 661 l 1
 381 661 l 1
 469 492 l 1
 433 492 l 1
 351 596 l 1
 214 492 l 1
 175 492 l 1
EndSplineSet
EndChar

StartChar: atilde
Encoding: 301 227 160
Width: 500
Flags: HMW
HStem: -11 49<147.5 150> -10 21G<318 360.5> 419 22<249.5 323.5> 520 60<420 437.5> 520 103 604 20G<483 511 511 511>
VStem: 17 84<92.5 154 82.5 180.5>
LayerCount: 2
Fore
SplineSet
101 109 m 0
 101 56 134 38 161 38 c 0
 267 38 362 249 362 342 c 0
 362 404 339 419 308 419 c 0
 191 419 101 199 101 109 c 0
318 139 m 1
 316 141 l 1
 233 19 180 -11 120 -11 c 0
 20 -11 17 78 17 107 c 0
 17 254 170 441 303 441 c 0
 346 441 379 402 379 377 c 1
 381 377 l 1
 397 434 l 1
 465 438 l 1
 462 426 370 85 370 54 c 0
 370 47 376 41 384 41 c 0
 399 41 419 66 464 110 c 1
 476 100 l 1
 416 26 382 -10 339 -10 c 0
 297 -10 297 16 297 33 c 0
 297 56 302 78 318 139 c 1
184 517 m 1
 194 555 211 623 285 623 c 0
 311 623 337 613 361 603 c 0
 387 592 410 580 430 580 c 0
 468 580 476 603 483 624 c 1
 511 624 l 1
 500 557 460 520 415 520 c 0
 397 520 369 531 341 542 c 0
 312 553 283 564 265 564 c 0
 237 564 220 545 213 517 c 1
 184 517 l 1
EndSplineSet
EndChar

StartChar: adieresis
Encoding: 302 228 161
Width: 500
Flags: HMW
HStem: -11 49<147.5 150> -10 21G<318 360.5> 419 22<249.5 323.5> 508 98<226.5 253.5 426.5 453.5>
VStem: 17 84<92.5 154 82.5 180.5> 191 98<543.5 570.5> 391 98<543.5 570.5>
LayerCount: 2
Fore
SplineSet
391 557 m 0
 391 584 413 606 440 606 c 0
 467 606 489 584 489 557 c 0
 489 530 467 508 440 508 c 0
 413 508 391 530 391 557 c 0
191 557 m 0
 191 584 213 606 240 606 c 0
 267 606 289 584 289 557 c 0
 289 530 267 508 240 508 c 0
 213 508 191 530 191 557 c 0
101 109 m 0
 101 56 134 38 161 38 c 0
 267 38 362 249 362 342 c 0
 362 404 339 419 308 419 c 0
 191 419 101 199 101 109 c 0
318 139 m 1
 316 141 l 1
 233 19 180 -11 120 -11 c 0
 20 -11 17 78 17 107 c 0
 17 254 170 441 303 441 c 0
 346 441 379 402 379 377 c 1
 381 377 l 1
 397 434 l 1
 465 438 l 1
 462 426 370 85 370 54 c 0
 370 47 376 41 384 41 c 0
 399 41 419 66 464 110 c 1
 476 100 l 1
 416 26 382 -10 339 -10 c 0
 297 -10 297 16 297 33 c 0
 297 56 302 78 318 139 c 1
EndSplineSet
EndChar

StartChar: aring
Encoding: 303 229 162
Width: 500
Flags: HMW
HStem: -11 49<147.5 150> -10 21G<318 360.5> 419 22<249.5 323.5> 492 33<320 356 320 366.5> 525 131<320 356> 525 166<320 356>
VStem: 17 84<92.5 154 82.5 180.5> 240 164<572 608 572 618.5> 273 131<572 608> 273 166<572 608>
LayerCount: 2
Fore
SplineSet
273 590 m 0
 273 554 302 525 338 525 c 0
 374 525 404 554 404 590 c 0
 404 626 374 656 338 656 c 0
 302 656 273 626 273 590 c 0
240 591 m 0
 240 646 284 691 339 691 c 0
 394 691 439 646 439 591 c 0
 439 536 394 492 339 492 c 0
 284 492 240 536 240 591 c 0
101 109 m 0
 101 56 134 38 161 38 c 0
 267 38 362 249 362 342 c 0
 362 404 339 419 308 419 c 0
 191 419 101 199 101 109 c 0
318 139 m 1
 316 141 l 1
 233 19 180 -11 120 -11 c 0
 20 -11 17 78 17 107 c 0
 17 254 170 441 303 441 c 0
 346 441 379 402 379 377 c 1
 381 377 l 1
 397 434 l 1
 465 438 l 1
 462 426 370 85 370 54 c 0
 370 47 376 41 384 41 c 0
 399 41 419 66 464 110 c 1
 476 100 l 1
 416 26 382 -10 339 -10 c 0
 297 -10 297 16 297 33 c 0
 297 56 302 78 318 139 c 1
EndSplineSet
EndChar

StartChar: ae
Encoding: 241 230 163
Width: 667
Flags: HMW
HStem: -11 50<128 148> 416 25<539.5 546> 421 20<255 309>
VStem: 23 86<87 153 87 161> 300 88 574 66<342.5 385>
LayerCount: 2
Fore
SplineSet
388 213 m 1
 524 241 574 316 574 369 c 0
 574 401 554 416 538 416 c 0
 490 416 430 350 388 213 c 1
109 104 m 0
 109 70 111 39 145 39 c 0
 243 39 350 263 350 363 c 0
 350 418 316 421 302 421 c 0
 208 421 109 202 109 104 c 0
294 140 m 1
 245 68 186 -11 110 -11 c 0
 38 -11 23 48 23 95 c 0
 23 227 174 441 300 441 c 0
 348 441 358 418 369 394 c 1
 388 437 l 1
 459 439 l 1
 439 383 l 1
 441 381 l 1
 479 420 520 441 559 441 c 0
 581 441 640 423 640 363 c 0
 640 261 500 222 382 188 c 1
 377 166 376 164 376 140 c 0
 376 111 376 36 449 36 c 0
 470 36 521 46 588 113 c 1
 598 101 l 1
 592 91 502 -11 406 -11 c 0
 328 -11 296 51 296 117 c 0
 296 126 297 132 299 140 c 1
 294 140 l 1
EndSplineSet
EndChar

StartChar: ccedilla
Encoding: 304 231 164
Width: 444
Flags: HMW
HStem: -217 36<127 136 109 174.5> -100 34<155 155 155 156> -10 35<155 237 193 193> 420 21<250 324>
VStem: 26 86<108.5 195 108.5 217.5> 188 74<-152.5 -125.5> 338 87<346 346.5>
LayerCount: 2
Fore
SplineSet
101 -99 m 1
 155 -10 l 1
 95 -4 26 29 26 147 c 0
 26 288 168 441 316 441 c 0
 400 441 425 391 425 360 c 0
 425 332 403 304 378 304 c 0
 353 304 338 318 338 341 c 0
 338 352 341 362 344 370 c 0
 348 381 353 390 353 400 c 0
 353 415 333 420 315 420 c 0
 185 420 112 243 112 147 c 0
 112 70 146 25 207 25 c 0
 267 25 314 66 350 106 c 1
 366 96 l 1
 342 66 289 -4 193 -10 c 1
 155 -66 l 1
 166 -63 178 -63 190 -63 c 0
 228 -63 262 -89 262 -130 c 0
 262 -194 204 -217 145 -217 c 0
 109 -217 73 -209 50 -196 c 1
 67 -167 l 1
 81 -176 100 -181 118 -181 c 0
 154 -181 188 -167 188 -138 c 0
 188 -113 167 -100 145 -100 c 0
 133 -100 120 -101 110 -107 c 1
 101 -99 l 1
EndSplineSet
EndChar

StartChar: egrave
Encoding: 305 232 165
Width: 444
Flags: HMW
HStem: -11 45<186 218> 394 23 418 23<288 324.5> 644 20G<202 216.5>
VStem: 31 85<105.5 142.5 105.5 201.5>
LayerCount: 2
Fore
SplineSet
336 492 m 1
 202 592 l 2
 197 596 177 612 177 629 c 0
 177 649 191 664 213 664 c 0
 220 664 239 658 257 635 c 2
 367 492 l 1
 336 492 l 1
124 176 m 1
 119 162 116 149 116 136 c 0
 116 75 160 34 212 34 c 0
 266 34 308 68 358 109 c 1
 370 97 l 1
 359 81 268 -11 168 -11 c 0
 63 -11 31 67 31 130 c 0
 31 273 193 441 334 441 c 0
 385 441 412 407 412 363 c 0
 412 284 314 203 152 180 c 2
 124 176 l 1
131 198 m 1
 337 240 347 364 347 372 c 0
 347 411 334 418 315 418 c 0
 261 418 183 332 148 242 c 2
 131 198 l 1
EndSplineSet
EndChar

StartChar: eacute
Encoding: 306 233 166
Width: 444
Flags: HMW
HStem: -11 45<186 218> 411 23 644 20G<417.5 433.5>
VStem: 31 85<105.5 142.5 105.5 201.5> 347 65<368 385 323.5 391.5>
LayerCount: 2
Fore
SplineSet
124 176 m 1
 119 162 116 149 116 136 c 0
 116 75 160 34 212 34 c 0
 266 34 308 68 358 109 c 1
 370 97 l 1
 359 81 268 -11 168 -11 c 0
 63 -11 31 67 31 130 c 0
 31 273 193 441 334 441 c 0
 385 441 412 407 412 363 c 0
 412 284 314 203 152 180 c 2
 124 176 l 1
131 198 m 1
 337 240 347 364 347 372 c 0
 347 411 334 418 315 418 c 0
 261 418 183 332 148 242 c 2
 131 198 l 1
236 494 m 1
 393 647 l 2
 399 653 412 664 423 664 c 0
 444 664 459 647 459 629 c 0
 459 614 448 600 437 593 c 2
 271 494 l 1
 236 494 l 1
EndSplineSet
EndChar

StartChar: ecircumflex
Encoding: 307 234 167
Width: 444
Flags: HMW
HStem: -11 45<186 218> 385 23 418 23<288 324.5> 441 51 596 65<323 323> 641 20G<304 353 353 353>
VStem: 31 85<105.5 142.5 105.5 201.5> 347 65<368 385 323.5 391.5>
LayerCount: 2
Fore
SplineSet
124 176 m 1
 119 162 116 149 116 136 c 0
 116 75 160 34 212 34 c 0
 266 34 308 68 358 109 c 1
 370 97 l 1
 359 81 268 -11 168 -11 c 0
 63 -11 31 67 31 130 c 0
 31 273 193 441 334 441 c 0
 385 441 412 407 412 363 c 0
 412 284 314 203 152 180 c 2
 124 176 l 1
131 198 m 1
 337 240 347 364 347 372 c 0
 347 411 334 418 315 418 c 0
 261 418 183 332 148 242 c 2
 131 198 l 1
147 492 m 1
 304 661 l 1
 353 661 l 1
 441 492 l 1
 405 492 l 1
 323 596 l 1
 186 492 l 1
 147 492 l 1
EndSplineSet
EndChar

StartChar: edieresis
Encoding: 308 235 168
Width: 444
Flags: HMW
HStem: -11 45<186 218> 411 23 418 23<288 324.5> 508 98<188.5 215.5 388.5 415.5>
VStem: 31 85<105.5 142.5 105.5 201.5> 153 98<543.5 570.5> 353 98<543.5 570.5>
LayerCount: 2
Fore
SplineSet
353 557 m 0
 353 584 375 606 402 606 c 0
 429 606 451 584 451 557 c 0
 451 530 429 508 402 508 c 0
 375 508 353 530 353 557 c 0
153 557 m 0
 153 584 175 606 202 606 c 0
 229 606 251 584 251 557 c 0
 251 530 229 508 202 508 c 0
 175 508 153 530 153 557 c 0
124 176 m 1
 119 162 116 149 116 136 c 0
 116 75 160 34 212 34 c 0
 266 34 308 68 358 109 c 1
 370 97 l 1
 359 81 268 -11 168 -11 c 0
 63 -11 31 67 31 130 c 0
 31 273 193 441 334 441 c 0
 385 441 412 407 412 363 c 0
 412 284 314 203 152 180 c 2
 124 176 l 1
131 198 m 1
 337 240 347 364 347 372 c 0
 347 411 334 418 315 418 c 0
 261 418 183 332 148 242 c 2
 131 198 l 1
EndSplineSet
EndChar

StartChar: igrave
Encoding: 309 236 169
Width: 278
Flags: HMW
HStem: -11 21G<72.5 124> 644 20G<119 133.5>
VStem: 49 75<47.5 57 47.5 74.5>
LayerCount: 2
Fore
SplineSet
253 492 m 1
 118 592 l 2
 113 596 94 612 94 629 c 0
 94 649 108 664 130 664 c 0
 137 664 155 658 173 635 c 2
 284 492 l 1
 253 492 l 1
222 114 m 1
 235 103 l 1
 196 44 152 -11 96 -11 c 0
 49 -11 49 33 49 51 c 0
 49 98 125 336 125 364 c 0
 125 385 120 400 65 400 c 1
 65 416 l 1
 91 416 186 434 225 441 c 1
 228 439 l 1
 140 117 l 2
 136 103 124 63 124 51 c 0
 124 44 131 36 140 36 c 0
 152 36 181 56 222 114 c 1
EndSplineSet
EndChar

StartChar: iacute
Encoding: 310 237 170
Width: 278
Flags: HMW
HStem: -11 21G<72.5 124> 644 20G<314.5 330.5>
VStem: 49 75<47.5 57 47.5 74.5>
LayerCount: 2
Fore
SplineSet
222 114 m 1
 235 103 l 1
 196 44 152 -11 96 -11 c 0
 49 -11 49 33 49 51 c 0
 49 98 125 336 125 364 c 0
 125 385 120 400 65 400 c 1
 65 416 l 1
 91 416 186 434 225 441 c 1
 228 439 l 1
 140 117 l 2
 136 103 124 63 124 51 c 0
 124 44 131 36 140 36 c 0
 152 36 181 56 222 114 c 1
132 494 m 1
 289 648 l 2
 295 654 309 664 320 664 c 0
 341 664 356 647 356 629 c 0
 356 614 344 601 333 594 c 2
 167 494 l 1
 132 494 l 1
EndSplineSet
EndChar

StartChar: icircumflex
Encoding: 311 238 171
Width: 278
Flags: HMW
HStem: -11 21G<72.5 124> 641 20G<191 240 240 240>
VStem: 49 75<47.5 57 47.5 74.5>
LayerCount: 2
Fore
SplineSet
222 114 m 1
 235 103 l 1
 196 44 152 -11 96 -11 c 0
 49 -11 49 33 49 51 c 0
 49 98 125 336 125 364 c 0
 125 385 120 400 65 400 c 1
 65 416 l 1
 91 416 186 434 225 441 c 1
 228 439 l 1
 140 117 l 2
 136 103 124 63 124 51 c 0
 124 44 131 36 140 36 c 0
 152 36 181 56 222 114 c 1
34 492 m 1
 191 661 l 1
 240 661 l 1
 328 492 l 1
 292 492 l 1
 210 596 l 1
 73 492 l 1
 34 492 l 1
EndSplineSet
EndChar

StartChar: idieresis
Encoding: 312 239 172
Width: 278
Flags: HMW
HStem: -11 21G<72.5 124> 508 98<89.5 116.5 290.5 317.5>
VStem: 49 103 255 98<543.5 570.5>
LayerCount: 2
Fore
SplineSet
255 557 m 0
 255 584 277 606 304 606 c 0
 331 606 353 584 353 557 c 0
 353 530 331 508 304 508 c 0
 277 508 255 530 255 557 c 0
54 557 m 0
 54 584 76 606 103 606 c 0
 130 606 152 584 152 557 c 0
 152 530 130 508 103 508 c 0
 76 508 54 530 54 557 c 0
222 114 m 1
 235 103 l 1
 196 44 152 -11 96 -11 c 0
 49 -11 49 33 49 51 c 0
 49 98 125 336 125 364 c 0
 125 385 120 400 65 400 c 1
 65 416 l 1
 91 416 186 434 225 441 c 1
 228 439 l 1
 140 117 l 2
 136 103 124 63 124 51 c 0
 124 44 131 36 140 36 c 0
 152 36 181 56 222 114 c 1
EndSplineSet
EndChar

StartChar: eth
Encoding: 313 240 173
Width: 500
Flags: HMW
HStem: -11 21<166 248 166 254.5> 188 21 663 20G<224 224>
VStem: 27 84<91.5 162 74.5 206.5> 384 83<270.5 350>
LayerCount: 2
Fore
SplineSet
394 392 m 1
 396 393 l 1
 387 463 360 512 324 557 c 1
 207 506 l 1
 174 535 l 1
 297 589 l 1
 265 620 225 652 189 666 c 1
 224 683 l 1
 264 675 312 645 351 612 c 1
 450 655 l 1
 482 627 l 1
 381 582 l 1
 431 528 467 461 467 364 c 0
 467 164 331 -11 178 -11 c 0
 72 -11 27 50 27 133 c 0
 27 280 175 441 310 441 c 0
 347 441 380 422 394 392 c 1
111 103 m 0
 111 46 141 10 191 10 c 0
 305 10 384 217 384 324 c 0
 384 376 362 420 314 420 c 0
 202 420 111 221 111 103 c 0
EndSplineSet
EndChar

StartChar: ntilde
Encoding: 314 241 174
Width: 500
Flags: HMW
HStem: -9 21G<312 362> 0 21G<14 14 14 89> 390 51<331.5 345.5> 520 60<385 402.5> 520 103 604 20G<448 476 476 476>
VStem: 361 81<353.5 367>
LayerCount: 2
Fore
SplineSet
149 517 m 1
 159 555 176 623 250 623 c 0
 275 623 300 614 323 604 c 0
 350 593 375 580 395 580 c 0
 433 580 441 603 448 624 c 1
 476 624 l 1
 465 557 425 520 380 520 c 0
 362 520 334 531 305 542 c 0
 277 553 248 564 230 564 c 0
 202 564 185 545 178 517 c 1
 149 517 l 1
14 0 m 1
 45 113 109 337 109 358 c 0
 109 373 102 394 48 394 c 1
 48 410 l 1
 102 420 156 430 210 441 c 1
 213 439 l 1
 149 230 l 1
 151 228 l 1
 198 302 290 441 373 441 c 0
 419 441 442 417 442 375 c 0
 442 332 362 85 362 55 c 0
 362 40 376 38 378 38 c 0
 398 38 423 70 460 117 c 1
 474 104 l 1
 424 37 389 -9 335 -9 c 0
 289 -9 287 21 287 50 c 0
 287 74 361 318 361 358 c 0
 361 376 355 390 336 390 c 0
 288 390 226 304 189 248 c 0
 144 179 130 136 89 0 c 1
 14 0 l 1
EndSplineSet
EndChar

StartChar: ograve
Encoding: 315 242 175
Width: 500
Flags: HMW
HStem: -11 21<166 248 166 254.5> 420 21<258 336.5> 644 20G<230 244.5>
VStem: 27 84<91.5 163 86.5 206.5> 384 84<268.5 326 231.5 349.5>
LayerCount: 2
Fore
SplineSet
364 492 m 1
 227 595 l 2
 222 599 205 612 205 629 c 0
 205 649 219 664 241 664 c 0
 248 664 264 661 282 638 c 2
 395 492 l 1
 364 492 l 1
111 132 m 0
 111 41 141 10 191 10 c 0
 305 10 384 244 384 293 c 0
 384 406 359 420 314 420 c 0
 202 420 111 194 111 132 c 0
27 133 m 0
 27 280 175 441 321 441 c 0
 437 441 468 359 468 293 c 0
 468 170 331 -11 178 -11 c 0
 72 -11 27 50 27 133 c 0
EndSplineSet
EndChar

StartChar: oacute
Encoding: 316 243 176
Width: 500
Flags: HMW
HStem: -11 21<166 248 166 254.5> 420 21<258 336.5> 644 20G<445.5 461.5>
VStem: 27 84<91.5 163 86.5 206.5> 384 84<268.5 326 231.5 349.5>
LayerCount: 2
Fore
SplineSet
111 132 m 0
 111 41 141 10 191 10 c 0
 305 10 384 244 384 293 c 0
 384 406 359 420 314 420 c 0
 202 420 111 194 111 132 c 0
27 133 m 0
 27 280 175 441 321 441 c 0
 437 441 468 359 468 293 c 0
 468 170 331 -11 178 -11 c 0
 72 -11 27 50 27 133 c 0
264 494 m 1
 414 646 l 2
 420 652 440 664 451 664 c 0
 472 664 487 647 487 629 c 0
 487 614 469 599 458 592 c 2
 299 494 l 1
 264 494 l 1
EndSplineSet
EndChar

StartChar: ocircumflex
Encoding: 317 244 177
Width: 500
Flags: HMW
HStem: -11 21<166 248 166 254.5> 398 21 420 21<258 336.5> 441 51 596 65<341 341> 641 20G<322 371 371 371>
VStem: 27 84<91.5 163 86.5 206.5> 384 84<268.5 326 231.5 349.5>
LayerCount: 2
Fore
SplineSet
111 132 m 0
 111 41 141 10 191 10 c 0
 305 10 384 244 384 293 c 0
 384 406 359 420 314 420 c 0
 202 420 111 194 111 132 c 0
27 133 m 0
 27 280 175 441 321 441 c 0
 437 441 468 359 468 293 c 0
 468 170 331 -11 178 -11 c 0
 72 -11 27 50 27 133 c 0
165 492 m 1
 322 661 l 1
 371 661 l 1
 459 492 l 1
 423 492 l 1
 341 596 l 1
 204 492 l 1
 165 492 l 1
EndSplineSet
EndChar

StartChar: otilde
Encoding: 318 245 178
Width: 500
Flags: HMW
HStem: -11 21<166 248 166 254.5> 407 21 520 60<405 422.5> 520 103 604 20G<468 496 496 496>
VStem: 27 84<91.5 163 86.5 206.5> 384 84<268.5 326 231.5 349.5>
LayerCount: 2
Fore
SplineSet
111 132 m 0
 111 41 141 10 191 10 c 0
 305 10 384 244 384 293 c 0
 384 406 359 420 314 420 c 0
 202 420 111 194 111 132 c 0
27 133 m 0
 27 280 175 441 321 441 c 0
 437 441 468 359 468 293 c 0
 468 170 331 -11 178 -11 c 0
 72 -11 27 50 27 133 c 0
169 517 m 1
 179 555 196 623 270 623 c 0
 296 623 322 613 346 603 c 0
 372 592 395 580 415 580 c 0
 453 580 461 603 468 624 c 1
 496 624 l 1
 485 557 445 520 400 520 c 0
 381 520 351 532 322 543 c 0
 294 554 267 564 250 564 c 0
 222 564 205 545 198 517 c 1
 169 517 l 1
EndSplineSet
EndChar

StartChar: odieresis
Encoding: 319 246 179
Width: 500
Flags: HMW
HStem: -11 21<166 248 166 254.5> 411 21 508 98<226.5 253.5 426.5 453.5>
VStem: 27 84<91.5 163 86.5 206.5> 191 98<543.5 570.5> 384 84<268.5 326 231.5 349.5> 391 98<543.5 570.5>
LayerCount: 2
Fore
SplineSet
391 557 m 0
 391 584 413 606 440 606 c 0
 467 606 489 584 489 557 c 0
 489 530 467 508 440 508 c 0
 413 508 391 530 391 557 c 0
191 557 m 0
 191 584 213 606 240 606 c 0
 267 606 289 584 289 557 c 0
 289 530 267 508 240 508 c 0
 213 508 191 530 191 557 c 0
111 132 m 0
 111 41 141 10 191 10 c 0
 305 10 384 244 384 293 c 0
 384 406 359 420 314 420 c 0
 202 420 111 194 111 132 c 0
27 133 m 0
 27 280 175 441 321 441 c 0
 437 441 468 359 468 293 c 0
 468 170 331 -11 178 -11 c 0
 72 -11 27 50 27 133 c 0
EndSplineSet
EndChar

StartChar: divide
Encoding: 320 247 180
Width: 675
Flags: HMW
HStem: -11 111 220 66 230 46<86 590 86 590> 406 111
VStem: 283 111 290 86<462 486>
LayerCount: 2
Fore
SplineSet
335 -11 m 0
 311 -11 292 8 292 32 c 0
 292 56 311 75 335 75 c 0
 359 75 378 56 378 32 c 0
 378 8 359 -11 335 -11 c 0
333 431 m 0
 309 431 290 450 290 474 c 0
 290 498 309 517 333 517 c 0
 357 517 376 498 376 474 c 0
 376 450 357 431 333 431 c 0
86 230 m 1
 86 276 l 1
 590 276 l 1
 590 230 l 1
 86 230 l 1
EndSplineSet
EndChar

StartChar: oslash
Encoding: 249 248 181
Width: 500
Flags: HMW
HStem: -9 23<167 256.5 167 258.5> 418 22<258.5 328>
VStem: 28 84<107 173 96 207.5> 385 84<285.5 318.5>
LayerCount: 2
Fore
SplineSet
124 -4 m 1
 50 16 28 79 28 135 c 0
 28 280 172 440 339 440 c 1
 394 554 l 1
 428 554 l 1
 370 435 l 1
 441 418 469 359 469 291 c 0
 469 183 361 -9 156 -9 c 1
 95 -135 l 1
 60 -135 l 1
 124 -4 l 1
167 14 m 1
 346 14 385 278 385 293 c 0
 385 344 388 370 357 406 c 1
 167 14 l 1
140 29 m 1
 328 418 l 1
 189 418 112 212 112 134 c 0
 112 58 121 46 140 29 c 1
EndSplineSet
EndChar

StartChar: ugrave
Encoding: 321 249 182
Width: 500
Flags: HMW
HStem: -11 21G<79 142> -9 47<313.5 388.5> 644 20G<230 244.5>
VStem: 42 77<63 70 63 70> 289 90
LayerCount: 2
Fore
SplineSet
364 492 m 1
 228 594 l 2
 223 598 205 612 205 629 c 0
 205 649 219 664 241 664 c 0
 248 664 265 660 283 637 c 2
 395 492 l 1
 364 492 l 1
329 227 m 1
 261 114 187 -11 97 -11 c 0
 61 -11 42 4 42 48 c 0
 42 92 115 334 115 361 c 0
 115 390 99 400 58 400 c 1
 58 414 l 1
 108 420 158 429 211 439 c 1
 120 80 119 71 119 69 c 0
 119 57 123 42 141 42 c 0
 184 42 247 136 281 188 c 0
 330 262 352 325 391 432 c 1
 465 432 l 1
 386 133 l 2
 381 115 352 38 379 38 c 0
 398 38 426 73 461 117 c 1
 475 108 l 1
 412 17 386 -9 336 -9 c 0
 291 -9 289 28 289 43 c 0
 289 61 309 145 332 227 c 1
 329 227 l 1
EndSplineSet
EndChar

StartChar: uacute
Encoding: 322 250 183
Width: 500
Flags: HMW
HStem: -11 21G<79 142> -9 47<313.5 388.5> 644 20G<435.5 451.5>
VStem: 42 77<63 70 63 70> 289 90
LayerCount: 2
Fore
SplineSet
329 227 m 1
 261 114 187 -11 97 -11 c 0
 61 -11 42 4 42 48 c 0
 42 92 115 334 115 361 c 0
 115 390 99 400 58 400 c 1
 58 414 l 1
 108 420 158 429 211 439 c 1
 120 80 119 71 119 69 c 0
 119 57 123 42 141 42 c 0
 184 42 247 136 281 188 c 0
 330 262 352 325 391 432 c 1
 465 432 l 1
 386 133 l 2
 381 115 352 38 379 38 c 0
 398 38 426 73 461 117 c 1
 475 108 l 1
 412 17 386 -9 336 -9 c 0
 291 -9 289 28 289 43 c 0
 289 61 309 145 332 227 c 1
 329 227 l 1
254 494 m 1
 409 647 l 2
 415 653 430 664 441 664 c 0
 462 664 477 647 477 629 c 0
 477 614 464 600 453 593 c 2
 289 494 l 1
 254 494 l 1
EndSplineSet
EndChar

StartChar: ucircumflex
Encoding: 323 251 184
Width: 500
Flags: HMW
HStem: -11 21G<79 142> -9 47<313.5 388.5> 432 60<423 459> 641 20G<322 371 371 371>
VStem: 42 77<63 70 63 70> 289 90
LayerCount: 2
Fore
SplineSet
329 227 m 1
 261 114 187 -11 97 -11 c 0
 61 -11 42 4 42 48 c 0
 42 92 115 334 115 361 c 0
 115 390 99 400 58 400 c 1
 58 414 l 1
 108 420 158 429 211 439 c 1
 120 80 119 71 119 69 c 0
 119 57 123 42 141 42 c 0
 184 42 247 136 281 188 c 0
 330 262 352 325 391 432 c 1
 465 432 l 1
 386 133 l 2
 381 115 352 38 379 38 c 0
 398 38 426 73 461 117 c 1
 475 108 l 1
 412 17 386 -9 336 -9 c 0
 291 -9 289 28 289 43 c 0
 289 61 309 145 332 227 c 1
 329 227 l 1
165 492 m 1
 322 661 l 1
 371 661 l 1
 459 492 l 1
 423 492 l 1
 341 596 l 1
 204 492 l 1
 165 492 l 1
EndSplineSet
EndChar

StartChar: udieresis
Encoding: 324 252 185
Width: 500
Flags: HMW
HStem: -11 21G<79 142> -9 47<313.5 388.5> 508 98<216.5 243.5 416.5 443.5>
VStem: 42 77<63 70 63 70> 181 98<543.5 570.5> 381 98<543.5 570.5>
LayerCount: 2
Fore
SplineSet
381 557 m 0
 381 584 403 606 430 606 c 0
 457 606 479 584 479 557 c 0
 479 530 457 508 430 508 c 0
 403 508 381 530 381 557 c 0
181 557 m 0
 181 584 203 606 230 606 c 0
 257 606 279 584 279 557 c 0
 279 530 257 508 230 508 c 0
 203 508 181 530 181 557 c 0
329 227 m 1
 261 114 187 -11 97 -11 c 0
 61 -11 42 4 42 48 c 0
 42 92 115 334 115 361 c 0
 115 390 99 400 58 400 c 1
 58 414 l 1
 108 420 158 429 211 439 c 1
 120 80 119 71 119 69 c 0
 119 57 123 42 141 42 c 0
 184 42 247 136 281 188 c 0
 330 262 352 325 391 432 c 1
 465 432 l 1
 386 133 l 2
 381 115 352 38 379 38 c 0
 398 38 426 73 461 117 c 1
 475 108 l 1
 412 17 386 -9 336 -9 c 0
 291 -9 289 28 289 43 c 0
 289 61 309 145 332 227 c 1
 329 227 l 1
EndSplineSet
EndChar

StartChar: yacute
Encoding: 325 253 186
Width: 444
Flags: HMW
HStem: -206 45 421 20G<150 165.5 356 387.5> 644 20G<417.5 433.5>
VStem: 386 40<319.5 340>
LayerCount: 2
Fore
SplineSet
236 494 m 1
 391 647 l 2
 397 653 412 664 423 664 c 0
 444 664 459 647 459 629 c 0
 459 614 446 600 435 593 c 2
 271 494 l 1
 236 494 l 1
264 72 m 1
 307 142 386 277 386 330 c 0
 386 350 373 357 360 365 c 0
 346 373 332 382 332 406 c 0
 332 420 343 441 369 441 c 0
 406 441 426 415 426 379 c 0
 426 260 146 -206 27 -206 c 0
 19 -206 -24 -203 -24 -161 c 0
 -24 -140 -7 -123 14 -123 c 0
 32 -123 44 -133 54 -141 c 0
 61 -147 68 -151 75 -151 c 0
 91 -151 104 -142 138 -102 c 0
 163 -73 205 -24 205 3 c 0
 205 41 169 199 153 253 c 0
 125 344 106 404 49 404 c 0
 34 404 27 403 15 400 c 1
 15 417 l 1
 63 425 141 441 159 441 c 0
 172 441 216 328 231 248 c 2
 264 72 l 1
EndSplineSet
EndChar

StartChar: thorn
Encoding: 326 254 187
Width: 500
Flags: HMW
HStem: -205 21G<-75 130 -75 -75> -11 21G<158.5 240> 398 43<309 345.5> 663 20G<275 275>
VStem: 379 90<253.5 326.5>
LayerCount: 2
Fore
SplineSet
103 6 m 1
 95 -30 70 -120 70 -139 c 0
 70 -185 107 -190 130 -190 c 1
 130 -205 l 1
 -75 -205 l 1
 -75 -189 l 1
 -22 -189 -13 -152 -5 -120 c 0
 16 -34 139 430 172 547 c 0
 178 569 185 590 185 607 c 0
 185 629 170 643 123 643 c 1
 123 660 l 1
 173 666 224 673 275 683 c 1
 280 678 l 1
 277 666 195 352 189 335 c 1
 191 333 l 1
 211 368 268 441 350 441 c 0
 439 441 469 382 469 310 c 0
 469 155 309 -11 171 -11 c 0
 146 -11 126 -6 103 6 c 1
117 45 m 0
 117 19 142 8 167 8 c 0
 289 8 379 194 379 313 c 0
 379 340 378 398 313 398 c 0
 266 398 208 352 182 284 c 0
 157 220 117 84 117 45 c 0
EndSplineSet
EndChar

StartChar: ydieresis
Encoding: 327 255 188
Width: 444
Flags: HMW
HStem: -206 21G<23 86.5> 421 20G<159 165.5 356 387.5> 508 98<178.5 205.5 378.5 405.5>
VStem: 143 98<543.5 570.5> 343 98<543.5 570.5> 386 40<319.5 341>
LayerCount: 2
Fore
SplineSet
343 557 m 0
 343 584 365 606 392 606 c 0
 419 606 441 584 441 557 c 0
 441 530 419 508 392 508 c 0
 365 508 343 530 343 557 c 0
143 557 m 0
 143 584 165 606 192 606 c 0
 219 606 241 584 241 557 c 0
 241 530 219 508 192 508 c 0
 165 508 143 530 143 557 c 0
264 72 m 1
 307 142 386 277 386 330 c 0
 386 352 371 359 357 368 c 0
 344 376 332 384 332 406 c 0
 332 420 343 441 369 441 c 0
 406 441 426 415 426 379 c 0
 426 260 146 -206 27 -206 c 0
 19 -206 -24 -203 -24 -161 c 0
 -24 -140 -7 -123 14 -123 c 0
 28 -123 39 -129 48 -136 c 0
 58 -143 66 -151 75 -151 c 0
 91 -151 104 -142 138 -102 c 0
 163 -73 205 -24 205 3 c 0
 205 41 170 187 154 241 c 0
 126 332 106 404 49 404 c 0
 34 404 27 403 15 400 c 1
 15 417 l 1
 63 425 141 440 159 441 c 0
 172 441 217 318 231 243 c 2
 264 72 l 1
EndSplineSet
EndChar

StartChar: dotlessi
Encoding: 245 305 189
Width: 278
Flags: HMW
HStem: -11 21G<72.5 124> 421 20G<225 225>
VStem: 49 75<47.5 57 47.5 74.5>
LayerCount: 2
Fore
SplineSet
222 114 m 1
 235 103 l 1
 196 44 152 -11 96 -11 c 0
 49 -11 49 33 49 51 c 0
 49 98 125 336 125 364 c 0
 125 385 120 400 65 400 c 1
 65 416 l 1
 103 418 186 434 225 441 c 1
 228 439 l 1
 140 117 l 2
 136 103 124 63 124 51 c 0
 124 44 131 36 140 36 c 0
 152 36 181 56 222 114 c 1
EndSplineSet
EndChar

StartChar: Lslash
Encoding: 232 321 190
Width: 556
Flags: HMW
HStem: 0 36<243.5 331.5 243.5 501> 633 20G<130 403 403 403>
VStem: -8 567<0 179 16 179>
LayerCount: 2
Fore
SplineSet
-8 0 m 1
 -8 16 l 1
 41 25 59 38 76 100 c 2
 123 270 l 1
 24 211 l 1
 37 259 l 1
 136 318 l 1
 196 532 l 2
 202 553 206 573 206 589 c 0
 206 618 186 637 130 637 c 1
 130 653 l 1
 403 653 l 1
 403 637 l 1
 342 628 326 637 295 531 c 2
 249 374 l 1
 392 459 l 1
 378 410 l 1
 236 327 l 1
 204 202 171 113 171 80 c 0
 171 36 216 36 271 36 c 0
 392 36 473 39 539 185 c 1
 559 179 l 1
 501 0 l 1
 -8 0 l 1
EndSplineSet
EndChar

StartChar: lslash
Encoding: 248 322 191
Width: 278
Flags: HMW
HStem: -11 21G<63 116> 663 20G<270 270>
VStem: 37 76<48 56>
LayerCount: 2
Fore
SplineSet
224 123 m 1
 237 114 l 1
 186 37 147 -11 85 -11 c 0
 41 -11 37 23 37 51 c 0
 37 61 69 184 110 332 c 1
 38 296 l 1
 50 342 l 1
 122 378 l 1
 151 487 179 595 179 605 c 0
 179 631 140 640 114 640 c 1
 114 656 l 1
 166 662 218 671 270 683 c 1
 275 678 l 1
 210 428 l 1
 307 478 l 1
 295 432 l 1
 198 382 l 1
 124 99 l 2
 122 92 113 71 113 54 c 0
 113 42 116 32 129 32 c 0
 154 32 175 60 224 123 c 1
EndSplineSet
EndChar

StartChar: OE
Encoding: 234 338 192
Width: 944
Flags: HMW
HStem: -8 32<227.5 289.5> 0 33<584.5 700.5 584.5 834> 328 33<600 660.5> 620 33<687.5 701 701 797> 634 32<359 454 341 477.5>
VStem: 49 108<185.5 295.5 185.5 342>
LayerCount: 2
Fore
SplineSet
458 199 m 2
 531 467 l 2
 538 494 551 535 551 552 c 0
 551 603 509 634 446 634 c 0
 272 634 157 384 157 207 c 0
 157 164 158 24 297 24 c 0
 403 24 428 88 458 199 c 2
752 224 m 1
 758 261 754 240 758 266 c 1
 758 311 730 328 591 328 c 1
 539 138 l 2
 534 118 524 84 524 70 c 0
 524 35 550 33 619 33 c 0
 782 33 835 106 883 172 c 1
 899 166 l 1
 834 0 l 1
 488 0 l 2
 448 0 413 -2 378 -4 c 0
 344 -6 309 -8 270 -8 c 0
 150 -8 49 92 49 220 c 0
 49 464 240 666 442 666 c 0
 466 666 496 664 525 660 c 0
 553 657 579 653 595 653 c 2
 964 653 l 1
 933 503 l 1
 917 503 l 1
 917 586 917 620 797 620 c 2
 701 620 l 2
 674 620 668 603 664 588 c 2
 600 361 l 1
 765 361 781 372 820 456 c 1
 838 452 l 1
 772 222 l 1
 752 224 l 1
EndSplineSet
EndChar

StartChar: oe
Encoding: 250 339 193
Width: 667
Flags: HMW
HStem: -12 21 -12 42<437 449.5> -11 21G<131.5 196> 418 23<234.5 308>
VStem: 20 83<97 166.5 97 209>
LayerCount: 2
Fore
SplineSet
389 205 m 1
 460 227 484 234 517 259 c 0
 572 302 580 349 580 366 c 0
 580 389 572 416 549 416 c 0
 495 416 419 321 389 205 c 1
103 110 m 0
 103 84 103 9 172 9 c 0
 294 9 343 310 343 347 c 0
 343 376 336 418 280 418 c 0
 189 418 103 223 103 110 c 0
303 56 m 1
 268 22 233 -11 159 -11 c 0
 104 -11 20 29 20 140 c 0
 20 278 169 441 291 441 c 0
 380 441 404 369 406 361 c 1
 485 436 532 441 574 441 c 0
 640 441 646 368 646 361 c 0
 646 334 627 291 583 259 c 0
 493 194 392 195 384 183 c 0
 375 169 373 133 373 112 c 0
 373 44 428 30 446 30 c 0
 496 30 536 61 593 105 c 1
 604 94 l 1
 567 56 492 -12 407 -12 c 0
 362 -12 322 15 303 56 c 1
EndSplineSet
EndChar

StartChar: Scaron
Encoding: 328 352 194
Width: 500
Flags: HMW
HStem: -18 35<208.5 262 170 294.5> -15 21G<17 17 17 35> 633 33<297.5 325.5 256.5 385.5> 647 20G<485 508 508 508>
VStem: 51 20<206 208> 131 88<509.5 550.5>
LayerCount: 2
Fore
SplineSet
311 704 m 1
 215 873 l 1
 252 873 l 1
 342 768 l 1
 484 873 l 1
 520 873 l 1
 357 704 l 1
 311 704 l 1
17 -15 m 1
 51 208 l 1
 71 206 l 1
 70 198 69 193 69 185 c 0
 69 96 125 17 215 17 c 0
 309 17 344 99 344 149 c 0
 344 213 307 244 274 279 c 0
 136 426 131 437 131 502 c 0
 131 599 210 666 303 666 c 0
 348 666 362 660 380 654 c 0
 397 648 419 642 438 642 c 0
 457 642 474 648 485 667 c 1
 508 667 l 1
 468 468 l 1
 450 471 l 1
 450 528 446 633 325 633 c 0
 270 633 219 600 219 533 c 0
 219 486 232 463 318 377 c 0
 411 286 431 246 431 180 c 0
 431 86 361 -18 228 -18 c 0
 189 -18 158 -6 133 4 c 0
 114 12 99 18 84 18 c 0
 56 18 39 -2 35 -15 c 1
 17 -15 l 1
EndSplineSet
EndChar

StartChar: scaron
Encoding: 329 353 195
Width: 389
Flags: HMW
HStem: -13 21G 418 23<225 239.5 176 268.5> 641 20G<149 186 186 186 418 454 454 454>
VStem: 109 73<344 345.5> 182 148<303 384.5> 228 76<74.5 107>
LayerCount: 2
Fore
SplineSet
245 492 m 1
 149 661 l 1
 186 661 l 1
 276 556 l 1
 418 661 l 1
 454 661 l 1
 291 492 l 1
 245 492 l 1
16 -13 m 1
 36 146 l 1
 52 146 l 1
 59 102 75 10 156 10 c 0
 212 10 228 58 228 91 c 0
 228 123 201 161 172 201 c 0
 141 244 109 290 109 330 c 0
 109 361 123 441 229 441 c 0
 250 441 263 438 274 434 c 0
 287 429 298 424 314 424 c 0
 331 424 347 434 352 442 c 1
 366 442 l 1
 346 303 l 1
 330 303 l 1
 330 360 301 418 236 418 c 0
 214 418 182 409 182 360 c 0
 182 328 213 289 244 248 c 0
 274 208 304 165 304 123 c 0
 304 14 211 -11 155 -11 c 0
 140 -11 124 -6 109 -1 c 0
 95 4 80 8 66 8 c 0
 52 8 38 -2 32 -13 c 1
 16 -13 l 1
EndSplineSet
EndChar

StartChar: Ydieresis
Encoding: 330 376 196
Width: 556
Flags: HMW
HStem: 0 21G<78 78 78 367> 633 20G<91 330 330 330 444 633 633 633> 637 181<307.5 311.5 284.5 330 284.5 444> 720 98<284.5 311.5 484.5 511.5>
VStem: 249 98<755.5 782.5> 449 98<755.5 782.5>
LayerCount: 2
Fore
SplineSet
449 769 m 0
 449 796 471 818 498 818 c 0
 525 818 547 796 547 769 c 0
 547 742 525 720 498 720 c 0
 471 720 449 742 449 769 c 0
249 769 m 0
 249 796 271 818 298 818 c 0
 325 818 347 796 347 769 c 0
 347 742 325 720 298 720 c 0
 271 720 249 742 249 769 c 0
78 0 m 1
 78 16 l 1
 125 20 161 34 180 100 c 2
 244 302 l 1
 167 571 l 2
 151 628 143 629 91 637 c 1
 91 653 l 1
 330 653 l 1
 330 637 l 1
 285 637 261 627 261 602 c 0
 261 594 261 585 264 574 c 0
 272 540 301 439 325 347 c 1
 370 403 490 539 505 578 c 0
 509 589 511 597 511 604 c 0
 511 628 484 633 444 637 c 1
 444 653 l 1
 633 653 l 1
 633 637 l 1
 606 624 595 616 563 576 c 2
 344 306 l 1
 284 101 l 2
 280 88 278 77 278 68 c 0
 278 25 309 20 367 16 c 1
 367 0 l 1
 78 0 l 1
EndSplineSet
EndChar

StartChar: Zcaron
Encoding: 331 381 197
Width: 556
Flags: HMW
HStem: 0 36<123 274 274 356> 617 36<235.5 312 312 473> 853 20G<233 270 270 270 502 538 538 538>
VStem: -6 612
LayerCount: 2
Fore
SplineSet
329 704 m 1
 233 873 l 1
 270 873 l 1
 360 768 l 1
 502 873 l 1
 538 873 l 1
 375 704 l 1
 329 704 l 1
-6 0 m 1
 -6 14 l 1
 473 617 l 1
 312 617 l 2
 159 617 127 571 93 502 c 1
 74 507 l 1
 120 653 l 1
 606 653 l 1
 606 639 l 1
 123 36 l 1
 274 36 l 2
 438 36 485 68 534 171 c 1
 553 168 l 1
 499 0 l 1
 -6 0 l 1
EndSplineSet
EndChar

StartChar: zcaron
Encoding: 332 382 198
Width: 389
Flags: HMW
HStem: -76 21G 368 60<153 172 172 308> 641 20G<129 166 166 166 398 434 434 434>
VStem: 324 69
LayerCount: 2
Fore
SplineSet
225 492 m 1
 129 661 l 1
 166 661 l 1
 256 556 l 1
 398 661 l 1
 434 661 l 1
 271 492 l 1
 225 492 l 1
-2 -4 m 1
 308 368 l 1
 172 368 l 2
 134 368 103 365 81 309 c 1
 65 313 l 1
 96 428 l 1
 380 428 l 1
 380 417 l 1
 90 73 l 1
 156 59 173 40 225 -27 c 0
 251 -60 270 -60 280 -60 c 0
 292 -60 308 -57 308 -44 c 0
 308 -37 303 -30 299 -21 c 0
 296 -15 294 -9 294 0 c 0
 294 17 306 31 329 31 c 0
 338 31 363 26 363 -6 c 0
 363 -44 320 -81 269 -81 c 0
 229 -81 190 -56 151 -33 c 0
 118 -13 85 5 52 5 c 0
 35 5 20 -2 7 -13 c 1
 -2 -4 l 1
EndSplineSet
EndChar

StartChar: florin
Encoding: 166 402 199
Width: 500
Flags: HMW
HStem: -182 23<111 144 111 171> 372 30<122 238 129 234 321 440> 653 29<387.5 426>
VStem: 25 84<-109 -96.5 -109 -93.5> 426 81<600 608.5>
LayerCount: 2
Fore
SplineSet
122 372 m 1
 129 402 l 1
 238 402 l 1
 258 542 317 682 427 682 c 0
 457 682 507 664 507 613 c 0
 507 587 492 566 466 566 c 0
 449 566 426 580 426 605 c 0
 426 612 429 617 432 622 c 0
 436 628 439 634 439 640 c 0
 439 646 432 653 420 653 c 0
 355 653 341 562 321 402 c 1
 447 402 l 1
 440 372 l 1
 318 372 l 1
 279 79 l 2
 274 40 237 -182 105 -182 c 0
 50 -182 25 -148 25 -118 c 0
 25 -69 64 -67 70 -67 c 0
 94 -67 109 -88 109 -105 c 0
 109 -113 106 -120 102 -126 c 0
 99 -132 95 -137 95 -143 c 0
 95 -155 108 -159 114 -159 c 0
 174 -159 185 -77 198 39 c 2
 234 372 l 1
 122 372 l 1
EndSplineSet
EndChar

StartChar: circumflex
Encoding: 195 710 200
Width: 333
Flags: HMW
HStem: 492 21G<91 91 91 132 347 347 347 385> 641 20G<248 297 297 297>
LayerCount: 2
Fore
SplineSet
91 492 m 1
 248 661 l 1
 297 661 l 1
 385 492 l 1
 347 492 l 1
 262 596 l 1
 132 492 l 1
 91 492 l 1
EndSplineSet
EndChar

StartChar: caron
Encoding: 207 711 201
Width: 333
Flags: HMW
HStem: 492 21G<217 217 217 263> 641 20G<121 159 159 159 389 426 426 426>
VStem: 121 305<661 661>
LayerCount: 2
Fore
SplineSet
217 492 m 1
 121 661 l 1
 159 661 l 1
 251 556 l 1
 389 661 l 1
 426 661 l 1
 263 492 l 1
 217 492 l 1
EndSplineSet
EndChar

StartChar: breve
Encoding: 198 728 202
Width: 333
Flags: HMW
HStem: 492 56<206.5 294> 630 20G<117 147 147 147 388 418 418 418>
VStem: 117 30<642 650 642 650>
LayerCount: 2
Fore
SplineSet
117 650 m 1
 147 650 l 1
 147 634 157 548 256 548 c 0
 355 548 387 646 388 650 c 1
 418 650 l 1
 404 563 337 492 251 492 c 0
 118 492 117 608 117 650 c 1
EndSplineSet
EndChar

StartChar: dotaccent
Encoding: 199 729 203
Width: 333
Flags: HMW
HStem: 508 98<242.5 269.5>
VStem: 207 98<543.5 570.5>
LayerCount: 2
Fore
SplineSet
207 557 m 0
 207 584 229 606 256 606 c 0
 283 606 305 584 305 557 c 0
 305 530 283 508 256 508 c 0
 229 508 207 530 207 557 c 0
EndSplineSet
EndChar

StartChar: ring
Encoding: 202 730 204
Width: 333
Flags: HMW
HStem: 492 34<237 273 237 281.5> 492 165<237 273 237 281.5> 526 131<237 273> 526 165<237 273>
VStem: 155 35<573 609 573 618.5> 155 167<573 609 573 618.5> 190 132<573 609> 190 165<573 609> 322 33<573 609>
LayerCount: 2
Fore
SplineSet
190 591 m 0
 190 555 219 526 255 526 c 0
 291 526 322 555 322 591 c 0
 322 627 291 657 255 657 c 0
 219 657 190 627 190 591 c 0
155 591 m 0
 155 646 199 691 254 691 c 0
 309 691 355 646 355 591 c 0
 355 536 309 492 254 492 c 0
 199 492 155 536 155 591 c 0
EndSplineSet
EndChar

StartChar: ogonek
Encoding: 206 731 205
Width: 333
Flags: HMW
HStem: -169 44<55 59> 20 20G<58 87 87 87>
VStem: -20 58<-106 -77.5>
LayerCount: 2
Fore
SplineSet
58 40 m 1
 87 40 l 1
 61 2 38 -56 38 -96 c 0
 38 -116 48 -125 62 -125 c 0
 85 -125 157 -100 178 -72 c 1
 200 -89 l 1
 176 -130 83 -169 35 -169 c 0
 4 -169 -20 -148 -20 -98 c 0
 -20 -57 29 14 58 40 c 1
EndSplineSet
EndChar

StartChar: tilde
Encoding: 196 732 206
Width: 333
Flags: HMW
HStem: 520 103
LayerCount: 2
Fore
SplineSet
100 517 m 1
 110 555 127 623 201 623 c 0
 228 623 255 612 280 601 c 0
 305 590 327 580 346 580 c 0
 384 580 392 603 399 624 c 1
 427 624 l 1
 416 557 376 520 331 520 c 0
 313 520 285 531 257 542 c 0
 228 553 199 564 181 564 c 0
 153 564 136 545 129 517 c 1
 100 517 l 1
EndSplineSet
EndChar

StartChar: hungarumlaut
Encoding: 205 733 207
Width: 333
Flags: HMW
HStem: 494 170<93 290.5 274.5 290.5 274.5 298 263 290.5>
VStem: 93 393<494 638>
LayerCount: 2
Fore
SplineSet
263 494 m 1
 421 649 l 2
 427 655 439 664 450 664 c 0
 471 664 486 647 486 629 c 0
 486 614 476 602 465 595 c 2
 298 494 l 1
 263 494 l 1
93 494 m 1
 246 647 l 2
 252 653 269 664 280 664 c 0
 301 664 316 647 316 629 c 0
 316 614 301 600 290 593 c 2
 128 494 l 1
 93 494 l 1
EndSplineSet
EndChar

StartChar: endash
Encoding: 177 8211 208
Width: 500
Flags: HMW
HStem: 197 34<-6 505 4 495> 197 46
LayerCount: 2
Fore
SplineSet
-6 197 m 1
 4 231 l 1
 505 231 l 1
 495 197 l 1
 -6 197 l 1
EndSplineSet
EndChar

StartChar: emdash
Encoding: 208 8212 209
Width: 889
Flags: HMW
HStem: 197 38<-6 894 5 883> 197 46
LayerCount: 2
Fore
SplineSet
-6 197 m 1
 5 235 l 1
 894 235 l 1
 883 197 l 1
 -6 197 l 1
EndSplineSet
EndChar

StartChar: quoteleft
Encoding: 96 8216 210
Width: 333
Flags: HMW
HStem: 436 21G<213 234> 646 20G<301 301>
VStem: 171 64<489.5 583.5> 171 113<489.5 496.5 465 544.5>
LayerCount: 2
Fore
SplineSet
310 649 m 1
 290 636 235 602 235 565 c 0
 235 547 248 539 261 528 c 0
 273 518 284 507 284 486 c 0
 284 444 238 436 230 436 c 0
 196 436 171 468 171 511 c 0
 171 578 244 638 301 666 c 1
 310 649 l 1
EndSplineSet
EndChar

StartChar: quoteright
Encoding: 39 8217 211
Width: 333
Flags: HMW
HStem: 436 21G<160 160> 646 20G<227 248>
VStem: 176 114<606.5 613.5 558.5 638> 226 64<519.5 613.5>
LayerCount: 2
Fore
SplineSet
160 436 m 1
 151 453 l 1
 171 466 226 501 226 538 c 0
 226 556 212 565 199 576 c 0
 187 586 176 596 176 617 c 0
 176 659 223 666 231 666 c 0
 265 666 290 635 290 592 c 0
 290 525 217 464 160 436 c 1
EndSplineSet
EndChar

StartChar: quotesinglbase
Encoding: 184 8218 212
Width: 333
Flags: HMW
HStem: -129 230<53 141>
VStem: 71 112<39.5 47.5 -7.5 72> 119 64<-46.5 47.5>
LayerCount: 2
Fore
SplineSet
44 -112 m 1
 64 -99 119 -65 119 -28 c 0
 119 -12 108 -3 97 6 c 0
 84 16 71 28 71 51 c 0
 71 93 116 101 124 101 c 0
 158 101 183 69 183 26 c 0
 183 -41 110 -101 53 -129 c 1
 44 -112 l 1
EndSplineSet
EndChar

StartChar: quotedblleft
Encoding: 170 8220 213
Width: 556
Flags: HMW
HStem: 436 21G<208 229 417 438> 646 20G<296 296 505 505>
VStem: 166 64<489.5 583.5> 166 112<489.5 497.5 465 544.5> 375 64<489.5 583.5> 375 112<489.5 498 465 544.5>
LayerCount: 2
Fore
SplineSet
514 649 m 1
 494 636 439 602 439 565 c 0
 439 549 449 541 460 532 c 0
 473 521 487 510 487 486 c 0
 487 444 442 436 434 436 c 0
 400 436 375 468 375 511 c 0
 375 578 448 638 505 666 c 1
 514 649 l 1
305 649 m 1
 285 636 230 602 230 565 c 0
 230 549 241 540 252 531 c 0
 265 521 278 509 278 486 c 0
 278 444 233 436 225 436 c 0
 191 436 166 468 166 511 c 0
 166 578 239 638 296 666 c 1
 305 649 l 1
EndSplineSet
EndChar

StartChar: quotedblright
Encoding: 186 8221 214
Width: 556
Flags: HMW
HStem: 436 21G<160 160 369 369> 646 20G<227 248 436 457>
VStem: 178 112<605 612.5 557.5 637> 226 64<518.5 612.5> 387 112<606 612.5 557.5 637> 435 64<518.5 612.5>
LayerCount: 2
Fore
SplineSet
369 436 m 1
 360 453 l 1
 380 466 435 500 435 537 c 0
 435 556 420 565 407 576 c 0
 396 585 387 596 387 616 c 0
 387 658 432 666 440 666 c 0
 474 666 499 634 499 591 c 0
 499 524 426 464 369 436 c 1
160 436 m 1
 151 453 l 1
 171 466 226 500 226 537 c 0
 226 554 213 563 201 573 c 0
 189 583 178 594 178 616 c 0
 178 658 223 666 231 666 c 0
 265 666 290 634 290 591 c 0
 290 524 217 464 160 436 c 1
EndSplineSet
EndChar

StartChar: quotedblbase
Encoding: 185 8222 215
Width: 556
Flags: HMW
HStem: -129 230<66 154 133 275>
VStem: 84 112<40 47.5 -7.5 72> 132 64<-46.5 47.5> 293 112<39 47.5 -7.5 72> 341 64<-46.5 47.5>
LayerCount: 2
Fore
SplineSet
266 -112 m 1
 286 -99 341 -65 341 -28 c 0
 341 -12 331 -4 320 5 c 0
 307 16 293 27 293 51 c 0
 293 93 338 101 346 101 c 0
 380 101 405 69 405 26 c 0
 405 -41 332 -101 275 -129 c 1
 266 -112 l 1
57 -112 m 1
 77 -99 132 -65 132 -28 c 0
 132 -11 120 -3 108 7 c 0
 96 17 84 29 84 51 c 0
 84 93 129 101 137 101 c 0
 171 101 196 69 196 26 c 0
 196 -41 123 -101 66 -129 c 1
 57 -112 l 1
EndSplineSet
EndChar

StartChar: dagger
Encoding: 178 8224 216
Width: 500
Flags: HMW
HStem: 426 21<263.5 280 304 325.5> 646 20G<322.5 344.5>
VStem: 286 89<601.5 628>
LayerCount: 2
Fore
SplineSet
157 -159 m 1
 199 69 220 122 206 262 c 1
 244 302 268 356 280 426 c 1
 240 426 215 419 196 411 c 0
 177 403 163 395 146 395 c 0
 117 395 101 416 101 437 c 0
 101 457 116 477 147 477 c 0
 172 477 185 469 202 462 c 0
 220 454 242 447 285 447 c 1
 292 484 295 512 295 531 c 0
 295 546 293 558 291 568 c 0
 289 581 286 593 286 610 c 0
 286 646 311 666 334 666 c 0
 355 666 375 647 375 610 c 0
 375 584 363 571 348 551 c 0
 333 531 315 503 304 447 c 1
 348 447 370 455 387 462 c 0
 404 470 417 477 442 477 c 0
 473 477 488 457 488 437 c 0
 488 416 472 395 443 395 c 0
 428 395 416 401 399 408 c 0
 378 417 350 426 301 426 c 1
 295 405 292 375 292 347 c 0
 292 303 298 261 308 258 c 1
 278 214 239 105 227 51 c 2
 179 -159 l 1
 157 -159 l 1
EndSplineSet
EndChar

StartChar: daggerdbl
Encoding: 179 8225 217
Width: 500
Flags: HMW
HStem: -216 21G<100.5 125.5> -46 72<16 42.5 293.5 320.5> -18 21G<132.5 156 174 201.5> 0 21G<130 161 180 209.5> 452 72<168.5 195.5 446.5 473> 674 20G<363.5 388.5>
VStem: 77 85<-188 -96> 327 85<574 666>
LayerCount: 2
Fore
SplineSet
156 -18 m 1
 109 -18 61 -46 24 -46 c 0
 6 -46 -14 -29 -14 -10 c 0
 -14 11 6 26 26 26 c 0
 61 26 99 0 161 0 c 1
 165 16 169 33 169 50 c 0
 169 73 163 88 151 107 c 1
 207 148 247 247 247 316 c 0
 247 335 244 353 237 371 c 1
 274 396 293 438 309 478 c 1
 250 478 214 452 177 452 c 0
 158 452 139 468 139 488 c 0
 139 509 158 524 179 524 c 0
 215 524 260 496 315 496 c 1
 324 526 327 558 327 590 c 0
 327 670 348 694 379 694 c 0
 398 694 412 675 412 657 c 0
 412 609 349 544 333 496 c 1
 380 496 428 524 465 524 c 0
 483 524 503 507 503 488 c 0
 503 467 483 452 463 452 c 0
 428 452 390 478 328 478 c 1
 324 462 320 445 320 428 c 0
 320 405 326 390 338 371 c 1
 282 330 242 231 242 162 c 0
 242 143 245 125 252 107 c 1
 215 82 196 40 180 0 c 1
 239 0 275 26 312 26 c 0
 331 26 350 10 350 -10 c 0
 350 -31 331 -46 310 -46 c 0
 274 -46 229 -18 174 -18 c 1
 165 -48 162 -80 162 -112 c 0
 162 -192 141 -216 110 -216 c 0
 91 -216 77 -197 77 -179 c 0
 77 -131 140 -66 156 -18 c 1
EndSplineSet
EndChar

StartChar: bullet
Encoding: 183 8226 218
Width: 350
Flags: HMW
HStem: 191 21G 204 21G<141 208.5> 427 20G<140 208> 441 20G
VStem: 51 246
LayerCount: 2
Fore
SplineSet
53 327 m 0
 53 394 106 447 174 447 c 0
 242 447 296 394 296 327 c 0
 296 260 242 204 175 204 c 0
 107 204 53 259 53 327 c 0
EndSplineSet
EndChar

StartChar: ellipsis
Encoding: 188 8230 219
Width: 889
Flags: HMW
HStem: -11 100<118 146 385 413 652 680>
VStem: 57 111 82 100<25 53> 349 100<25 53> 354 111 617 100<25 53> 651 111
LayerCount: 2
Fore
SplineSet
617 39 m 0
 617 67 638 89 666 89 c 0
 694 89 717 67 717 39 c 0
 717 11 694 -11 666 -11 c 0
 638 -11 617 11 617 39 c 0
349 39 m 0
 349 67 371 89 399 89 c 0
 427 89 449 67 449 39 c 0
 449 11 427 -11 399 -11 c 0
 371 -11 349 11 349 39 c 0
82 39 m 0
 82 67 104 89 132 89 c 0
 160 89 182 67 182 39 c 0
 182 11 160 -11 132 -11 c 0
 104 -11 82 11 82 39 c 0
EndSplineSet
EndChar

StartChar: perthousand
Encoding: 189 8240 220
Width: 1000
Flags: HMW
HStem: -15 21G<70 70 70 112> -12 20<439.5 494.5 439.5 505.5 780.5 835.5> 322 20<497.5 556 838.5 897> 654 20<216.5 275> 657 20G<607 649 649 649>
VStem: 64 62<414 435 385 499> 305 62<557.5 583 478 602> 345 62<82 103 53 167> 586 62<225.5 251 146 270> 686 62<82 103 53 167> 927 62<225.5 251 146 270>
LayerCount: 2
Fore
SplineSet
70 -15 m 1
 607 677 l 1
 649 677 l 1
 112 -15 l 1
 70 -15 l 1
126 400 m 0
 126 370 142 340 175 340 c 0
 252 340 305 527 305 588 c 0
 305 616 296 654 254 654 c 0
 179 654 126 470 126 400 c 0
64 449 m 0
 64 549 145 674 254 674 c 0
 305 674 367 628 367 538 c 0
 367 418 266 320 183 320 c 0
 110 320 64 379 64 449 c 0
407 68 m 0
 407 38 423 8 456 8 c 0
 533 8 586 195 586 256 c 0
 586 284 577 322 535 322 c 0
 460 322 407 138 407 68 c 0
345 117 m 0
 345 217 426 342 535 342 c 0
 586 342 648 296 648 206 c 0
 648 86 547 -12 464 -12 c 0
 391 -12 345 47 345 117 c 0
748 68 m 0
 748 38 764 8 797 8 c 0
 874 8 927 195 927 256 c 0
 927 284 918 322 876 322 c 0
 801 322 748 138 748 68 c 0
686 117 m 0
 686 217 767 342 876 342 c 0
 927 342 989 296 989 206 c 0
 989 86 888 -12 805 -12 c 0
 732 -12 686 47 686 117 c 0
EndSplineSet
EndChar

StartChar: guilsinglleft
Encoding: 172 8249 221
Width: 333
Flags: HMW
HStem: 37 366<192.5 276>
VStem: 51 230<216 397.5 225 397.5>
LayerCount: 2
Fore
SplineSet
51 216 m 1
 51 225 l 1
 80 248 132 286 163 313 c 0
 195 341 264 403 273 403 c 0
 279 403 281 400 281 395 c 0
 281 378 262 347 136 217 c 1
 167 156 207 56 207 45 c 0
 207 43 207 37 199 37 c 0
 186 37 133 115 118 132 c 0
 102 150 58 204 51 216 c 1
EndSplineSet
EndChar

StartChar: guilsinglright
Encoding: 173 8250 222
Width: 333
Flags: HMW
HStem: 37 21G<57 64.5> 383 20G<130 140.5>
VStem: 60 222
LayerCount: 2
Fore
SplineSet
198 223 m 1
 167 284 126 384 126 395 c 0
 126 397 126 403 134 403 c 0
 147 403 200 325 215 308 c 0
 231 290 275 236 282 224 c 1
 282 215 l 1
 253 192 201 154 170 127 c 0
 138 99 69 37 60 37 c 0
 54 37 52 40 52 45 c 0
 52 62 72 93 198 223 c 1
EndSplineSet
EndChar

StartChar: fraction
Encoding: 164 8260 223
Width: 167
Flags: HMW
HStem: -10 21G<-9 -9 -9 35> 656 20G<150 197 197 197>
LayerCount: 2
Fore
SplineSet
-9 -10 m 1
 150 676 l 1
 197 676 l 1
 35 -10 l 1
 -9 -10 l 1
EndSplineSet
EndChar

StartChar: Euro
Encoding: 333 8364 224
Width: 500
Flags: HMW
HStem: 0 45<290.5 332.5> 254 38<2 67 2 67 -11 67 177 456> 378 38<2 85 -11 101 209 484> 631 37<371.5 447.5 371.5 467>
VStem: 186 109 541 23
LayerCount: 2
Fore
SplineSet
67 254 m 1
 -11 254 l 1
 2 292 l 1
 67 292 l 1
 69 321 77 349 85 378 c 1
 -11 378 l 1
 2 416 l 1
 101 416 l 1
 167 612 343 668 400 668 c 0
 495 668 513 642 553 623 c 1
 553 481 l 1
 530 481 l 1
 530 574 524 631 410 631 c 0
 308 631 221 490 209 416 c 1
 498 416 l 1
 484 378 l 1
 195 378 l 1
 186 350 177 318 177 292 c 1
 468 292 l 1
 456 254 l 1
 176 254 l 1
 176 97 227 45 354 45 c 0
 406 45 507 84 547 140 c 1
 564 131 l 1
 512 47 386 0 279 0 c 0
 172 0 67 81 67 254 c 1
EndSplineSet
EndChar

StartChar: trademark
Encoding: 334 8482 225
Width: 980
Flags: HMW
HStem: 247 21G<665 676 665 665> 249 20<117 117 117 288> 633 20<97 118 118 167 238 238 238 288 419 433.5>
VStem: 167 71<333 633> 488 26<344 553> 830 71<333 555 555 555>
LayerCount: 2
Fore
SplineSet
436 249 m 1
 436 269 l 1
 480 273 488 300 488 344 c 2
 488 583 l 1
 476 613 448 633 419 633 c 1
 419 653 l 1
 540 653 l 1
 694 344 l 1
 854 653 l 1
 957 653 l 1
 957 633 l 1
 913 631 901 613 901 578 c 2
 901 333 l 2
 901 285 899 275 951 269 c 1
 951 249 l 1
 781 249 l 1
 781 269 l 1
 833 275 830 285 830 333 c 2
 830 555 l 1
 828 555 l 1
 676 247 l 1
 665 247 l 1
 516 553 l 1
 514 553 l 1
 514 344 l 2
 514 300 522 273 567 269 c 1
 567 249 l 1
 436 249 l 1
117 249 m 1
 117 269 l 1
 169 275 167 285 167 333 c 2
 167 633 l 1
 118 633 l 2
 76 633 59 602 50 565 c 1
 30 565 l 1
 30 653 l 1
 375 653 l 1
 375 565 l 1
 355 565 l 1
 346 602 329 633 288 633 c 2
 238 633 l 1
 238 333 l 2
 238 285 236 275 288 269 c 1
 288 249 l 1
 117 249 l 1
EndSplineSet
EndChar

StartChar: minus
Encoding: 335 8722 226
Width: 675
Flags: HW
LayerCount: 2
Fore
SplineSet
86 220 m 1
 86 262 l 1
 600 262 l 1
 600 220 l 1
 86 220 l 1
EndSplineSet
EndChar

StartChar: fi
Encoding: 174 64257 227
Width: 500
Flags: HMW
HStem: -207 24<-60 -22.5 -60 -4.5> -207 112<-95.5 -87.5 -114.5 -4.5> -12 21G 396 32<45 139 52 132 216 365> 659 22<328.5 386>
LayerCount: 2
Fore
SplineSet
45 396 m 1
 52 428 l 1
 139 428 l 1
 167 524 218 681 381 681 c 0
 427 681 481 659 481 612 c 0
 481 573 455 559 435 559 c 0
 414 559 398 573 398 600 c 0
 398 614 402 622 405 628 c 0
 408 634 411 638 411 643 c 0
 411 654 396 659 376 659 c 0
 281 659 253 558 216 428 c 1
 366 428 l 2
 394 428 416 430 432 432 c 0
 448 434 459 436 465 436 c 2
 470 433 l 2
 471 430 470 424 465 405 c 0
 458 377 370 63 370 48 c 0
 370 39 377 37 382 37 c 0
 401 37 443 87 459 106 c 1
 475 97 l 1
 433 38 389 -8 344 -8 c 0
 313 -8 295 12 295 43 c 0
 295 80 351 270 380 377 c 0
 381 380 381 384 381 387 c 0
 381 392 377 396 365 396 c 2
 210 396 l 1
 138 76 l 2
 110 -47 54 -207 -63 -207 c 0
 -128 -207 -141 -162 -141 -145 c 0
 -141 -130 -128 -95 -101 -95 c 0
 -74 -95 -65 -119 -65 -132 c 0
 -65 -138 -66 -144 -68 -150 c 0
 -71 -158 -74 -165 -74 -170 c 0
 -74 -180 -70 -183 -50 -183 c 0
 5 -183 32 -78 43 -24 c 0
 66 87 122 374 132 396 c 1
 45 396 l 1
EndSplineSet
EndChar

StartChar: fl
Encoding: 175 64258 228
Width: 500
Flags: HMW
HStem: -204 25<-60 -23 -60 -14.5> -9 21G<328 359> 396 32<41 138 47 130 216 375> 660 22<325.5 395>
VStem: -141 72
LayerCount: 2
Fore
SplineSet
41 396 m 1
 47 428 l 1
 138 428 l 1
 170 544 235 682 389 682 c 0
 403 682 420 679 436 677 c 0
 452 674 466 671 474 671 c 0
 482 671 489 674 496 677 c 0
 503 679 509 682 513 682 c 0
 516 682 518 678 518 673 c 0
 518 669 517 664 516 659 c 0
 507 626 370 70 370 48 c 0
 370 38 377 36 382 36 c 0
 400 36 436 78 459 105 c 1
 475 96 l 1
 413 8 376 -9 342 -9 c 0
 314 -9 295 10 295 43 c 0
 295 99 358 310 375 396 c 1
 209 396 l 1
 140 86 l 2
 100 -93 33 -204 -62 -204 c 0
 -132 -204 -141 -156 -141 -143 c 0
 -141 -123 -132 -92 -100 -92 c 0
 -80 -92 -65 -109 -65 -128 c 0
 -65 -135 -67 -141 -69 -147 c 0
 -71 -154 -74 -161 -74 -166 c 0
 -74 -175 -71 -179 -49 -179 c 0
 3 -179 30 -82 43 -21 c 0
 82 165 126 378 130 396 c 1
 41 396 l 1
216 428 m 1
 383 428 l 1
 419 572 l 2
 421 578 418 585 415 591 c 0
 412 597 410 602 410 608 c 0
 410 622 422 632 422 637 c 0
 422 646 410 660 380 660 c 0
 271 660 234 499 216 428 c 1
EndSplineSet
EndChar
